<svg width="60" height="60" viewBox="0 0 60 60" fill="none" xmlns="http://www.w3.org/2000/svg">
<g clip-path="url(#clip0_4076_40573)">
<path d="M10.3078 18.9408C11.2598 19.6792 11.6093 21.0136 11.7659 22.1552C11.7907 22.3535 11.8121 22.5519 11.8311 22.7509C11.8435 22.8753 11.8583 22.9995 11.8769 23.1231C11.9128 23.3877 11.9298 23.6527 11.9479 23.919C11.9523 23.9808 11.9567 24.0426 11.9612 24.1062C11.9855 24.4504 12.0084 24.7946 12.0295 25.139C12.1577 27.2252 12.3736 29.2816 12.9834 31.29C13.0002 31.346 13.017 31.4021 13.0343 31.4598C13.1447 31.8102 13.2876 32.1387 13.4471 32.4693C13.5062 32.5936 13.5631 32.7187 13.6202 32.8439C14.0497 33.7768 14.5541 34.6539 15.196 35.4578C15.2302 35.5018 15.2643 35.5458 15.2995 35.5911C15.5114 35.8612 15.735 36.118 15.9666 36.3714C16.0488 36.4626 16.1265 36.5547 16.2026 36.6509C16.3329 36.8013 16.4708 36.9257 16.6221 37.0543C16.7533 37.1676 16.8796 37.2854 17.0066 37.4035C17.3151 37.684 17.6375 37.94 17.9746 38.1849C18.0171 38.216 18.0171 38.216 18.0604 38.2476C18.8459 38.8133 19.724 39.289 20.6502 39.5742C20.724 39.5998 20.7978 39.6253 20.8715 39.6508C21.1089 39.7301 21.3476 39.7875 21.5925 39.8379C21.6353 39.8468 21.6782 39.8556 21.7223 39.8647C22.0509 39.9304 22.373 39.9754 22.7084 39.9859C22.7692 39.9885 22.8301 39.9912 22.8927 39.9939C23.2991 40.0036 23.6889 39.9739 24.0913 39.9151C24.1363 39.9086 24.1813 39.9022 24.2277 39.8955C24.4708 39.866 24.4708 39.866 24.6637 39.7286C24.6994 39.6051 24.6994 39.6051 24.6637 39.4713C24.5556 39.3817 24.4598 39.3179 24.3389 39.2494C24.2848 39.2172 24.2848 39.2172 24.2296 39.1843C24.1471 39.1353 24.0642 39.0867 23.9812 39.0385C23.8281 38.9496 23.6757 38.8595 23.5235 38.7692C23.2602 38.6132 23.2602 38.6132 22.9969 38.4574C21.8849 37.7995 20.7997 37.1095 19.728 36.3882C19.4963 36.2323 19.264 36.0775 19.031 35.9235C18.4104 35.5131 17.7939 35.0989 17.1966 34.6548C17.1056 34.5874 17.0139 34.521 16.9219 34.4549C15.9592 33.7515 14.9018 32.6965 14.6499 31.4914C14.5587 30.8046 14.5895 30.117 15.0075 29.5405C15.2823 29.2102 15.6135 29.0069 16.0193 28.8716C16.9996 28.8037 17.597 29.1267 18.344 29.711C18.5529 29.8735 18.7671 30.0183 18.992 30.1574C19.1635 30.2643 19.3326 30.3744 19.5016 30.4851C20.5614 31.1786 21.6401 31.8362 22.7351 32.4722C22.9024 32.5694 23.0694 32.667 23.2364 32.7647C23.6477 33.0052 24.0591 33.2454 24.4726 33.4822C25.2993 33.9561 26.1157 34.4447 26.9277 34.9433C26.992 34.9826 26.992 34.9826 27.0576 35.0227C28.211 35.7285 29.3058 36.5222 30.3238 37.4131C30.3631 37.4473 30.4024 37.4816 30.443 37.5168C30.5104 37.5757 30.5777 37.6348 30.6448 37.6941C30.705 37.7467 30.7659 37.7985 30.8277 37.8493C31.0272 38.014 31.1953 38.1906 31.3627 38.3878C31.4559 38.4938 31.5537 38.5916 31.6552 38.6899C31.8746 38.9072 32.0688 39.1404 32.2603 39.3826C32.3105 39.446 32.3609 39.5092 32.4114 39.5723C32.8627 40.1363 33.2804 40.7144 33.6683 41.3237C33.6881 41.3544 33.7079 41.3852 33.7283 41.4169C34.3138 42.3333 34.8389 43.3347 35.212 44.3563C35.2945 44.5804 35.3785 44.8025 35.4725 45.022C35.6137 45.3701 35.7011 45.7362 35.7982 46.0984C35.8431 46.2615 35.893 46.4231 35.942 46.585C36.0273 46.8814 36.0773 47.1741 36.1161 47.4798C36.1365 47.6393 36.1618 47.7967 36.1896 47.955C36.2071 48.06 36.2242 48.165 36.2411 48.2701C36.2499 48.3249 36.2587 48.3796 36.2678 48.436C36.3521 49.025 36.3649 49.61 36.3659 50.2045C36.3665 50.3742 36.3691 50.5438 36.3716 50.7134C36.3721 50.8229 36.3725 50.9324 36.3727 51.0419C36.3737 51.0918 36.3748 51.1417 36.3758 51.1931C36.3732 51.5934 36.2657 51.9297 35.9947 52.2319C35.7073 52.5064 35.3516 52.6974 35.0094 52.8947C34.9773 52.9133 34.9453 52.9319 34.9122 52.9511C33.4382 53.807 31.8933 54.5834 30.3254 55.2517C30.1964 55.3077 30.072 55.367 29.9475 55.432C29.75 55.534 29.5441 55.606 29.3347 55.6799C29.203 55.7271 29.0736 55.7779 28.9441 55.8308C28.6765 55.9393 28.4046 56.0347 28.1323 56.1307C27.9373 56.2013 27.7457 56.2782 27.5546 56.359C27.1436 56.509 26.5781 56.5416 26.1591 56.4006C25.8566 56.2192 25.6904 55.9622 25.5899 55.6282C25.5656 55.4635 25.5474 55.2993 25.5317 55.1336C25.4095 53.9923 24.71 53.0418 23.9433 52.2322C23.9043 52.1904 23.8653 52.1487 23.8252 52.1057C23.2352 51.4937 22.5315 51.014 21.8337 50.5342C21.8026 50.5128 21.7716 50.4914 21.7396 50.4693C20.9332 49.9167 20.0973 49.4059 19.2577 48.9057C17.2699 47.7207 15.3391 46.4772 13.6369 44.8988C13.5237 44.7948 13.4091 44.6939 13.2922 44.5943C12.9025 44.2559 12.5367 43.8832 12.2026 43.49C12.1079 43.381 12.0098 43.2755 11.9111 43.1701C11.5764 42.8117 11.2726 42.4348 10.9767 42.0441C10.9486 42.0072 10.9205 41.9704 10.8916 41.9325C8.67526 39.0153 7.38122 35.6426 6.71315 32.0636C6.70693 32.0303 6.70071 31.997 6.69431 31.9627C6.68804 31.9291 6.68177 31.8955 6.6753 31.8609C6.66043 31.784 6.64479 31.7072 6.62865 31.6305C6.56636 31.3332 6.52427 31.0394 6.49648 30.737C6.49204 30.6901 6.4876 30.6432 6.48303 30.5949C6.46888 30.4418 6.45541 30.2886 6.44221 30.1355C6.43763 30.0824 6.43304 30.0293 6.42832 29.9746C6.33361 28.8504 6.31541 27.7348 6.34573 26.6076C6.34685 26.5638 6.34796 26.52 6.34911 26.4749C6.40252 24.4464 6.58952 22.3619 7.22046 20.4233C7.2363 20.3744 7.25214 20.3256 7.26846 20.2752C7.50089 19.6025 7.86839 19.0492 8.48975 18.6901C9.10626 18.3917 9.76969 18.5818 10.3078 18.9408Z" fill="#7A40F1"/>
<path d="M39.6371 6.4887C39.683 6.50296 39.7289 6.51722 39.7762 6.53191C40.7267 6.86459 41.5592 7.63542 42.0022 8.52799C42.3801 9.32826 42.5906 10.2729 42.3114 11.1377C42.2949 11.1827 42.2784 11.2277 42.2614 11.274C42.2432 11.3254 42.2251 11.3767 42.2065 11.4296C42.0082 11.9493 41.6942 12.3441 41.2837 12.7148C41.257 12.7392 41.2302 12.7636 41.2027 12.7887C40.8132 13.1056 40.277 13.1622 39.7901 13.1517C39.583 13.1174 39.4732 13.0324 39.318 12.8967C39.0035 12.628 38.6228 12.6363 38.2254 12.6454C37.9843 12.6689 37.8235 12.7256 37.6304 12.8691C37.5983 12.8927 37.5662 12.9163 37.5331 12.9407C37.1862 13.2177 36.9907 13.5379 36.9402 13.983C36.9366 14.0463 36.933 14.1096 36.9293 14.1748C36.9255 14.2389 36.9216 14.3029 36.9177 14.369C36.9152 14.4174 36.9126 14.4658 36.91 14.5157C36.944 14.5157 36.978 14.5157 37.0129 14.5157C37.0384 14.6032 37.0384 14.6032 37.0644 14.6926C37.1971 15.0417 37.4529 15.3416 37.7816 15.5223C38.1754 15.6699 38.6736 15.6661 39.075 15.5508C39.4269 15.3881 39.6884 15.1381 39.8976 14.8148C40.039 14.6096 40.1876 14.4951 40.4273 14.4327C40.5688 14.4069 40.7105 14.3852 40.8528 14.3645C41.622 14.237 42.1993 14.0253 42.6859 13.3869C43.1404 12.654 43.2492 11.6245 43.2696 10.7814C43.2992 10.5317 43.4065 10.354 43.5992 10.1935C44.2899 9.96321 45.0693 10.2266 45.6928 10.5311C46.6143 11.0743 47.2014 11.9808 47.4919 12.9951C47.5843 13.3766 47.5783 13.7525 47.5709 14.1426C47.5701 14.2142 47.5694 14.2857 47.5688 14.3573C47.567 14.5302 47.5644 14.703 47.5612 14.8759C47.6296 14.891 47.6296 14.891 47.6994 14.9065C47.7594 14.92 47.8194 14.9335 47.8812 14.9474C47.9406 14.9607 48 14.974 48.0612 14.9877C48.2884 15.0449 48.4856 15.1293 48.6932 15.2361C48.7701 15.2742 48.7701 15.2742 48.8486 15.313C50.2739 16.0451 51.2183 17.2298 51.7194 18.7382C52.0944 20.1291 51.8723 21.5345 51.2145 22.7999C51.1465 22.9101 51.0767 23.0183 51.0034 23.125C50.9436 23.2168 50.9436 23.2168 50.9765 23.3563C51.0236 23.4485 51.0706 23.5407 51.118 23.6327C51.6054 24.6333 51.712 25.9042 51.3689 26.9678C51.1436 27.6061 50.8267 28.1499 50.3912 28.6658C50.352 28.7178 50.3127 28.7698 50.2723 28.8234C49.5821 29.5777 48.6539 29.9638 47.7156 30.3124C47.7123 30.3408 47.7089 30.3692 47.7055 30.3985C47.5518 31.6725 47.2342 32.8406 46.1883 33.6745C45.5089 34.1757 44.8159 34.4237 43.971 34.4378C43.9352 34.4384 43.8995 34.4391 43.8626 34.4397C43.7131 34.4422 43.5636 34.4446 43.4141 34.4455C43.3039 34.4463 43.1937 34.4484 43.0834 34.4507C42.9856 34.4518 42.9856 34.4518 42.8858 34.453C42.7241 34.4662 42.7241 34.4662 42.626 34.5634C42.552 34.7257 42.5511 34.8532 42.551 35.0316C42.5501 35.1005 42.5492 35.1695 42.5483 35.2385C42.5478 35.3458 42.5476 35.4532 42.5477 35.5605C42.5463 36.3457 42.3892 37.0619 41.8401 37.6544C41.1826 38.2672 40.2204 38.6457 39.3252 38.6642C39.2641 38.6661 39.203 38.668 39.1401 38.67C38.9355 38.6439 38.8541 38.588 38.711 38.4423C38.6559 38.277 38.6528 38.1581 38.6523 37.9844C38.652 37.921 38.6517 37.8576 38.6514 37.7923C38.6513 37.7219 38.6513 37.6515 38.6512 37.5811C38.651 37.5071 38.6507 37.433 38.6504 37.359C38.6498 37.1576 38.6494 36.9562 38.6492 36.7548C38.6491 36.6288 38.6488 36.5028 38.6486 36.3768C38.6479 35.9822 38.6474 35.5875 38.6472 35.1928C38.647 34.7381 38.6461 34.2835 38.6446 33.8289C38.6435 33.477 38.643 33.1251 38.6429 32.7732C38.6428 32.5632 38.6425 32.3534 38.6416 32.1435C38.6408 31.9456 38.6407 31.7477 38.6411 31.5499C38.6411 31.4777 38.6409 31.4055 38.6404 31.3333C38.6364 30.7317 38.7165 30.1869 38.9972 29.6499C39.0149 29.6154 39.0325 29.5809 39.0508 29.5453C39.2461 29.1756 39.4859 28.8424 39.7401 28.5114C39.7809 28.4583 39.8216 28.4052 39.8637 28.3504C39.9259 28.2699 39.988 28.1894 40.0505 28.1092C40.2383 27.867 40.417 27.6188 40.5955 27.3698C41.7762 25.7296 41.7762 25.7296 42.673 25.5785C42.7547 25.5729 42.8366 25.5694 42.9185 25.5678C42.9657 25.5668 43.013 25.5658 43.0616 25.5648C43.2764 25.5618 43.4911 25.5593 43.7059 25.5577C43.8189 25.5566 43.932 25.5548 44.0451 25.5524C44.2088 25.5489 44.3725 25.5475 44.5362 25.5466C44.6116 25.5444 44.6116 25.5444 44.6885 25.5422C44.9959 25.5431 45.1616 25.5905 45.3832 25.808C45.4516 25.8872 45.4516 25.8872 45.5448 26.0191C45.7683 26.2681 46.0283 26.3839 46.3591 26.4251C46.8399 26.4387 47.1895 26.3548 47.5998 26.1124C47.9763 25.7149 48.0947 25.3216 48.0902 24.7856C48.0646 24.4589 47.9571 24.2383 47.7445 23.9931C47.701 23.9559 47.6575 23.9188 47.6127 23.8805C47.5723 23.8444 47.532 23.8083 47.4905 23.7712C47.2003 23.5639 46.9412 23.4925 46.5868 23.4978C46.5506 23.4982 46.5144 23.4985 46.4771 23.4989C46.1918 23.5077 45.9877 23.5552 45.7603 23.7261C45.7314 23.7472 45.7026 23.7682 45.6729 23.7898C45.5552 23.8819 45.459 23.9725 45.3744 24.096C45.2591 24.2353 45.1657 24.2486 44.9885 24.2921C44.7823 24.3058 44.5766 24.3039 44.37 24.3026C44.246 24.3031 44.122 24.3037 43.9981 24.3044C43.8042 24.3049 43.6104 24.305 43.4166 24.304C42.2222 24.2991 41.3796 24.439 40.4984 25.2776C40.14 25.6557 39.882 26.1168 39.6126 26.5598C39.2826 27.0999 38.9175 27.5741 38.4858 28.0387C37.2938 29.3251 37.0243 30.5221 37.0313 32.2375C37.0319 32.447 37.0309 32.6565 37.03 32.866C37.0286 33.2618 37.0284 33.6576 37.0288 34.0534C37.0293 34.7628 37.0281 35.4723 37.026 36.1818C37.0253 36.4302 37.0253 36.6786 37.0257 36.927C37.0259 37.0816 37.0257 37.2362 37.0254 37.3907C37.0253 37.462 37.0254 37.5332 37.0257 37.6045C37.0283 38.2074 37.0176 38.6523 36.5768 39.0987C36.1514 39.4767 35.7399 39.5212 35.1869 39.4961C34.8944 39.4722 34.6758 39.3897 34.4402 39.2141C34.4029 39.1874 34.3656 39.1606 34.3272 39.1331C34.0166 38.8872 33.803 38.5751 33.7198 38.185C33.7148 38.0317 33.7126 37.8797 33.7129 37.7264C33.7127 37.6558 33.7127 37.6558 33.7125 37.5838C33.7122 37.4248 33.7122 37.2659 33.7122 37.107C33.7121 36.9924 33.7119 36.8778 33.7117 36.7631C33.7112 36.4472 33.711 36.1313 33.7108 35.8154C33.7107 35.5099 33.7102 35.2045 33.7098 34.899C33.7088 34.0804 33.7082 33.2618 33.7078 32.4431C33.7075 32.0558 33.7073 31.6684 33.707 31.281C33.7061 29.9547 33.7053 28.6284 33.7049 27.3021C33.7049 27.2188 33.7049 27.1355 33.7049 27.0522C33.7048 27.0109 33.7048 26.9696 33.7048 26.9271C33.7048 26.7179 33.7047 26.5086 33.7046 26.2994C33.7046 26.2579 33.7046 26.2163 33.7046 26.1736C33.7042 24.828 33.703 23.4825 33.7013 22.137C33.6995 20.7141 33.6985 19.2913 33.6984 17.8684C33.6983 17.7121 33.6983 17.5558 33.6983 17.3995C33.6983 17.361 33.6983 17.3225 33.6983 17.2828C33.6982 16.6643 33.6973 16.0457 33.6963 15.4272C33.6952 14.8049 33.695 14.1826 33.6955 13.5604C33.6957 13.2235 33.6956 12.8865 33.6946 12.5496C33.6937 12.2408 33.6937 11.9321 33.6945 11.6233C33.6947 11.5119 33.6944 11.4006 33.6938 11.2892C33.6865 9.86955 34.0753 8.63365 35.0776 7.60081C35.6043 7.07407 36.2021 6.68188 36.91 6.43724C36.9575 6.42079 37.005 6.40434 37.0539 6.3874C37.884 6.15025 38.8263 6.21555 39.6371 6.4887Z" fill="#6533DD"/>
<path d="M52.0989 30.232C52.1459 30.2312 52.193 30.2304 52.2415 30.2296C52.7614 30.2375 53.1584 30.4114 53.5344 30.7674C54.0127 31.3062 53.9296 32.0582 53.8902 32.7307C53.8533 33.0475 53.774 33.3515 53.6844 33.6569C53.6682 33.7132 53.6682 33.7132 53.6518 33.7706C53.5673 34.0612 53.4732 34.3481 53.3756 34.6346C53.3591 34.6833 53.3426 34.7321 53.3256 34.7823C52.325 37.7112 50.7474 40.5025 48.7447 42.8674C48.6994 42.9216 48.6541 42.9759 48.6088 43.0302C48.3434 43.3474 48.0723 43.6577 47.792 43.9618C47.693 44.0706 47.5965 44.1806 47.5005 44.292C47.3122 44.5073 47.1143 44.711 46.9118 44.9129C46.8575 44.9673 46.8575 44.9673 46.8021 45.0228C46.7261 45.0988 46.65 45.1748 46.5739 45.2507C46.4584 45.3659 46.3433 45.4813 46.2281 45.5968C46.1537 45.6712 46.0793 45.7455 46.0049 45.8198C45.971 45.8538 45.9371 45.8878 45.9022 45.9228C45.7023 46.1217 45.4969 46.3113 45.2833 46.4954C45.1691 46.5939 45.0579 46.6955 44.9466 46.7973C44.6766 47.0407 44.3964 47.2698 44.1137 47.4983C44.0504 47.5503 43.9871 47.6024 43.9238 47.6545C43.4482 48.0452 42.9643 48.4219 42.4672 48.7847C42.4343 48.8087 42.4014 48.8328 42.3675 48.8575C41.3948 49.5642 40.381 50.2208 39.3423 50.8261C39.2251 50.8946 39.1084 50.9639 38.9917 51.0332C38.9185 51.076 38.8453 51.1187 38.772 51.1613C38.7236 51.1902 38.7236 51.1902 38.6741 51.2198C38.4646 51.3395 38.2843 51.4034 38.042 51.4089C37.9554 51.3479 37.9554 51.3479 37.8877 51.2545C37.8698 51.1379 37.8698 51.1379 37.8718 50.9993C37.8721 50.9471 37.8725 50.895 37.8728 50.8412C37.8739 50.7845 37.8751 50.7277 37.8762 50.6692C37.8767 50.6099 37.8771 50.5506 37.8776 50.4895C37.8792 50.2986 37.8817 50.1077 37.8844 49.9167C37.9017 48.6298 37.8669 47.3624 37.64 46.093C37.6263 46.0136 37.6126 45.9342 37.5988 45.8549C37.4303 44.8917 37.209 43.9531 36.91 43.0217C36.8969 42.9808 36.8839 42.9399 36.8704 42.8977C36.8058 42.699 36.7383 42.5104 36.6431 42.3239C36.5394 42.0941 36.5115 41.9349 36.5498 41.6839C36.7311 41.5006 36.8606 41.4517 37.1152 41.4409C37.2055 41.4361 37.2055 41.4361 37.2977 41.4313C37.3939 41.4274 37.3939 41.4274 37.4921 41.4234C37.6269 41.4161 37.7616 41.4084 37.8963 41.4005C37.9639 41.3966 38.0314 41.3926 38.101 41.3886C38.3935 41.3688 38.6838 41.3374 38.9747 41.3012C39.023 41.2955 39.0713 41.2899 39.121 41.284C39.4066 41.2474 39.6763 41.1871 39.9527 41.107C40.1071 41.0646 40.2619 41.0317 40.4186 40.9989C40.8252 40.9063 41.2065 40.758 41.5924 40.6034C41.6296 40.5886 41.6667 40.5738 41.705 40.5586C43.1251 39.9916 44.404 39.227 45.5356 38.1924C45.6429 38.0952 45.7524 38.0016 45.8632 37.9084C47.476 36.496 48.5499 34.3807 49.4094 32.4652C49.8015 31.5944 50.2473 30.784 51.1502 30.3638C51.465 30.2534 51.7665 30.2357 52.0989 30.232Z" fill="#A381FB"/>
<path d="M32.6903 4.9237C33.1123 5.30821 33.4015 5.85885 33.4284 6.42976C33.4401 7.1275 33.3781 7.71492 32.948 8.28958C32.9227 8.32387 32.8974 8.35816 32.8714 8.39349C32.5653 8.77557 32.1758 9.01548 31.7131 9.16431C31.7135 9.19858 31.714 9.23286 31.7144 9.26817C31.719 9.62884 31.7221 9.9895 31.7244 10.3502C31.7254 10.4843 31.7268 10.6185 31.7286 10.7526C31.7471 12.1767 31.543 13.4619 30.5147 14.5365C30.1527 14.8829 29.7722 15.1408 29.3236 15.3582C29.2899 15.3748 29.2562 15.3913 29.2215 15.4084C28.6932 15.6508 28.1393 15.722 27.5635 15.7254C27.505 15.7264 27.4466 15.7273 27.3864 15.7282C27.2024 15.731 27.0185 15.7327 26.8345 15.7345C26.7086 15.7362 26.5828 15.738 26.4569 15.7398C26.1508 15.7441 25.8446 15.7477 25.5385 15.7506C25.5283 15.7823 25.5181 15.8141 25.5077 15.8468C25.4873 15.9094 25.4873 15.9094 25.4666 15.9731C25.4533 16.0145 25.4399 16.0558 25.4262 16.0984C25.2576 16.5601 24.8163 16.8987 24.4064 17.1398C23.7523 17.4399 23.0477 17.5017 22.3623 17.2661C21.6613 16.9549 21.2035 16.4547 20.9075 15.7506C20.7146 15.2179 20.725 14.5182 20.959 14.0011C21.288 13.3509 21.7693 12.8315 22.4668 12.5756C22.7079 12.5003 22.933 12.4831 23.1844 12.4864C23.2268 12.4868 23.2693 12.4872 23.313 12.4877C23.9125 12.5041 24.3769 12.6647 24.8181 13.0749C24.854 13.1068 24.89 13.1387 24.927 13.1716C25.2469 13.4704 25.448 13.8182 25.6414 14.2069C25.9773 14.2108 26.3132 14.2135 26.6492 14.2154C26.7633 14.2162 26.8774 14.2172 26.9916 14.2186C27.1562 14.2204 27.3208 14.2213 27.4855 14.222C27.536 14.2228 27.5865 14.2236 27.6386 14.2244C28.3308 14.2246 29.0023 13.9182 29.5023 13.4417C29.7974 13.1219 29.9799 12.765 30.1179 12.3545C30.1354 12.3059 30.1529 12.2572 30.1708 12.2071C30.2506 11.924 30.2393 11.6321 30.2422 11.3401C30.2432 11.2778 30.2442 11.2155 30.2452 11.1513C30.2482 10.9531 30.2506 10.755 30.253 10.5568C30.255 10.4221 30.257 10.2874 30.259 10.1527C30.264 9.82325 30.2684 9.49379 30.2723 9.16431C30.2321 9.15675 30.1919 9.14919 30.1504 9.1414C29.6693 9.03999 29.2295 8.65081 28.9435 8.26626C28.5214 7.58996 28.3691 6.93652 28.5293 6.14776C28.7097 5.45668 29.1123 4.93654 29.7192 4.55909C30.706 4.01254 31.8365 4.24397 32.6903 4.9237Z" fill="#7139EB"/>
<path d="M26.3104 7.77499C26.491 7.9207 26.6583 8.0766 26.8249 8.23809C26.8779 8.28455 26.8779 8.28455 26.932 8.33195C27.62 8.95747 28.0598 10.0052 28.1226 10.9247C28.1287 11.1045 28.1304 11.2838 28.1306 11.4637C28.1318 11.5246 28.1331 11.5855 28.1344 11.6483C28.1356 11.9985 28.1191 12.2263 27.9055 12.5089C27.7096 12.6875 27.5096 12.6866 27.2554 12.6779C27.0298 12.6507 26.9196 12.5549 26.7681 12.3935C26.6541 12.2276 26.6455 12.1451 26.6464 11.9461C26.6456 11.8584 26.6456 11.8584 26.6447 11.7689C26.6447 11.6767 26.6447 11.6767 26.6448 11.5827C26.6354 11.0843 26.6251 10.6517 26.4133 10.1934C26.3915 10.1449 26.3698 10.0964 26.3473 10.0464C25.9828 9.31226 25.4069 8.848 24.6385 8.5842C23.9359 8.38067 23.1474 8.43715 22.5029 8.78419C22.3608 8.87116 22.2257 8.96339 22.091 9.06137C22.0421 9.0943 22.0421 9.0943 21.9922 9.1279C21.3982 9.57066 21.1398 10.3299 21.0105 11.0263C20.8932 11.6456 20.6 12.1278 20.0839 12.494C20.0501 12.5159 20.0162 12.5378 19.9814 12.5603C19.9427 12.5866 19.9039 12.613 19.864 12.6401C19.6961 12.7296 19.5288 12.7682 19.3446 12.8079C18.3918 13.0342 17.6323 13.4057 17.0901 14.2485C16.8692 14.6383 16.7342 15.0035 16.7316 15.4522C16.7308 15.5491 16.7308 15.5491 16.73 15.6479C16.7297 15.6995 16.7297 15.6995 16.7295 15.7521C16.7289 15.8603 16.7279 15.9685 16.7267 16.0767C16.7236 16.3843 16.7208 16.6919 16.7191 16.9995C16.718 17.1879 16.7162 17.3763 16.7139 17.5647C16.7132 17.6361 16.7127 17.7076 16.7125 17.7791C16.7112 18.2998 16.6959 18.7026 16.3152 19.0919C15.6923 19.7533 15.2547 20.4349 15.2186 21.372C15.2507 22.3683 15.6754 23.1844 16.3795 23.8804C16.5139 24.0026 16.6493 24.1227 16.7878 24.2402C16.9237 24.3722 16.9913 24.4693 17.0048 24.6599C16.9756 24.9624 16.9064 25.1082 16.6883 25.3212C16.4551 25.4766 16.2406 25.4701 15.9679 25.4241C15.7849 25.333 15.6509 25.2054 15.5048 25.0639C15.4554 25.0184 15.406 24.9729 15.3551 24.926C14.9855 24.5782 14.6928 24.2082 14.4242 23.7775C14.3807 23.7078 14.3807 23.7078 14.3362 23.6366C13.7671 22.6617 13.6499 21.4396 13.8679 20.3397C14.0703 19.5721 14.4492 18.9546 14.9963 18.3828C15.1656 18.1888 15.2089 18.0465 15.2084 17.7897C15.2087 17.7067 15.2087 17.7067 15.209 17.6219C15.2088 17.562 15.2086 17.5022 15.2083 17.4405C15.2091 17.3122 15.21 17.1839 15.2108 17.0556C15.2117 16.8545 15.2122 16.6535 15.2118 16.4525C15.2108 15.1205 15.3377 14.017 16.2252 12.9719C16.2531 12.9372 16.281 12.9024 16.3098 12.8666C17.0006 12.0318 18.0071 11.5737 19.0453 11.3451C19.2697 11.2479 19.392 11.1219 19.5183 10.9137C19.5805 10.7506 19.6161 10.5862 19.6501 10.4153C19.912 9.25978 20.5449 8.25938 21.5633 7.61533C23.0562 6.72301 24.8774 6.78743 26.3104 7.77499Z" fill="#6E37EA"/>
<path d="M23.4287 23.829C23.8553 24.1512 24.2341 24.5472 24.4064 25.0639C24.4486 25.0642 24.4909 25.0645 24.5344 25.0648C24.9355 25.0678 25.3366 25.0716 25.7377 25.0761C25.9438 25.0783 26.1499 25.0804 26.3561 25.0818C26.5556 25.0831 26.7551 25.0852 26.9546 25.0878C27.0301 25.0886 27.1056 25.0892 27.1812 25.0895C27.8434 25.0927 28.4864 25.1489 29.0727 25.482C29.1094 25.5022 29.1461 25.5225 29.1838 25.5433C30.0837 26.0541 30.6536 26.8055 30.9665 27.7878C31.0462 28.1115 31.048 28.4181 31.0441 28.7492C31.044 28.8568 31.0441 28.9643 31.0443 29.0719C31.0445 29.2405 31.0441 29.409 31.0414 29.5776C31.0391 29.7411 31.0397 29.9043 31.0409 30.0677C31.0387 30.1428 31.0387 30.1428 31.0365 30.2195C31.0403 30.4361 31.0457 30.5681 31.198 30.73C31.3204 30.8269 31.3204 30.8269 31.4473 30.9069C31.5963 31.0064 31.6744 31.1239 31.7644 31.2771C31.7931 31.3246 31.8218 31.3721 31.8513 31.421C32.055 31.8018 32.0393 32.3772 31.9254 32.7906C31.7169 33.2324 31.3906 33.5266 30.9412 33.7084C30.7472 33.773 30.5644 33.7713 30.3623 33.7727C30.3053 33.7743 30.3053 33.7743 30.2471 33.7759C29.8046 33.779 29.4611 33.598 29.1402 33.2967C28.7637 32.8254 28.6795 32.3986 28.7157 31.8066C28.745 31.5684 28.8509 31.3809 28.9859 31.1871C29.0336 31.1154 29.0336 31.1154 29.0824 31.0424C29.1917 30.9298 29.1917 30.9298 29.2796 30.8812C29.4317 30.796 29.5339 30.7324 29.5854 30.5607C29.5979 30.4199 29.5991 30.2832 29.5961 30.1419C29.5962 30.0902 29.5963 30.0384 29.5964 29.9851C29.5962 29.8756 29.5951 29.7661 29.5932 29.6566C29.5905 29.491 29.5911 29.3256 29.5921 29.16C29.5903 28.3831 29.5276 27.7628 28.9577 27.1816C28.3819 26.6755 27.7834 26.5836 27.0372 26.5907C26.9645 26.5909 26.8918 26.5909 26.819 26.591C26.6677 26.5912 26.5164 26.592 26.3651 26.5931C26.1712 26.5946 25.9773 26.5951 25.7834 26.5954C25.6337 26.5956 25.4841 26.5961 25.3344 26.5967C25.2628 26.597 25.1913 26.5972 25.1198 26.5974C25.0202 26.5978 24.9206 26.5985 24.8209 26.5993C24.7643 26.5996 24.7077 26.6 24.6494 26.6004C24.5044 26.6016 24.5044 26.6016 24.3549 26.659C24.3133 26.7534 24.3133 26.7534 24.2874 26.8681C24.1195 27.4209 23.6615 27.8221 23.1715 28.0998C22.6343 28.3719 22.0195 28.4805 21.4304 28.3002C20.6444 27.9752 20.1221 27.5903 19.7776 26.7967C19.7599 26.7513 19.7422 26.7058 19.724 26.659C19.7051 26.6111 19.6862 26.5631 19.6667 26.5137C19.4818 25.8514 19.6426 25.1746 19.9684 24.588C20.2974 24.0765 20.7818 23.6591 21.383 23.512C22.115 23.3662 22.8072 23.3895 23.4287 23.829Z" fill="#6232D8"/>
<path d="M30.774 18.5388C31.3108 18.9033 31.7261 19.4653 31.8546 20.112C31.9406 20.882 31.7789 21.559 31.326 22.1885C31.1018 22.4674 30.8431 22.633 30.5296 22.7999C30.4787 22.8297 30.4278 22.8594 30.3753 22.89C29.7611 23.1459 29.0958 23.1013 28.4714 22.9028C27.7258 22.5429 27.328 21.9595 27.0307 21.2048C26.2837 21.1988 25.5368 21.1943 24.7898 21.1915C24.443 21.1902 24.0962 21.1884 23.7493 21.1854C23.4147 21.1826 23.0801 21.1811 22.7455 21.1804C22.6177 21.1799 22.49 21.179 22.3622 21.1776C22.1834 21.1758 22.0047 21.1755 21.826 21.1756C21.773 21.1747 21.72 21.1738 21.6655 21.1728C21.3641 21.1743 21.3641 21.1743 21.1098 21.3285C21.077 21.3726 21.0442 21.4167 21.0105 21.4621C20.9662 21.5155 20.9662 21.5155 20.921 21.57C20.8943 21.6034 20.8676 21.6368 20.84 21.6711C20.5806 21.97 20.2624 22.1002 19.8784 22.1825C19.332 22.2177 18.9171 22.0883 18.4936 21.7417C18.1823 21.4562 18.0034 21.0885 17.9624 20.6674C17.9485 20.1661 18.0713 19.8229 18.3959 19.4393C18.7401 19.078 19.0996 18.8859 19.5987 18.8733C20.2155 18.8823 20.5858 19.1281 21.0105 19.5583C21.0332 19.5856 21.0559 19.6129 21.0794 19.6411C21.1926 19.7359 21.2585 19.7319 21.405 19.7319C21.4544 19.7323 21.5037 19.7326 21.5546 19.733C21.6086 19.7326 21.6627 19.7322 21.7184 19.7318C21.7754 19.732 21.8323 19.7322 21.8911 19.7324C22.0799 19.7328 22.2688 19.7321 22.4576 19.7313C22.5886 19.7313 22.7195 19.7313 22.8504 19.7314C23.125 19.7314 23.3996 19.7309 23.6742 19.7299C23.9917 19.7288 24.3092 19.7287 24.6267 19.729C24.9321 19.7293 25.2374 19.729 25.5428 19.7284C25.6728 19.7282 25.8028 19.7282 25.9328 19.7282C26.1142 19.7283 26.2957 19.7276 26.4772 19.7268C26.5312 19.7269 26.5853 19.727 26.6409 19.7272C26.6903 19.7268 26.7396 19.7264 26.7905 19.726C26.8334 19.7259 26.8763 19.7258 26.9205 19.7257C27.046 19.7192 27.046 19.7192 27.1851 19.6097C27.2501 19.508 27.2501 19.508 27.3073 19.391C27.6161 18.8215 28.1161 18.4352 28.7287 18.2204C29.4295 18.0234 30.1609 18.1781 30.774 18.5388Z" fill="#6734E0"/>
<path d="M46.6544 17.9567C46.8252 18.0939 46.9401 18.2328 47.0467 18.4262C47.0764 18.4782 47.1061 18.5302 47.1367 18.5838C47.2591 18.888 47.2551 19.2628 47.1673 19.5755C46.982 19.9796 46.6742 20.2961 46.2749 20.4844C45.9343 20.5947 45.4802 20.6087 45.1467 20.476C45.0196 20.3989 44.9011 20.3167 44.7827 20.2271C43.9362 19.6411 42.8837 19.4671 41.8757 19.6451C40.7745 19.8798 40.0229 20.547 39.4204 21.4656C39.355 21.567 39.2901 21.6688 39.2255 21.7708C39.205 21.8031 39.1845 21.8354 39.1633 21.8686C38.753 22.5187 38.4393 23.164 38.2254 23.903C38.0251 24.5914 37.7623 25.4371 37.1225 25.8458C36.8881 25.9344 36.6404 25.9241 36.3955 25.8872C36.2435 25.8077 36.1434 25.7103 36.0353 25.5785C35.986 25.5212 35.986 25.5212 35.9356 25.4627C35.8395 25.2139 35.8282 24.9485 35.922 24.6963C35.9571 24.6278 35.9939 24.5602 36.0323 24.4935C36.0973 24.3831 36.0973 24.3831 36.1511 24.202C36.3186 23.7465 36.6415 23.3716 36.9583 23.0122C37.4764 22.4205 37.8138 21.7808 38.1405 21.0688C38.6059 20.0591 38.6059 20.0591 38.9683 19.6611C39.0031 19.6222 39.0379 19.5833 39.0738 19.5432C39.5935 18.9921 40.2854 18.6041 41.0232 18.4359C41.0708 18.425 41.1184 18.4141 41.1675 18.4029C41.8919 18.2546 42.6608 18.2727 43.3927 18.3631C43.5516 18.381 43.7095 18.3855 43.8693 18.3876C43.929 18.389 43.9887 18.3903 44.0502 18.3917C44.2325 18.3732 44.324 18.3215 44.4739 18.2204C44.5079 18.2204 44.5419 18.2204 44.5769 18.2204C44.5938 18.1695 44.6108 18.1185 44.6283 18.066C45.2662 17.5077 45.9609 17.466 46.6544 17.9567Z" fill="#FBFAFD"/>
<path d="M31.4494 5.76828C31.7044 5.93148 31.9248 6.14615 32.0218 6.43719C32.0564 6.82 32.0526 7.15064 31.816 7.46629C31.5955 7.71476 31.3492 7.802 31.0243 7.84135C30.6891 7.86086 30.4771 7.78501 30.2209 7.5692C30.0005 7.34279 29.8758 7.09014 29.8414 6.77487C29.8817 6.39246 30.005 6.1604 30.2818 5.8941C30.5981 5.64243 31.0729 5.63535 31.4494 5.76828Z" fill="#FBFAFD"/>
<path d="M22.7529 25.0782C22.9706 25.2537 23.0952 25.4582 23.136 25.7395C23.1558 26.1141 23.0526 26.3716 22.8114 26.659C22.6929 26.752 22.5907 26.8032 22.4512 26.8649C22.4003 26.8903 22.4003 26.8903 22.3483 26.9163C21.9979 26.9541 21.6978 26.9558 21.406 26.7431C21.1618 26.5068 21.0057 26.2159 20.9944 25.8744C20.9998 25.5723 21.108 25.3807 21.3144 25.1693C21.76 24.7602 22.2445 24.7406 22.7529 25.0782Z" fill="#FAF8FD"/>
<path d="M29.9144 19.6519C30.1506 19.7943 30.3135 20.0169 30.4492 20.2529C30.524 20.5853 30.4915 20.843 30.3451 21.1474C30.2011 21.363 29.9871 21.5018 29.7578 21.6165C29.3632 21.6612 29.0428 21.6564 28.7225 21.4056C28.5069 21.1874 28.3579 20.944 28.3428 20.6324C28.3916 20.254 28.5514 19.9672 28.8316 19.7126C29.1859 19.5092 29.5417 19.4976 29.9144 19.6519Z" fill="#FAF8FD"/>
<path d="M23.6524 13.9818C23.9265 14.0999 24.1358 14.2907 24.2522 14.5671C24.2987 14.8774 24.3165 15.2106 24.1686 15.4965C24.0001 15.7049 23.8433 15.8697 23.5833 15.9564C22.9637 16.0033 22.9637 16.0033 22.6764 15.8696C22.4012 15.6016 22.1914 15.3217 22.1747 14.9241C22.2077 14.5771 22.3482 14.383 22.6056 14.1555C22.6491 14.1162 22.6926 14.0769 22.7375 14.0365C23.03 13.8929 23.3388 13.8982 23.6524 13.9818Z" fill="#FAF9FD"/>
<path d="M6.96317 21.3077C6.98015 21.3077 6.99713 21.3077 7.01463 21.3077C7.01602 21.3989 7.01702 21.49 7.01784 21.5811C7.01844 21.6318 7.01904 21.6826 7.01965 21.7349C7.01463 21.8737 7.01463 21.8737 6.96317 22.0281C6.95019 22.1303 6.93724 22.2326 6.92619 22.335C6.91148 22.4415 6.88636 22.5414 6.86026 22.6456C6.6674 23.7127 6.6674 23.7127 6.605 24.7916C6.60299 24.9096 6.60299 24.9096 6.55153 24.961C6.54777 25.1143 6.55173 25.2669 6.55475 25.4201C6.55153 25.5785 6.55153 25.5785 6.5258 25.7047C6.49321 25.8708 6.49716 26.0269 6.50008 26.196C6.50585 26.5306 6.50585 26.5306 6.47517 26.6666C6.43836 26.8702 6.43651 27.071 6.43234 27.2775C6.43127 27.3217 6.4302 27.3659 6.4291 27.4114C6.42575 27.5519 6.42271 27.6924 6.41968 27.8329C6.41745 27.9284 6.41521 28.0239 6.41294 28.1194C6.40745 28.353 6.40223 28.5866 6.39717 28.8202C6.38019 28.8202 6.36321 28.8202 6.34571 28.8202C6.32141 26.284 6.40583 23.7916 6.96317 21.3077Z" fill="#9D66FA"/>
<path d="M33.8742 9.67889C33.9771 9.83326 33.9771 9.83326 33.9648 9.9569C33.9541 10.0075 33.9434 10.0581 33.9323 10.1102C33.8569 10.549 33.8646 10.9808 33.8694 11.4249C33.8722 11.6891 33.8732 11.9534 33.874 12.2177C33.8742 12.2735 33.8744 12.3293 33.8746 12.3868C33.8761 13.0869 33.8623 13.7868 33.8485 14.4867C33.8473 14.5502 33.846 14.6136 33.8447 14.679C33.8377 15.0362 33.8304 15.3934 33.8228 15.7506C33.8058 15.7506 33.7888 15.7506 33.7713 15.7506C33.7701 15.0635 33.7692 14.3765 33.7687 13.6894C33.7684 13.3703 33.768 13.0513 33.7674 12.7322C33.7669 12.4239 33.7666 12.1156 33.7664 11.8074C33.7663 11.6901 33.7662 11.5728 33.7659 11.4556C33.7623 9.90269 33.7623 9.90269 33.8742 9.67889Z" fill="#6628E8"/>
<path d="M21.2677 21.1533C22.0173 21.1509 22.7669 21.1491 23.5166 21.148C23.8646 21.1474 24.2127 21.1467 24.5607 21.1455C24.8963 21.1444 25.232 21.1438 25.5676 21.1435C25.6959 21.1434 25.8242 21.143 25.9525 21.1424C26.1317 21.1417 26.3108 21.1416 26.49 21.1416C26.5435 21.1413 26.597 21.1409 26.6521 21.1405C26.7251 21.1407 26.7251 21.1407 26.7995 21.1409C26.8419 21.1408 26.8843 21.1407 26.928 21.1406C27.0307 21.1533 27.0307 21.1533 27.1336 21.2562C27.1143 21.3656 27.1143 21.3656 27.0821 21.462C27.0312 21.3347 27.0312 21.3347 26.9792 21.2048C25.0944 21.2048 23.2096 21.2048 21.2677 21.2048C21.2677 21.1878 21.2677 21.1708 21.2677 21.1533Z" fill="#E2D8F9"/>
<path d="M6.96321 21.3077C6.98019 21.3077 6.99717 21.3077 7.01467 21.3077C7.01606 21.3989 7.01706 21.49 7.01788 21.5811C7.01848 21.6318 7.01908 21.6826 7.01969 21.7349C7.01467 21.8737 7.01467 21.8737 6.96321 22.0281C6.95023 22.1303 6.93728 22.2326 6.92623 22.335C6.91176 22.4397 6.91176 22.4397 6.88764 22.5348C6.85131 22.682 6.83086 22.8301 6.80885 22.98C6.782 23.1629 6.7549 23.342 6.70594 23.5203C6.67198 23.5203 6.63802 23.5203 6.60303 23.5203C6.66716 22.7708 6.80686 22.043 6.96321 21.3077Z" fill="#A06DFA"/>
<path d="M33.6684 53.5186C33.7024 53.5355 33.7364 53.5525 33.7713 53.57C33.4462 53.7429 33.1202 53.9143 32.7937 54.0846C32.7459 54.1095 32.6981 54.1345 32.6489 54.1603C32.5088 54.2332 32.3683 54.3053 32.2277 54.3772C32.1838 54.4002 32.1398 54.4231 32.0946 54.4467C32.0536 54.4675 32.0126 54.4883 31.9704 54.5097C31.9343 54.5282 31.8982 54.5468 31.8611 54.5659C31.7646 54.5991 31.7646 54.5991 31.6102 54.5477C31.6913 54.5076 31.6913 54.5076 31.774 54.4667C31.847 54.4304 31.92 54.3942 31.9929 54.3579C32.0305 54.3392 32.0681 54.3206 32.1068 54.3013C32.3457 54.182 32.5798 54.0575 32.8092 53.9205C32.8966 53.8787 32.8966 53.8787 33.051 53.8787C33.051 53.8448 33.051 53.8108 33.051 53.7758C33.1515 53.7314 33.2523 53.6876 33.3533 53.644C33.4094 53.6195 33.4655 53.595 33.5233 53.5698C33.5712 53.5529 33.6191 53.536 33.6684 53.5186Z" fill="#622BDD"/>
<path d="M36.2926 6.74594C36.2292 6.93612 36.1848 6.94359 36.0128 7.03538C35.6071 7.26846 35.2785 7.59485 34.9548 7.92941C34.9038 7.91243 34.8529 7.89545 34.8004 7.87795C35.8449 6.74594 35.8449 6.74594 36.2926 6.74594Z" fill="#793FF3"/>
<path d="M10.8739 19.6612C11.2106 19.961 11.3538 20.4516 11.4881 20.8704C11.5054 20.923 11.5054 20.923 11.523 20.9767C11.5772 21.1541 11.6151 21.2861 11.5428 21.4621C11.5089 21.4451 11.4749 21.4281 11.4399 21.4106C11.4212 21.2908 11.4044 21.1707 11.3885 21.0504C11.2714 20.634 11.1282 20.24 10.9211 19.8595C10.8739 19.7641 10.8739 19.7641 10.8739 19.6612Z" fill="#A474F9"/>
<path d="M14.8358 29.7978C14.8528 29.7978 14.8698 29.7978 14.8873 29.7978C14.8973 30.048 14.8709 30.2326 14.7844 30.4667C14.7146 30.7388 14.6979 31.0197 14.7844 31.29C14.7334 31.3069 14.6825 31.3239 14.63 31.3414C14.5963 30.2768 14.5963 30.2768 14.8358 29.7978Z" fill="#9052FA"/>
<path d="M33.8741 9.67889C33.977 9.83326 33.977 9.83326 33.9645 9.95486C33.9484 10.03 33.9484 10.03 33.932 10.1066C33.8424 10.6121 33.8651 11.1226 33.8741 11.6342C33.8401 11.6342 33.8062 11.6342 33.7712 11.6342C33.7576 9.91187 33.7576 9.91187 33.8741 9.67889Z" fill="#6D2FEC"/>
<path d="M27.3909 56.1942C27.4418 56.2111 27.4927 56.2281 27.5452 56.2456C27.5113 56.2456 27.4773 56.2456 27.4423 56.2456C27.4423 56.2965 27.4423 56.3475 27.4423 56.4C27.2087 56.458 26.9835 56.4609 26.7445 56.4611C26.6862 56.462 26.6862 56.462 26.6268 56.463C26.428 56.4635 26.2727 56.4614 26.1045 56.3485C26.1045 56.3146 26.1045 56.2806 26.1045 56.2456C26.1724 56.2456 26.2403 56.2456 26.3103 56.2456C26.3103 56.2796 26.3103 56.3135 26.3103 56.3485C26.4175 56.3499 26.5247 56.3509 26.6319 56.3517C26.7214 56.3526 26.7214 56.3526 26.8128 56.3535C26.95 56.3494 27.0541 56.3304 27.185 56.2971C27.219 56.314 27.253 56.331 27.288 56.3485C27.288 56.3146 27.288 56.2806 27.288 56.2456C27.3219 56.2286 27.3559 56.2116 27.3909 56.1942Z" fill="#6532DB"/>
<path d="M11.9029 24.5494C12.0027 24.7181 12.0209 24.8507 12.0271 25.0455C12.0291 25.1005 12.0311 25.1556 12.0332 25.2123C12.0356 25.2981 12.0356 25.2981 12.038 25.3856C12.04 25.4435 12.042 25.5015 12.044 25.5612C12.0489 25.7042 12.0533 25.8472 12.0573 25.9901C12.0233 25.9901 11.9894 25.9901 11.9544 25.9901C11.8962 25.5094 11.8978 25.0326 11.9029 24.5494Z" fill="#9B61FA"/>
<path d="M44.1748 10.1387C44.2133 10.1389 44.2519 10.1392 44.2916 10.1394C44.3867 10.14 44.4817 10.1409 44.5767 10.1419C44.5767 10.1589 44.5767 10.1759 44.5767 10.1934C44.5277 10.1965 44.4787 10.1996 44.4282 10.2028C44.3637 10.2071 44.2991 10.2115 44.2326 10.2159C44.1688 10.2201 44.1049 10.2243 44.0391 10.2286C43.8873 10.2421 43.7457 10.2553 43.5991 10.2963C43.5291 10.3975 43.5291 10.3975 43.4962 10.5021C43.4622 10.5021 43.4283 10.5021 43.3933 10.5021C43.3763 10.6889 43.3593 10.8757 43.3418 11.0681C43.3248 11.0681 43.3079 11.0681 43.2904 11.0681C43.2701 10.7237 43.2912 10.5269 43.5219 10.2577C43.7108 10.1003 43.9435 10.1361 44.1748 10.1387Z" fill="#9C72F3"/>
<path d="M24.6123 52.7982C24.7152 52.9011 24.7152 52.9011 24.7635 53.0008C24.8126 53.1103 24.8126 53.1103 24.9017 53.1873C24.9725 53.2613 24.9725 53.2613 24.9725 53.4157C25.0065 53.4157 25.0404 53.4157 25.0754 53.4157C25.2152 53.6079 25.2744 53.8045 25.3327 54.0331C25.2987 54.0331 25.2648 54.0331 25.2298 54.0331C25.2067 53.989 25.1837 53.9449 25.16 53.8995C24.9597 53.5148 24.9597 53.5148 24.7184 53.1552C24.6123 53.004 24.6123 53.004 24.6123 52.7982Z" fill="#6D36E2"/>
<path d="M6.55153 30.8269C6.56851 30.8269 6.58549 30.8269 6.60299 30.8269C6.60299 30.9288 6.60299 31.0307 6.60299 31.1356C6.65393 31.1526 6.70487 31.1696 6.75735 31.1871C6.75629 31.237 6.75523 31.2868 6.75414 31.3382C6.73903 31.4894 6.73903 31.4894 6.80881 31.5473C6.8042 31.6343 6.79616 31.7212 6.7863 31.8078C6.78106 31.8551 6.77582 31.9024 6.77042 31.9511C6.76395 32.0059 6.76395 32.0059 6.75735 32.0618C6.74037 32.0618 6.72339 32.0618 6.7059 32.0618C6.67969 31.9333 6.65405 31.8046 6.62872 31.6759C6.62135 31.6401 6.61399 31.6043 6.60641 31.5674C6.55757 31.3162 6.54462 31.0828 6.55153 30.8269Z" fill="#9D68FB"/>
<path d="M14.6815 24.0349C14.8315 24.1803 14.9711 24.3288 15.106 24.4883C15.3056 24.7195 15.53 24.9175 15.7621 25.1154C15.7281 25.1494 15.6942 25.1833 15.6592 25.2183C15.5344 25.0965 15.4102 24.9742 15.2861 24.8517C15.251 24.8175 15.2159 24.7832 15.1798 24.748C14.9865 24.5565 14.8176 24.3742 14.6815 24.1378C14.6815 24.1038 14.6815 24.0698 14.6815 24.0349Z" fill="#6B39DE"/>
<path d="M20.6503 23.9319C20.6237 24.1431 20.5141 24.2384 20.3641 24.3821C20.3003 24.4438 20.3003 24.4438 20.2352 24.5067C20.2024 24.5377 20.1696 24.5688 20.1357 24.6008C20.1018 24.5668 20.0678 24.5328 20.0328 24.4979C20.0896 24.4324 20.1464 24.367 20.2033 24.3017C20.2349 24.2653 20.2666 24.2289 20.2992 24.1913C20.5309 23.9319 20.5309 23.9319 20.6503 23.9319Z" fill="#6939E0"/>
<path d="M8.09518 18.9407C8.12915 18.9577 8.16311 18.9747 8.19809 18.9922C8.16274 19.0369 8.12739 19.0816 8.09096 19.1277C8.04412 19.1875 7.99729 19.2474 7.95047 19.3074C7.92722 19.3367 7.90397 19.366 7.88002 19.3962C7.73789 19.5788 7.62604 19.7581 7.52918 19.9698C7.49522 19.9698 7.46126 19.9698 7.42627 19.9698C7.49343 19.7343 7.58521 19.5642 7.73178 19.3685C7.76727 19.3205 7.80276 19.2725 7.83932 19.2231C7.92022 19.1211 8.0004 19.0296 8.09518 18.9407Z" fill="#A271FA"/>
<path d="M6.60304 23.5203C6.62002 23.5203 6.637 23.5203 6.65449 23.5203C6.6559 23.6414 6.65691 23.7625 6.65771 23.8837C6.65831 23.9511 6.6589 24.0186 6.65952 24.0881C6.65477 24.2807 6.63286 24.4622 6.60304 24.6523C6.60121 24.738 6.60044 24.8238 6.60304 24.9095C6.56908 24.9265 6.53512 24.9435 6.50013 24.961C6.48657 24.4654 6.51984 24.0091 6.60304 23.5203Z" fill="#9258FA"/>
<path d="M7.37489 20.0214C7.43218 20.1104 7.43218 20.1104 7.4778 20.2272C7.44464 20.3359 7.44464 20.3359 7.38454 20.4491C7.28304 20.6555 7.23996 20.8221 7.22053 21.0505C7.16959 21.0674 7.11865 21.0844 7.06616 21.1019C7.09581 20.8371 7.15608 20.6105 7.24947 20.359C7.27288 20.2954 7.2963 20.2318 7.32042 20.1663C7.3384 20.1185 7.35637 20.0706 7.37489 20.0214Z" fill="#A16DFA"/>
<path d="M42.1071 19.5583C42.2764 19.5552 42.4458 19.5534 42.6152 19.5518C42.6624 19.551 42.7096 19.5501 42.7583 19.5492C43.0851 19.5469 43.3845 19.5846 43.7022 19.6612C43.5296 19.7762 43.5011 19.773 43.3066 19.7448C43.265 19.7391 43.2234 19.7334 43.1806 19.7275C43.1489 19.7226 43.1173 19.7177 43.0847 19.7126C43.0847 19.6787 43.0847 19.6447 43.0847 19.6097C42.7621 19.6097 42.4395 19.6097 42.1071 19.6097C42.1071 19.5928 42.1071 19.5758 42.1071 19.5583Z" fill="#966DEC"/>
<path d="M42.6216 13.4351C42.6385 13.4861 42.6555 13.537 42.673 13.5895C42.4941 13.8762 42.2515 14.0605 41.9526 14.2069C41.9187 14.173 41.8847 14.139 41.8497 14.104C41.8796 14.0859 41.9094 14.0678 41.9402 14.0492C42.2195 13.8726 42.4184 13.6956 42.6216 13.4351Z" fill="#7540EC"/>
<path d="M43.1875 11.7371C43.2215 11.754 43.2554 11.771 43.2904 11.7885C43.2674 12.0307 43.24 12.2699 43.1939 12.5089C43.1866 12.5471 43.1793 12.5853 43.1718 12.6247C43.16 12.6544 43.1482 12.6841 43.1361 12.7147C43.0851 12.7317 43.0342 12.7487 42.9817 12.7662C43.0496 12.4266 43.1175 12.087 43.1875 11.7371Z" fill="#8352EC"/>
<path d="M11.7486 22.697C11.7656 22.697 11.7826 22.697 11.8001 22.697C11.8648 23.0439 11.9166 23.3728 11.903 23.7261C11.869 23.7261 11.8351 23.7261 11.8001 23.7261C11.7609 23.504 11.7404 23.3276 11.8001 23.1086C11.7661 23.1086 11.7322 23.1086 11.6972 23.1086C11.695 22.9886 11.6951 22.8685 11.6972 22.7484C11.7141 22.7315 11.7311 22.7145 11.7486 22.697Z" fill="#9C69FA"/>
<path d="M48.5388 15.1846C48.6752 15.2507 48.8112 15.3172 48.9472 15.384C48.9861 15.4028 49.0249 15.4215 49.0649 15.4409C49.1204 15.4682 49.1204 15.4682 49.177 15.4961C49.2112 15.5129 49.2454 15.5296 49.2807 15.5468C49.3621 15.5962 49.3621 15.5962 49.4136 15.6992C49.1957 15.6672 49.0265 15.5908 48.8315 15.4901C48.7765 15.4619 48.7215 15.4337 48.6648 15.4047C48.6233 15.383 48.5817 15.3613 48.5388 15.339C48.5388 15.288 48.5388 15.2371 48.5388 15.1846Z" fill="#6B33E9"/>
<path d="M23.4288 23.9319C23.6493 24.0021 23.7598 24.0969 23.908 24.2727C23.9439 24.3148 23.9798 24.3568 24.0167 24.4002C24.0435 24.4324 24.0702 24.4646 24.0977 24.4979C24.0468 24.5743 24.0468 24.5743 23.9948 24.6522C23.9669 24.6132 23.939 24.5741 23.9102 24.5338C23.8734 24.4827 23.8366 24.4316 23.7987 24.3789C23.7623 24.3281 23.7258 24.2774 23.6883 24.2251C23.6065 24.1171 23.5279 24.0234 23.4288 23.9319Z" fill="#6B39E0"/>
<path d="M6.39722 29.026C6.43118 29.026 6.46514 29.026 6.50013 29.026C6.56347 29.2155 6.54684 29.3818 6.52907 29.5791C6.52383 29.6393 6.51859 29.6996 6.5132 29.7616C6.50888 29.8075 6.50457 29.8534 6.50013 29.9007C6.48315 29.9007 6.46617 29.9007 6.44868 29.9007C6.40586 29.6064 6.39103 29.3233 6.39722 29.026Z" fill="#975BF9"/>
<path d="M15.9164 33.3997C16.1293 33.5736 16.3185 33.7427 16.4825 33.9657C16.3281 33.9657 16.3281 33.9657 16.2117 33.8644C16.1705 33.8214 16.1293 33.7784 16.0869 33.7341C16.0453 33.6911 16.0037 33.6482 15.9609 33.6039C15.9292 33.5704 15.8976 33.537 15.865 33.5026C15.882 33.4686 15.899 33.4346 15.9164 33.3997Z" fill="#8949F6"/>
<path d="M16.6882 24.2407C16.811 24.2898 16.8806 24.3229 16.9535 24.4353C17.0048 24.5701 16.9985 24.652 16.9777 24.7938C16.972 24.835 16.9663 24.8761 16.9604 24.9185C16.9555 24.9495 16.9506 24.9805 16.9455 25.0125C16.836 24.8483 16.8253 24.739 16.8058 24.5464C16.7887 24.4296 16.7507 24.3407 16.6882 24.2407Z" fill="#7A4BE0"/>
<path d="M38.042 6.28282C37.9041 6.42072 37.7991 6.4202 37.6079 6.45005C37.5485 6.45987 37.4892 6.46968 37.428 6.4798C37.2702 6.48864 37.2702 6.48864 37.1158 6.38573C37.4322 6.30197 37.7148 6.27243 38.042 6.28282Z" fill="#8B59F6"/>
<path d="M33.6684 53.5186C33.7024 53.5355 33.7364 53.5525 33.7713 53.57C33.3638 53.7738 33.3638 53.7738 32.9481 53.9816C32.9311 53.9477 32.9141 53.9137 32.8966 53.8787C32.9475 53.8787 32.9985 53.8787 33.051 53.8787C33.051 53.8448 33.051 53.8108 33.051 53.7758C33.1515 53.7314 33.2523 53.6876 33.3533 53.644C33.4094 53.6195 33.4655 53.595 33.5233 53.5698C33.5712 53.5529 33.6191 53.536 33.6684 53.5186Z" fill="#6933E1"/>
<path d="M47.5611 13.6924C47.5781 13.6924 47.5951 13.6924 47.6126 13.6924C47.6296 13.9301 47.6466 14.1678 47.664 14.4127C47.681 14.4127 47.698 14.4127 47.7155 14.4127C47.7155 14.5316 47.7155 14.6504 47.7155 14.7729C47.6815 14.7729 47.6476 14.7729 47.6126 14.7729C47.5522 14.6521 47.5552 14.5806 47.5561 14.4461C47.5563 14.4023 47.5564 14.3585 47.5566 14.3134C47.557 14.2677 47.5575 14.2219 47.5579 14.1747C47.5582 14.1286 47.5584 14.0824 47.5586 14.0348C47.5592 13.9207 47.5601 13.8065 47.5611 13.6924Z" fill="#E8DDF9"/>
<path d="M29.4491 4.73914C29.5 4.75612 29.5509 4.7731 29.6034 4.79059C29.5199 4.87852 29.434 4.96422 29.3461 5.04787C29.3122 5.04787 29.2782 5.04787 29.2432 5.04787C29.2093 5.11579 29.1753 5.18371 29.1403 5.25369C29.0894 5.25369 29.0384 5.25369 28.986 5.25369C29.0341 5.1968 29.0824 5.14 29.1307 5.08324C29.1575 5.0516 29.1844 5.01996 29.2121 4.98737C29.2881 4.901 29.3667 4.81947 29.4491 4.73914Z" fill="#783DF5"/>
<path d="M32.5364 4.94501C32.7167 4.97396 32.7912 5.03 32.9062 5.17012C32.9324 5.2013 32.9586 5.23247 32.9856 5.26459C33.0509 5.35665 33.0509 5.35665 33.1024 5.51101C33.0514 5.53648 33.0514 5.53648 32.9995 5.56247C32.8451 5.35665 32.6907 5.15083 32.5364 4.94501Z" fill="#7D42F6"/>
<path d="M25.6928 55.6282C25.7268 55.6282 25.7607 55.6282 25.7957 55.6282C25.8 55.6547 25.8042 55.6813 25.8086 55.7086C25.8637 55.8878 25.957 56.0333 26.053 56.1942C25.9597 56.1846 25.9597 56.1846 25.8472 56.1428C25.7122 55.9692 25.6741 55.8466 25.6928 55.6282Z" fill="#6833DB"/>
<path d="M15.7105 29.026C15.7105 29.0599 15.7105 29.0939 15.7105 29.1289C15.6259 29.2028 15.6259 29.2028 15.5144 29.2832C15.4597 29.323 15.4597 29.323 15.404 29.3636C15.3184 29.4239 15.2316 29.4825 15.1445 29.5405C15.1445 29.4896 15.1445 29.4386 15.1445 29.3862C15.2422 29.2923 15.2422 29.2923 15.3696 29.1964C15.4114 29.1644 15.4532 29.1323 15.4963 29.0993C15.6076 29.026 15.6076 29.026 15.7105 29.026Z" fill="#9763FA"/>
<path d="M14.0125 19.867C14.0295 19.867 14.0465 19.867 14.064 19.867C14.0695 19.9581 14.0735 20.0492 14.0768 20.1404C14.0792 20.1911 14.0816 20.2418 14.0841 20.2941C14.064 20.433 14.064 20.433 13.9603 20.5285C13.9266 20.5479 13.8929 20.5674 13.8582 20.5874C13.8846 20.3317 13.9216 20.1093 14.0125 19.867Z" fill="#8559EA"/>
<path d="M21.0619 7.98093C21.0788 8.03187 21.0958 8.08281 21.1133 8.13529C20.9944 8.25415 20.8756 8.37301 20.7531 8.49548C20.7022 8.4785 20.6512 8.46152 20.5988 8.44402C20.7516 8.2912 20.9044 8.13838 21.0619 7.98093Z" fill="#7841F0"/>
<path d="M41.1809 14.3613C41.1809 14.3953 41.1809 14.4293 41.1809 14.4642C40.9413 14.5074 40.7502 14.5165 40.512 14.4642C40.512 14.4473 40.512 14.4303 40.512 14.4128C40.7376 14.3767 40.9523 14.3558 41.1809 14.3613Z" fill="#723FE8"/>
<path d="M33.8743 9.67889C34.0061 9.87665 33.973 9.9481 33.9322 10.1774C33.9217 10.2381 33.9112 10.2987 33.9004 10.3613C33.8918 10.4078 33.8832 10.4543 33.8743 10.5022C33.8403 10.5022 33.8064 10.5022 33.7714 10.5022C33.7786 10.3842 33.7862 10.2663 33.7939 10.1484C33.7981 10.0828 33.8022 10.0171 33.8065 9.94943C33.8228 9.7818 33.8228 9.7818 33.8743 9.67889Z" fill="#7B43F3"/>
<path d="M25.4355 54.3933C25.5567 54.5246 25.5891 54.5842 25.5996 54.7664C25.5964 54.8131 25.5932 54.8598 25.5899 54.9079C25.6239 54.9079 25.6578 54.9079 25.6928 54.9079C25.6758 54.9928 25.6589 55.0777 25.6414 55.1651C25.5249 55.0487 25.5136 54.9948 25.4806 54.8371C25.4719 54.7974 25.4633 54.7578 25.4544 54.7169C25.4355 54.5991 25.4355 54.5991 25.4355 54.3933Z" fill="#642AE1"/>
<path d="M14.8359 29.7978C14.8529 29.7978 14.8698 29.7978 14.8873 29.7978C14.8965 30.0318 14.8872 30.2032 14.7844 30.4152C14.7505 30.3982 14.7165 30.3813 14.6815 30.3638C14.6974 30.2887 14.7135 30.2137 14.7298 30.1386C14.7387 30.0969 14.7477 30.0551 14.7569 30.012C14.7844 29.9007 14.7844 29.9007 14.8359 29.7978Z" fill="#9B66FB"/>
<path d="M37.1673 29.7463C37.2012 29.7463 37.2352 29.7463 37.2702 29.7463C37.2556 29.8289 37.2405 29.9114 37.2252 29.9939C37.2168 30.0399 37.2084 30.0858 37.1998 30.1332C37.1673 30.2608 37.1673 30.2608 37.0644 30.4152C37.0034 30.2324 37.0286 30.1734 37.0869 29.9939C37.1017 29.9475 37.1165 29.9012 37.1317 29.8534C37.1434 29.8181 37.1552 29.7827 37.1673 29.7463Z" fill="#6943D1"/>
<path d="M11.5941 21.5136C11.6111 21.5136 11.6281 21.5136 11.6456 21.5136C11.663 21.5939 11.6801 21.6743 11.697 21.7548C11.7066 21.7995 11.7161 21.8443 11.726 21.8904C11.748 22.0249 11.7524 22.1495 11.7485 22.2854C11.6975 22.2684 11.6466 22.2514 11.5941 22.234C11.5941 21.9962 11.5941 21.7585 11.5941 21.5136Z" fill="#A578F9"/>
<path d="M12.2631 28.2542C12.2801 28.2542 12.2971 28.2542 12.3146 28.2542C12.3485 28.5089 12.3825 28.7636 12.4175 29.026C12.3665 29.009 12.3156 28.992 12.2631 28.9745C12.2642 28.9353 12.2652 28.896 12.2663 28.8555C12.2698 28.712 12.2698 28.712 12.2117 28.5629C12.2259 28.4595 12.2427 28.3565 12.2631 28.2542Z" fill="#9156F9"/>
<path d="M38.5566 12.4575C38.6075 12.5085 38.6585 12.5594 38.711 12.6119C38.4732 12.6289 38.2355 12.6458 37.9906 12.6633C37.9906 12.6294 37.9906 12.5954 37.9906 12.5604C38.1844 12.4883 38.349 12.4295 38.5566 12.4575Z" fill="#7D47ED"/>
<path d="M28.6257 5.81976C28.6597 5.85372 28.6937 5.88768 28.7286 5.92267C28.7129 6.07408 28.694 6.19772 28.6257 6.33431C28.5918 6.33431 28.5578 6.33431 28.5228 6.33431C28.5568 6.16451 28.5907 5.99471 28.6257 5.81976Z" fill="#814AF5"/>
<path d="M13.3951 32.4734C13.5333 32.6116 13.5525 32.75 13.6009 32.9365C13.5669 32.9704 13.533 33.0044 13.498 33.0394C13.4707 32.9645 13.444 32.8894 13.4176 32.8143C13.4027 32.7725 13.3877 32.7307 13.3724 32.6877C13.3436 32.5763 13.3436 32.5763 13.3951 32.4734Z" fill="#945DFA"/>
<path d="M30.0665 4.43051C30.0665 4.46447 30.0665 4.49843 30.0665 4.53342C29.9218 4.64598 29.9218 4.64598 29.7578 4.73924C29.7068 4.72226 29.6559 4.70528 29.6034 4.68779C29.9188 4.43051 29.9188 4.43051 30.0665 4.43051Z" fill="#844CF5"/>
<path d="M14.6815 31.3929C14.7325 31.4098 14.7834 31.4268 14.8359 31.4443C14.8529 31.5632 14.8698 31.682 14.8873 31.8045C14.8364 31.8045 14.7855 31.8045 14.733 31.8045C14.716 31.6687 14.699 31.5328 14.6815 31.3929Z" fill="#9559FA"/>
<path d="M12.4689 29.4377C12.4859 29.4377 12.5029 29.4377 12.5204 29.4377C12.5543 29.6414 12.5883 29.8452 12.6233 30.0551C12.5893 30.0551 12.5554 30.0551 12.5204 30.0551C12.4447 29.8281 12.3985 29.6701 12.4689 29.4377Z" fill="#9866F9"/>
<path d="M22.9658 23.6232C23.3131 23.7647 23.3131 23.7647 23.4289 23.8805C23.0816 23.8355 23.0816 23.8355 22.9658 23.7776C22.9658 23.7267 22.9658 23.6757 22.9658 23.6232Z" fill="#6C3ADF"/>
<path d="M18.2833 19.5583C18.3173 19.5753 18.3513 19.5922 18.3862 19.6097C18.3176 19.747 18.249 19.8842 18.1804 20.0214C18.1465 20.0214 18.1125 20.0214 18.0775 20.0214C18.132 19.8463 18.1809 19.712 18.2833 19.5583Z" fill="#7647EA"/>
<path d="M37.476 12.8176C37.51 12.8516 37.544 12.8855 37.5789 12.9205C37.3528 13.1265 37.3528 13.1265 37.2702 13.1778C37.2193 13.1608 37.1683 13.1438 37.1158 13.1263C37.1498 13.1263 37.1838 13.1263 37.2188 13.1263C37.2326 13.0945 37.2463 13.0627 37.2606 13.0298C37.3217 12.9205 37.3217 12.9205 37.476 12.8176Z" fill="#703CE8"/>
<path d="M26.1045 56.2456C26.1724 56.2456 26.2403 56.2456 26.3103 56.2456C26.3103 56.2796 26.3103 56.3136 26.3103 56.3485C26.3782 56.3485 26.4462 56.3485 26.5161 56.3485C26.5161 56.3825 26.5161 56.4165 26.5161 56.4515C26.2203 56.4064 26.2203 56.4064 26.1045 56.3485C26.1045 56.3146 26.1045 56.2806 26.1045 56.2456Z" fill="#7246DC"/>
<path d="M6.50012 30.2094C6.55106 30.2264 6.602 30.2433 6.65449 30.2608C6.65449 30.3797 6.65449 30.4986 6.65449 30.621C6.60355 30.604 6.55261 30.5871 6.50012 30.5696C6.50012 30.4507 6.50012 30.3318 6.50012 30.2094Z" fill="#965CFB"/>
<path d="M27.6481 9.42166C27.7769 9.57285 27.8266 9.68815 27.854 9.88476C27.82 9.88476 27.786 9.88476 27.751 9.88476C27.6962 9.76622 27.6448 9.646 27.5967 9.52457C27.6137 9.49061 27.6306 9.45665 27.6481 9.42166Z" fill="#8252EB"/>
<path d="M25.6929 34.2229C25.8966 34.3248 25.8966 34.3248 26.1045 34.4288C26.0875 34.4627 26.0706 34.4967 26.0531 34.5317C26.0191 34.5317 25.9851 34.5317 25.9501 34.5317C25.9501 34.4977 25.9501 34.4637 25.9501 34.4288C25.8652 34.4118 25.7803 34.3948 25.6929 34.3773C25.6929 34.3264 25.6929 34.2754 25.6929 34.2229Z" fill="#884CF9"/>
<path d="M47.767 25.9387C47.767 26.093 47.767 26.093 47.7027 26.1766C47.6037 26.2544 47.5298 26.2776 47.4069 26.2988C47.5269 26.1788 47.647 26.0587 47.767 25.9387Z" fill="#602ED6"/>
<path d="M37.5276 25.3727C37.5446 25.4406 37.5616 25.5085 37.5791 25.5785C37.4942 25.6464 37.4093 25.7143 37.3218 25.7843C37.3218 25.5832 37.3993 25.5211 37.5276 25.3727Z" fill="#6A3CDA"/>
<path d="M37.8877 21.6165C37.9217 21.6674 37.9556 21.7183 37.9906 21.7708C37.9057 21.8897 37.8208 22.0085 37.7333 22.131C37.7164 22.097 37.6994 22.0631 37.6819 22.0281C37.7219 21.928 37.7219 21.928 37.7816 21.8158C37.8109 21.7599 37.8109 21.7599 37.8409 21.7029C37.8563 21.6744 37.8718 21.6458 37.8877 21.6165Z" fill="#E8DEFA"/>
<path d="M39.7401 15.0301C39.791 15.0471 39.8419 15.0641 39.8944 15.0816C39.7416 15.2089 39.7416 15.2089 39.5857 15.3389C39.5517 15.3219 39.5178 15.3049 39.4828 15.2874C39.5677 15.2025 39.6526 15.1176 39.7401 15.0301Z" fill="#7443EA"/>
<path d="M34.2858 8.64975C34.339 8.79322 34.3396 8.84876 34.2891 8.99707C34.271 9.03528 34.253 9.07348 34.2344 9.11284C34.2004 9.09586 34.1665 9.07888 34.1315 9.06139C34.2279 8.76552 34.2279 8.76552 34.2858 8.64975Z" fill="#7E49F2"/>
</g>
<defs>
<clipPath id="clip0_4076_40573">
<rect width="48" height="52.7213" fill="white" transform="translate(6 4)"/>
</clipPath>
</defs>
</svg>
