<svg width="78" height="78" viewBox="0 0 78 78" fill="none" xmlns="http://www.w3.org/2000/svg">
<path d="M21.4261 24.0221C20.7083 24.0221 19.9666 24.4049 19.189 25.1825L10.1687 34.2626H32.6954L23.6752 25.1825C23.1488 24.6442 22.3233 24.0101 21.4261 24.0221ZM10.1687 9.05615V28.9749L16.569 22.5387C18.4233 20.6724 20.2417 20.2776 21.4261 20.2776C23.1488 20.2776 24.8356 21.0552 26.3071 22.5387L26.7377 22.9693L30.889 18.7942C32.7433 16.9279 34.5617 16.5331 35.758 16.5331C37.4807 16.5331 39.1675 17.3227 40.627 18.7942L41.0577 19.2249L45.2089 15.0497C47.0632 13.1835 48.8816 12.7887 50.0779 12.7887C51.8006 12.7887 53.4874 13.5663 54.9469 15.0497L68.7285 28.927V9.05615H10.1687ZM50.7239 34.2626C46.0822 29.585 37.9951 21.4381 37.9951 21.4381C37.4687 20.8997 36.6552 20.2657 35.746 20.2657C35.0282 20.2657 34.2865 20.6604 33.5089 21.4381L29.3577 25.6132L37.9472 34.2626H50.7239ZM10.1687 42.0506H68.7166V37.9951H10.1687V42.0506ZM50.066 16.5331C49.3482 16.5331 48.5945 16.9279 47.8288 17.7055L43.6776 21.8807L55.9758 34.2626H68.7166V34.2147L52.3031 17.6936C51.7767 17.1672 50.9632 16.5331 50.066 16.5331ZM11.0779 51.4657C11.0779 52.4466 11.5325 53.0328 12.3819 53.0328C13.327 53.0328 13.9371 52.5543 13.9371 51.4178V48.75C13.9371 48.3193 13.8295 48.2476 13.1834 48.1877V47.9485H14.942V48.1877C14.3798 48.2595 14.2841 48.3074 14.2841 48.75V51.5614C14.2841 52.8773 13.3988 53.4994 12.2862 53.4994C10.9822 53.4994 10.1687 52.8773 10.1687 51.5374V48.75C10.1687 48.3193 10.073 48.2715 9.51074 48.1997V47.9604H11.7359V48.1997C11.1736 48.2715 11.0779 48.3193 11.0779 48.75V51.4657ZM19.811 48.75C19.811 48.3193 19.6914 48.2476 19.0454 48.1877V47.9485H20.8279V48.1877C20.2656 48.2595 20.1699 48.3074 20.1699 48.75V53.4396H19.8948L16.4374 49.0252V52.6261C16.4374 53.0568 16.5571 53.1285 17.2031 53.1884V53.4276H15.4206V53.1884C15.9828 53.1166 16.0785 53.0687 16.0785 52.6261V48.6782C15.8273 48.3313 15.7077 48.2236 15.4086 48.1997V47.9604H16.7844L19.811 51.8724V48.75ZM22.8976 52.6261C22.8976 53.0568 22.9933 53.1046 23.5555 53.1764V53.4157H21.3304V53.1764C21.8926 53.1046 21.9883 53.0568 21.9883 52.6261V48.7381C21.9883 48.3074 21.8926 48.2595 21.3304 48.1877V47.9485H23.5555V48.1877C22.9933 48.2595 22.8976 48.3074 22.8976 48.7381V52.6261ZM28.3528 48.8338C28.4006 48.7141 28.4365 48.6184 28.4365 48.5227C28.4365 48.2954 28.269 48.1997 27.7666 48.1758V47.9365H29.3218V48.1758C29.1064 48.2117 28.9509 48.2595 28.8672 48.4629L26.8454 53.4755H26.6301L24.4169 48.4749C24.3212 48.2715 24.1776 48.2236 23.9623 48.1877V47.9485H26.1396V48.1877C25.6252 48.2117 25.4696 48.2835 25.4696 48.5347C25.4696 48.6184 25.4936 48.7141 25.5414 48.8457L27.0368 52.2074L28.3528 48.8338ZM29.7166 53.1764C30.2788 53.1046 30.3745 53.0568 30.3745 52.6261V48.7381C30.3745 48.3074 30.2788 48.2595 29.7166 48.1877V47.9485H33.8678L33.9037 49.2884H33.7123C33.3414 48.4509 33.1022 48.2236 32.5279 48.2236H31.2718V50.4368H32.3844C32.7313 50.4368 32.8509 50.2095 32.9227 49.731H33.162V51.4417H32.9227C32.8509 50.9632 32.7193 50.7479 32.3844 50.7479H31.2598V52.6022C31.2598 53.0209 31.4752 53.1285 31.9896 53.1285H32.5997C33.1859 53.1285 33.4371 52.8055 33.9396 51.9442H34.1669L33.9276 53.4157H29.7046V53.1764H29.7166ZM36.1288 48.2356V50.7598H36.5834C37.4568 50.7598 37.8635 50.2813 37.8635 49.4558C37.8635 48.7739 37.4568 48.2476 36.5715 48.2476H36.1288V48.2356ZM36.1288 52.6261C36.1288 53.0568 36.2245 53.1046 36.7868 53.1764V53.4157H34.5617V53.1764C35.1239 53.1046 35.2196 53.0568 35.2196 52.6261V48.7381C35.2196 48.3074 35.1239 48.2595 34.5617 48.1877V47.9485H36.8107C38.1267 47.9485 38.8206 48.5586 38.8206 49.4439C38.8206 50.3292 38.0788 50.7718 37.4926 50.9034L38.7249 52.5184C39.0837 52.9969 39.311 53.1525 39.7298 53.1764V53.4157H38.4258C38.1985 53.2601 38.019 53.0209 37.7798 52.6979L36.5954 51.0589H36.1169L36.1288 52.6261ZM40.1485 52.985L40.0887 51.6571H40.3638C40.5433 52.6261 41.0337 53.2123 41.8233 53.2123C42.5052 53.2123 42.9239 52.8295 42.9239 52.2552C42.9239 51.6451 42.577 51.3939 41.596 51.0111C40.7466 50.6761 40.1485 50.3052 40.1485 49.396C40.1485 48.5227 40.8064 47.8767 41.8592 47.8767C42.4933 47.8767 43.0555 48.0442 43.4503 48.3313V49.4917H43.1871C43.0675 48.6304 42.6009 48.1638 41.8592 48.1638C41.273 48.1638 40.9261 48.5347 40.9261 49.0491C40.9261 49.6233 41.2012 49.8506 42.0626 50.1856C43.1153 50.6043 43.7015 50.9991 43.7015 51.9203C43.7015 52.9491 42.8402 53.5114 41.8233 53.5114C41.0936 53.4874 40.4834 53.2721 40.1485 52.985ZM45.6276 52.6261C45.6276 53.0568 45.7233 53.1046 46.2856 53.1764V53.4157H44.0604V53.1764C44.6227 53.1046 44.7184 53.0568 44.7184 52.6261V48.7381C44.7184 48.3074 44.6227 48.2595 44.0604 48.1877V47.9485H46.2856V48.1877C45.7233 48.2595 45.6276 48.3074 45.6276 48.7381V52.6261ZM51.5255 47.9485L51.6451 49.6473H51.4417C50.9752 48.5227 50.8077 48.1997 50.1617 48.1997H49.6592V52.6381C49.6592 53.0687 49.8626 53.0927 50.389 53.1644V53.4037H48.0083V53.1644C48.5466 53.0927 48.75 53.0687 48.75 52.6381V48.2117H48.2475C47.6015 48.2117 47.4341 48.5347 46.9675 49.6592H46.7521L46.8718 47.9604H51.5255V47.9485ZM54.8393 52.65C54.8393 53.0807 55.0426 53.1046 55.569 53.1764V53.4157H53.2362V53.1764C53.7626 53.1046 53.9779 53.0807 53.9779 52.65V51.2623L52.3988 48.4749C52.2791 48.2715 52.1595 48.2236 51.9442 48.1877V47.9485H54.0856V48.1877C53.5831 48.1997 53.4276 48.2715 53.4276 48.4749C53.4276 48.6065 53.4874 48.7141 53.5712 48.8696L54.7077 50.8555L55.8083 48.8816C55.8681 48.762 55.9518 48.6065 55.9518 48.4749C55.9518 48.2715 55.7963 48.2117 55.2939 48.1997V47.9604H56.8371V48.1997C56.6218 48.2356 56.4902 48.2954 56.3825 48.4868L54.8273 51.2623V52.65H54.8393ZM63.3451 50.7C63.3451 49.4439 62.8666 48.1638 61.8018 48.1638C60.8089 48.1638 60.3184 49.3242 60.3184 50.6641C60.3184 51.9203 60.7969 53.2003 61.8736 53.2003C62.8426 53.2003 63.3451 52.0279 63.3451 50.7ZM59.3255 50.7838C59.3255 49.0012 60.438 47.8647 61.8617 47.8647C63.4528 47.8647 64.338 49.1448 64.338 50.5684C64.338 52.3509 63.2255 53.4874 61.8018 53.4874C60.1988 53.4874 59.3255 52.2074 59.3255 50.7838ZM66.2163 52.5423C66.2163 52.9969 66.4196 53.1046 67.1614 53.1525V53.4037H64.6491V53.1644C65.2114 53.0927 65.3071 53.0448 65.3071 52.6141V48.7261C65.3071 48.2954 65.2114 48.2476 64.6491 48.1758V47.9485H68.6687L68.7046 49.3242H68.5252C68.2021 48.4749 67.915 48.2236 67.3408 48.2236H66.2282V50.5086H67.2092C67.5561 50.5086 67.6638 50.2574 67.7356 49.7789H67.9629V51.5374H67.7356C67.6638 51.0589 67.5442 50.8077 67.2092 50.8077H66.2282V52.5423H66.2163ZM13.3868 56.6098V66.8982C13.3868 67.9868 13.8653 68.2022 14.9301 68.2022H15.3488C17.8012 68.2022 19.5837 66.2163 19.5837 62.4957C19.5837 59.3494 18.208 56.6098 14.6669 56.6098H13.3868ZM9.66626 68.8721V68.3098C10.9942 68.1423 11.2095 68.0347 11.2095 67.0058V57.8062C11.2095 56.7773 10.9942 56.6696 9.66626 56.5022V55.9519H15.0736C19.823 55.9519 21.9166 58.7991 21.9166 62.1009C21.9166 66.4077 19.0454 68.8721 15.3607 68.8721H9.66626ZM22.2874 68.3098C23.6153 68.1423 23.8307 68.0347 23.8307 67.0058V57.8062C23.8307 56.7773 23.6153 56.6696 22.2874 56.5022V55.9519H32.1092L32.2049 59.1341H31.7623C30.9009 57.1482 30.3267 56.6098 28.9629 56.6098H25.996V61.8497H28.6518C29.4653 61.8497 29.7525 61.3114 29.9439 60.1749H30.5181V64.2065H29.9439C29.7644 63.07 29.4653 62.5555 28.6518 62.5555H25.996V66.958C25.996 67.9509 26.5104 68.2141 27.7307 68.2141H29.1663C30.566 68.2141 31.1522 67.4365 32.3245 65.4028H32.8629L32.2887 68.8841H22.2755V68.3098H22.2874ZM37.4687 56.6338V62.5914H38.5574C40.615 62.5914 41.5721 61.443 41.5721 59.493C41.5721 57.8779 40.6031 56.6218 38.4975 56.6218H37.4687V56.6338ZM37.4687 67.0058C37.4687 68.0347 37.6841 68.1423 39.012 68.3098V68.8601H33.7482V68.3098C35.0761 68.1423 35.2914 68.0347 35.2914 67.0058V57.8062C35.2914 56.7773 35.0761 56.6696 33.7482 56.5022V55.9519H39.0837C42.1942 55.9519 43.8331 57.4114 43.8331 59.5049C43.8331 61.5865 42.0626 62.6512 40.6868 62.9503L43.6178 66.7785C44.4672 67.915 44.6825 68.2859 45.6755 68.3218V68.8721H42.912C42.3736 68.5012 41.9429 67.927 41.3807 67.1614L38.5813 63.2733H37.4568V67.0058H37.4687ZM50.2813 62.5555V66.97C50.2813 67.9629 50.7598 68.2022 51.9561 68.2022H52.1595C54.0377 68.2022 54.923 67.1733 54.923 65.3908C54.923 63.7519 54.0018 62.5555 51.8365 62.5555H50.2813ZM50.2813 56.6098V61.8497H51.4178C53.3678 61.8497 54.289 60.9525 54.289 59.1819C54.289 57.543 53.2721 56.6098 51.4178 56.6098H50.2813ZM46.5607 68.8721V68.3098C47.8887 68.1423 48.104 68.0347 48.104 67.0058V57.8062C48.104 56.7773 47.8767 56.6696 46.5607 56.5022V55.9519H52.0638C54.8752 55.9519 56.4663 57.0405 56.4663 59.158C56.4663 61.0123 54.7196 61.9693 52.985 62.1727C55.4135 62.2684 57.1242 63.4408 57.1242 65.3908C57.1242 67.5203 55.4733 68.8721 52.4347 68.8721H46.5607ZM63.9552 67.0657C63.9552 68.0945 64.4337 68.1543 65.6899 68.3218V68.8721H60.1509V68.3098C61.4071 68.1423 61.8976 68.0945 61.8976 67.0537V63.7638L58.189 57.1841C57.9138 56.7055 57.6147 56.5979 57.1003 56.5022V55.9519H62.1847V56.5022C60.9883 56.5381 60.6414 56.7055 60.6414 57.1841C60.6414 57.4951 60.785 57.7583 60.9883 58.1052L63.6801 62.8187L66.2761 58.1411C66.4196 57.842 66.611 57.4831 66.611 57.1721C66.611 56.6936 66.2402 56.55 65.0678 56.5141V55.9638H68.7285V56.5141C68.2261 56.6098 67.9031 56.7534 67.6399 57.196L63.9552 63.7638V67.0657Z" fill="#101D49"/>
</svg>
