<svg width="64" height="64" viewBox="0 0 64 64" fill="none" xmlns="http://www.w3.org/2000/svg">
<rect width="64" height="64" rx="32" fill="white"/>
<g clip-path="url(#clip0_4386_82457)">
<path d="M14.5451 22.1973C15.389 22.8518 15.6987 24.0346 15.8376 25.0465C15.8595 25.2222 15.8785 25.3981 15.8953 25.5745C15.9063 25.6847 15.9194 25.7949 15.9359 25.9044C15.9677 26.139 15.9828 26.3739 15.9988 26.6099C16.0027 26.6647 16.0066 26.7194 16.0106 26.7758C16.0322 27.0809 16.0525 27.386 16.0712 27.6913C16.1848 29.5405 16.3762 31.3632 16.9167 33.1434C16.9316 33.1931 16.9465 33.2428 16.9618 33.294C17.0597 33.6046 17.1864 33.8957 17.3277 34.1888C17.3801 34.2989 17.4306 34.4098 17.4811 34.5208C17.8619 35.3477 18.3089 36.1252 18.8779 36.8377C18.9082 36.8767 18.9385 36.9157 18.9697 36.9559C19.1575 37.1953 19.3557 37.4229 19.561 37.6475C19.6338 37.7284 19.7027 37.81 19.7701 37.8953C19.8856 38.0286 20.0079 38.1389 20.1419 38.2529C20.2583 38.3533 20.3703 38.4577 20.4828 38.5623C20.7563 38.811 21.0421 39.0379 21.3408 39.255C21.3785 39.2825 21.3785 39.2825 21.4169 39.3106C22.1131 39.812 22.8915 40.2336 23.7125 40.4865C23.7778 40.5091 23.8432 40.5317 23.9086 40.5543C24.119 40.6246 24.3306 40.6755 24.5477 40.7202C24.5856 40.728 24.6236 40.7359 24.6627 40.7439C24.954 40.8022 25.2395 40.842 25.5368 40.8513C25.5907 40.8537 25.6446 40.856 25.7002 40.8585C26.0604 40.8671 26.4059 40.8407 26.7626 40.7886C26.8024 40.7829 26.8423 40.7771 26.8834 40.7712C27.099 40.7451 27.099 40.7451 27.27 40.6233C27.3016 40.5138 27.3016 40.5138 27.27 40.3952C27.1741 40.3158 27.0892 40.2593 26.982 40.1986C26.9341 40.17 26.9341 40.17 26.8852 40.1409C26.812 40.0974 26.7386 40.0543 26.6649 40.0116C26.5293 39.9328 26.3942 39.853 26.2593 39.7729C26.0259 39.6346 26.0259 39.6346 25.7925 39.4965C24.8069 38.9134 23.8449 38.3018 22.895 37.6624C22.6897 37.5242 22.4837 37.387 22.2772 37.2505C21.7271 36.8867 21.1806 36.5196 20.6512 36.126C20.5706 36.0662 20.4893 36.0074 20.4078 35.9487C19.5544 35.3253 18.6171 34.3902 18.3938 33.3219C18.3131 32.7132 18.3403 32.1037 18.7108 31.5927C18.9544 31.2999 19.248 31.1197 19.6076 30.9998C20.4766 30.9396 21.0061 31.226 21.6682 31.7438C21.8534 31.8879 22.0432 32.0162 22.2426 32.1395C22.3946 32.2343 22.5445 32.3318 22.6943 32.43C23.6337 33.0447 24.5899 33.6276 25.5604 34.1913C25.7087 34.2775 25.8568 34.364 26.0048 34.4506C26.3694 34.6638 26.7341 34.8767 27.1005 35.0866C27.8334 35.5066 28.557 35.9398 29.2767 36.3817C29.3337 36.4165 29.3337 36.4165 29.3919 36.4521C30.4142 37.0776 31.3846 37.7812 32.2869 38.5709C32.3218 38.6012 32.3567 38.6316 32.3926 38.6628C32.4524 38.715 32.512 38.7674 32.5715 38.82C32.6248 38.8666 32.6789 38.9124 32.7336 38.9575C32.9105 39.1035 33.0595 39.26 33.2078 39.4348C33.2905 39.5288 33.3772 39.6155 33.4671 39.7026C33.6616 39.8952 33.8337 40.102 34.0034 40.3166C34.0479 40.3728 34.0926 40.4288 34.1374 40.4847C34.5374 40.9847 34.9076 41.4971 35.2515 42.0372C35.269 42.0644 35.2866 42.0917 35.3046 42.1197C35.8236 42.9321 36.289 43.8197 36.6198 44.7252C36.6929 44.9239 36.7674 45.1207 36.8507 45.3153C36.9759 45.6238 37.0533 45.9483 37.1394 46.2694C37.1792 46.414 37.2234 46.5572 37.2669 46.7007C37.3424 46.9635 37.3868 47.2228 37.4211 47.4939C37.4392 47.6352 37.4617 47.7747 37.4864 47.915C37.5018 48.0081 37.517 48.1012 37.532 48.1944C37.5398 48.2429 37.5476 48.2914 37.5557 48.3414C37.6303 48.8635 37.6417 49.382 37.6426 49.9089C37.6431 50.0594 37.6454 50.2097 37.6477 50.3601C37.6481 50.4571 37.6484 50.5542 37.6487 50.6512C37.6496 50.6954 37.6504 50.7397 37.6514 50.7853C37.649 51.1401 37.5537 51.4382 37.3136 51.706C37.0588 51.9493 36.7435 52.1187 36.4402 52.2935C36.4118 52.31 36.3834 52.3265 36.3541 52.3436C35.0475 53.1022 33.6781 53.7903 32.2884 54.3828C32.1741 54.4324 32.0638 54.485 31.9534 54.5426C31.7784 54.633 31.5958 54.6968 31.4102 54.7622C31.2935 54.8041 31.1788 54.8491 31.064 54.896C30.8268 54.9922 30.5859 55.0768 30.3445 55.1619C30.1716 55.2244 30.0017 55.2926 29.8324 55.3642C29.468 55.4972 28.9668 55.5261 28.5955 55.4011C28.3273 55.2403 28.18 55.0125 28.0909 54.7165C28.0694 54.5705 28.0532 54.4249 28.0393 54.2781C27.931 53.2665 27.311 52.4239 26.6314 51.7063C26.5969 51.6693 26.5623 51.6323 26.5267 51.5942C26.0038 51.0517 25.38 50.6265 24.7615 50.2012C24.7339 50.1822 24.7064 50.1633 24.678 50.1437C23.9633 49.6539 23.2224 49.2011 22.4782 48.7577C20.7162 47.7074 19.0048 46.6052 17.4959 45.2061C17.3956 45.1139 17.2941 45.0245 17.1904 44.9362C16.845 44.6362 16.5207 44.3059 16.2246 43.9574C16.1406 43.8607 16.0537 43.7672 15.9662 43.6738C15.6696 43.3561 15.4003 43.022 15.138 42.6757C15.1131 42.643 15.0882 42.6104 15.0626 42.5768C13.098 39.991 11.951 37.0015 11.3588 33.8291C11.3533 33.7996 11.3478 33.7701 11.3421 33.7398C11.3366 33.71 11.331 33.6802 11.3253 33.6495C11.3121 33.5813 11.2983 33.5132 11.2839 33.4452C11.2287 33.1818 11.1914 32.9213 11.1668 32.6533C11.1629 32.6117 11.1589 32.5701 11.1549 32.5273C11.1423 32.3916 11.1304 32.2558 11.1187 32.1201C11.1146 32.073 11.1106 32.026 11.1064 31.9775C11.0224 30.981 11.0063 29.9922 11.0332 28.993C11.0342 28.9542 11.0351 28.9154 11.0362 28.8754C11.0835 27.0774 11.2493 25.2297 11.8085 23.5114C11.8226 23.4681 11.8366 23.4247 11.8511 23.3801C12.0571 22.7838 12.3828 22.2934 12.9336 21.9751C13.4801 21.7106 14.0681 21.8791 14.5451 22.1973Z" fill="#7A40F1"/>
<path d="M40.5421 11.1599C40.5828 11.1726 40.6235 11.1852 40.6654 11.1982C41.5079 11.4931 42.2457 12.1764 42.6384 12.9675C42.9734 13.6769 43.16 14.5142 42.9125 15.2808C42.8979 15.3206 42.8832 15.3605 42.8681 15.4016C42.8521 15.4471 42.836 15.4926 42.8195 15.5395C42.6437 16.0001 42.3654 16.3501 42.0016 16.6786C41.9779 16.7003 41.9542 16.7219 41.9298 16.7442C41.5846 17.025 41.1093 17.0752 40.6777 17.0659C40.4941 17.0355 40.3968 16.9601 40.2592 16.8399C39.9804 16.6017 39.643 16.6091 39.2907 16.6172C39.077 16.638 38.9345 16.6882 38.7633 16.8154C38.7349 16.8364 38.7064 16.8573 38.6771 16.8789C38.3696 17.1244 38.1963 17.4083 38.1515 17.8028C38.1484 17.8589 38.1452 17.915 38.1419 17.9728C38.1385 18.0296 38.1351 18.0864 38.1316 18.1449C38.1293 18.1878 38.1271 18.2307 38.1248 18.2749C38.1549 18.2749 38.185 18.2749 38.216 18.2749C38.2386 18.3525 38.2386 18.3525 38.2616 18.4317C38.3793 18.7412 38.606 19.0071 38.8973 19.1672C39.2464 19.2981 39.688 19.2946 40.0438 19.1925C40.3557 19.0482 40.5876 18.8266 40.773 18.54C40.8983 18.3582 41.03 18.2567 41.2425 18.2013C41.3679 18.1785 41.4935 18.1593 41.6196 18.141C42.3014 18.0279 42.8132 17.8403 43.2444 17.2744C43.6473 16.6248 43.7438 15.7123 43.7618 14.9649C43.788 14.7436 43.8832 14.5861 44.054 14.4438C44.6662 14.2397 45.357 14.4732 45.9097 14.7431C46.7265 15.2246 47.2469 16.028 47.5044 16.9272C47.5863 17.2653 47.581 17.5985 47.5744 17.9443C47.5737 18.0077 47.5731 18.0711 47.5725 18.1345C47.571 18.2878 47.5687 18.441 47.5659 18.5942C47.6265 18.6076 47.6265 18.6076 47.6884 18.6213C47.7415 18.6333 47.7947 18.6453 47.8495 18.6576C47.9021 18.6694 47.9548 18.6812 48.009 18.6933C48.2104 18.744 48.3852 18.8189 48.5693 18.9135C48.6374 18.9472 48.6374 18.9472 48.707 18.9817C49.9703 19.6306 50.8074 20.6807 51.2516 22.0177C51.584 23.2506 51.3872 24.4963 50.8041 25.618C50.7438 25.7156 50.682 25.8115 50.617 25.9061C50.564 25.9875 50.564 25.9875 50.5932 26.1111C50.6348 26.1929 50.6766 26.2745 50.7186 26.3561C51.1506 27.2431 51.245 28.3696 50.9409 29.3123C50.7412 29.8781 50.4603 30.3601 50.0744 30.8174C50.0396 30.8635 50.0047 30.9096 49.9689 30.9571C49.3572 31.6257 48.5344 31.9679 47.7027 32.2769C47.6997 32.3021 47.6968 32.3273 47.6938 32.3532C47.5575 33.4824 47.276 34.5178 46.3489 35.257C45.7467 35.7013 45.1324 35.9211 44.3836 35.9336C44.3519 35.9342 44.3201 35.9347 44.2875 35.9353C44.155 35.9375 44.0225 35.9397 43.89 35.9405C43.7922 35.9412 43.6945 35.943 43.5968 35.945C43.5101 35.946 43.5101 35.946 43.4216 35.947C43.2783 35.9588 43.2783 35.9588 43.1914 36.0449C43.1257 36.1888 43.125 36.3018 43.1249 36.4599C43.1241 36.521 43.1233 36.5822 43.1225 36.6433C43.122 36.7385 43.1218 36.8336 43.1219 36.9287C43.1207 37.6247 42.9815 38.2595 42.4947 38.7847C41.9119 39.3279 41.0591 39.6634 40.2656 39.6798C40.2114 39.6815 40.1573 39.6832 40.1015 39.685C39.9202 39.6618 39.848 39.6123 39.7211 39.4831C39.6723 39.3366 39.6695 39.2313 39.6691 39.0772C39.6689 39.021 39.6686 38.9649 39.6683 38.907C39.6683 38.8446 39.6682 38.7822 39.6682 38.7198C39.668 38.6541 39.6677 38.5885 39.6675 38.5229C39.6669 38.3444 39.6666 38.1659 39.6664 37.9874C39.6663 37.8757 39.6661 37.764 39.6659 37.6523C39.6652 37.3025 39.6648 36.9527 39.6646 36.6028C39.6644 36.1998 39.6636 35.7969 39.6623 35.3939C39.6613 35.0819 39.6608 34.77 39.6608 34.4581C39.6607 34.272 39.6605 34.086 39.6597 33.8999C39.6589 33.7245 39.6588 33.5492 39.6592 33.3738C39.6592 33.3098 39.659 33.2458 39.6586 33.1818C39.655 32.6485 39.726 32.1656 39.9748 31.6897C39.9905 31.6591 40.0062 31.6285 40.0223 31.597C40.1954 31.2693 40.4081 30.9739 40.6333 30.6806C40.6695 30.6335 40.7056 30.5864 40.7429 30.5379C40.798 30.4665 40.8531 30.3951 40.9085 30.324C41.075 30.1094 41.2334 29.8894 41.3916 29.6686C42.4381 28.2148 42.4381 28.2148 43.233 28.0809C43.3054 28.0759 43.378 28.0728 43.4506 28.0713C43.4925 28.0705 43.5344 28.0696 43.5775 28.0687C43.7678 28.066 43.9582 28.0638 44.1485 28.0624C44.2488 28.0614 44.349 28.0598 44.4492 28.0577C44.5944 28.0547 44.7394 28.0534 44.8846 28.0525C44.9513 28.0506 44.9513 28.0506 45.0195 28.0487C45.292 28.0495 45.4389 28.0915 45.6353 28.2842C45.6959 28.3545 45.6959 28.3545 45.7786 28.4714C45.9767 28.6921 46.2071 28.7947 46.5003 28.8313C46.9265 28.8433 47.2364 28.7689 47.6001 28.5541C47.9338 28.2018 48.0387 27.8532 48.0348 27.378C48.0121 27.0885 47.9167 26.8929 47.7283 26.6755C47.6898 26.6426 47.6512 26.6097 47.6115 26.5758C47.5757 26.5438 47.54 26.5118 47.5032 26.4788C47.2459 26.2951 47.0163 26.2318 46.7021 26.2365C46.6701 26.2369 46.638 26.2372 46.6049 26.2375C46.3521 26.2453 46.1711 26.2874 45.9696 26.4389C45.944 26.4576 45.9184 26.4762 45.8921 26.4954C45.7877 26.577 45.7025 26.6574 45.6275 26.7668C45.5253 26.8902 45.4425 26.902 45.2854 26.9406C45.1026 26.9528 44.9203 26.9511 44.7372 26.9499C44.6273 26.9504 44.5174 26.9509 44.4075 26.9515C44.2357 26.952 44.0639 26.952 43.8921 26.9511C42.8334 26.9468 42.0866 27.0708 41.3055 27.8142C40.9878 28.1493 40.7591 28.558 40.5204 28.9506C40.2279 29.4294 39.9042 29.8497 39.5216 30.2615C38.465 31.4018 38.2261 32.4628 38.2323 33.9833C38.2328 34.169 38.2319 34.3547 38.2312 34.5404C38.2299 34.8912 38.2298 35.242 38.2301 35.5928C38.2306 36.2217 38.2294 36.8506 38.2276 37.4794C38.227 37.6996 38.227 37.9198 38.2273 38.14C38.2275 38.277 38.2273 38.414 38.227 38.551C38.227 38.6142 38.2271 38.6773 38.2274 38.7405C38.2296 39.2749 38.2202 39.6693 37.8294 40.065C37.4524 40.4 37.0876 40.4395 36.5974 40.4172C36.3382 40.396 36.1444 40.3229 35.9356 40.1672C35.9025 40.1435 35.8695 40.1198 35.8355 40.0954C35.5601 39.8775 35.3708 39.6008 35.2971 39.2551C35.2926 39.1192 35.2907 38.9844 35.2909 38.8486C35.2908 38.786 35.2908 38.786 35.2906 38.7221C35.2903 38.5813 35.2903 38.4404 35.2903 38.2996C35.2902 38.198 35.29 38.0964 35.2898 37.9948C35.2894 37.7147 35.2892 37.4347 35.2891 37.1547C35.2889 36.8839 35.2886 36.6132 35.2882 36.3424C35.2872 35.6168 35.2868 34.8912 35.2864 34.1656C35.2862 33.8222 35.2859 33.4788 35.2857 33.1355C35.2849 31.9598 35.2842 30.7842 35.2839 29.6086C35.2838 29.5348 35.2838 29.461 35.2838 29.3871C35.2838 29.3505 35.2838 29.3139 35.2838 29.2762C35.2837 29.0908 35.2837 28.9053 35.2836 28.7198C35.2836 28.683 35.2836 28.6462 35.2836 28.6083C35.2832 27.4157 35.2821 26.223 35.2807 25.0304C35.2791 23.7692 35.2782 22.508 35.278 21.2468C35.278 21.1082 35.278 20.9696 35.278 20.8311C35.278 20.797 35.278 20.7629 35.278 20.7277C35.2778 20.1794 35.2771 19.6312 35.2762 19.0829C35.2753 18.5313 35.275 17.9797 35.2755 17.4282C35.2757 17.1295 35.2756 16.8309 35.2747 16.5323C35.2739 16.2586 35.2739 15.9849 35.2746 15.7112C35.2748 15.6125 35.2746 15.5137 35.274 15.415C35.2675 14.1567 35.6122 13.0612 36.5005 12.1457C36.9674 11.6788 37.4973 11.3312 38.1248 11.1143C38.1669 11.0997 38.209 11.0852 38.2524 11.0701C38.9881 10.8599 39.8233 10.9178 40.5421 11.1599Z" fill="#6533DD"/>
<path d="M51.5881 32.2056C51.6298 32.2049 51.6715 32.2042 51.7145 32.2036C52.1753 32.2105 52.5273 32.3646 52.8605 32.6802C53.2845 33.1578 53.2108 33.8243 53.1759 34.4205C53.1432 34.7013 53.0729 34.9707 52.9934 35.2414C52.9791 35.2913 52.9791 35.2913 52.9646 35.3422C52.8897 35.5998 52.8063 35.8541 52.7198 36.108C52.7052 36.1512 52.6905 36.1945 52.6754 36.239C51.7885 38.8351 50.3901 41.3093 48.615 43.4054C48.5748 43.4535 48.5347 43.5016 48.4945 43.5498C48.2593 43.8309 48.019 44.106 47.7705 44.3755C47.6828 44.472 47.5973 44.5694 47.5122 44.6682C47.3453 44.8591 47.1699 45.0396 46.9903 45.2186C46.9422 45.2668 46.9422 45.2668 46.8931 45.316C46.8257 45.3834 46.7583 45.4507 46.6908 45.518C46.5885 45.6201 46.4864 45.7224 46.3843 45.8248C46.3184 45.8907 46.2524 45.9566 46.1865 46.0224C46.1564 46.0526 46.1264 46.0827 46.0955 46.1137C45.9183 46.29 45.7362 46.4581 45.5468 46.6213C45.4456 46.7086 45.3471 46.7987 45.2485 46.8888C45.0091 47.1046 44.7608 47.3077 44.5102 47.5103C44.454 47.5564 44.3979 47.6025 44.3418 47.6487C43.9203 47.995 43.4914 48.3289 43.0507 48.6505C43.0215 48.6718 42.9924 48.6931 42.9623 48.715C42.1002 49.3415 41.2016 49.9234 40.2809 50.46C40.177 50.5206 40.0736 50.5821 39.9701 50.6436C39.9053 50.6814 39.8403 50.7193 39.7754 50.757C39.7324 50.7827 39.7324 50.7827 39.6886 50.8089C39.5029 50.915 39.343 50.9716 39.1283 50.9765C39.0516 50.9225 39.0516 50.9225 38.9915 50.8397C38.9757 50.7363 38.9757 50.7363 38.9774 50.6134C38.9777 50.5672 38.978 50.521 38.9783 50.4733C38.9793 50.423 38.9803 50.3727 38.9813 50.3209C38.9817 50.2683 38.9822 50.2158 38.9826 50.1616C38.984 49.9924 38.9862 49.8231 38.9886 49.6539C39.0039 48.5132 38.9731 47.3897 38.772 46.2646C38.7598 46.1942 38.7476 46.1239 38.7355 46.0535C38.5861 45.1998 38.39 44.3678 38.1249 43.5423C38.1133 43.506 38.1018 43.4697 38.0898 43.4323C38.0325 43.2562 37.9728 43.089 37.8883 42.9237C37.7965 42.72 37.7717 42.5789 37.8057 42.3564C37.9663 42.194 38.0812 42.1506 38.3068 42.141C38.3869 42.1368 38.3869 42.1368 38.4685 42.1325C38.5538 42.1291 38.5538 42.1291 38.6409 42.1255C38.7603 42.119 38.8797 42.1122 38.9992 42.1052C39.059 42.1018 39.1189 42.0983 39.1806 42.0947C39.4398 42.0771 39.6972 42.0493 39.955 42.0172C39.9978 42.0122 40.0406 42.0072 40.0847 42.002C40.3378 41.9695 40.5769 41.9161 40.8219 41.8451C40.9587 41.8075 41.096 41.7783 41.2349 41.7493C41.5952 41.6672 41.9333 41.5357 42.2753 41.3987C42.3083 41.3856 42.3412 41.3725 42.3751 41.359C43.6339 40.8564 44.7675 40.1787 45.7705 39.2616C45.8656 39.1754 45.9627 39.0925 46.0609 39.0099C47.4904 37.7579 48.4424 35.883 49.2042 34.1851C49.5518 33.4133 49.9469 32.695 50.7472 32.3225C51.0263 32.2246 51.2935 32.209 51.5881 32.2056Z" fill="#A381FB"/>
<path d="M34.3846 9.77273C34.7587 10.1136 35.015 10.6016 35.0388 11.1077C35.0492 11.7262 34.9942 12.2468 34.613 12.7562C34.5906 12.7866 34.5682 12.817 34.5451 12.8483C34.2738 13.187 33.9286 13.3996 33.5184 13.5316C33.5188 13.5619 33.5192 13.5923 33.5196 13.6236C33.5237 13.9433 33.5264 14.263 33.5284 14.5827C33.5293 14.7016 33.5305 14.8205 33.5321 14.9394C33.5486 16.2017 33.3676 17.3409 32.4562 18.2934C32.1353 18.6004 31.798 18.8291 31.4004 19.0217C31.3705 19.0364 31.3407 19.0511 31.3099 19.0662C30.8416 19.2811 30.3507 19.3442 29.8403 19.3472C29.7884 19.348 29.7366 19.3489 29.6833 19.3497C29.5202 19.3522 29.3571 19.3537 29.1941 19.3552C29.0825 19.3568 28.9709 19.3583 28.8594 19.36C28.588 19.3638 28.3167 19.3669 28.0453 19.3695C28.0363 19.3977 28.0273 19.4258 28.018 19.4548C28 19.5103 28 19.5103 27.9816 19.5668C27.9698 19.6034 27.958 19.64 27.9458 19.6778C27.7963 20.0871 27.4052 20.3872 27.0419 20.6009C26.4621 20.867 25.8375 20.9217 25.23 20.7128C24.6086 20.437 24.2028 19.9936 23.9405 19.3695C23.7695 18.8973 23.7787 18.2771 23.9861 17.8188C24.2778 17.2425 24.7044 16.7821 25.3226 16.5553C25.5363 16.4886 25.7358 16.4733 25.9587 16.4762C25.9963 16.4766 26.0339 16.4769 26.0727 16.4773C26.6041 16.4919 27.0157 16.6343 27.4068 16.9978C27.4386 17.0261 27.4705 17.0544 27.5033 17.0835C27.7869 17.3484 27.9651 17.6567 28.1365 18.0012C28.4343 18.0047 28.732 18.0071 29.0298 18.0087C29.131 18.0094 29.2321 18.0104 29.3333 18.0116C29.4793 18.0132 29.6252 18.014 29.7711 18.0146C29.8159 18.0153 29.8607 18.016 29.9068 18.0167C30.5204 18.0169 31.1156 17.7453 31.5588 17.323C31.8204 17.0395 31.9821 16.7231 32.1045 16.3593C32.12 16.3162 32.1354 16.2731 32.1514 16.2286C32.2221 15.9777 32.212 15.7189 32.2146 15.4601C32.2155 15.4049 32.2164 15.3497 32.2173 15.2928C32.22 15.1171 32.2221 14.9415 32.2242 14.7658C32.226 14.6464 32.2277 14.5271 32.2296 14.4077C32.2339 14.1156 32.2378 13.8236 32.2413 13.5316C32.2057 13.5249 32.17 13.5181 32.1333 13.5112C31.7068 13.4214 31.317 13.0764 31.0635 12.7355C30.6893 12.1361 30.5543 11.5569 30.6963 10.8577C30.8563 10.2452 31.2131 9.78412 31.751 9.44955C32.6258 8.9651 33.6277 9.17024 34.3846 9.77273Z" fill="#7139EB"/>
<path d="M28.7295 12.3001C28.8897 12.4292 29.038 12.5674 29.1856 12.7106C29.2326 12.7518 29.2326 12.7518 29.2806 12.7938C29.8903 13.3482 30.2802 14.2769 30.3358 15.092C30.3413 15.2513 30.3428 15.4102 30.3429 15.5697C30.3441 15.6237 30.3452 15.6777 30.3463 15.7333C30.3474 16.0438 30.3328 16.2457 30.1434 16.4961C29.9698 16.6544 29.7926 16.6536 29.5672 16.6459C29.3672 16.6219 29.2695 16.5369 29.1353 16.3939C29.0342 16.2469 29.0266 16.1737 29.0274 15.9973C29.0266 15.9195 29.0266 15.9195 29.0259 15.8402C29.0259 15.7585 29.0259 15.7585 29.026 15.6752C29.0177 15.2334 29.0085 14.85 28.8207 14.4437C28.8015 14.4007 28.7822 14.3578 28.7623 14.3135C28.4392 13.6627 27.9287 13.2512 27.2476 13.0174C26.6249 12.837 25.9259 12.887 25.3546 13.1946C25.2287 13.2717 25.109 13.3535 24.9896 13.4403C24.9462 13.4695 24.9462 13.4695 24.9019 13.4993C24.3754 13.8917 24.1464 14.5647 24.0318 15.182C23.9279 15.7309 23.6679 16.1584 23.2105 16.4829C23.1805 16.5023 23.1505 16.5217 23.1196 16.5417C23.0853 16.5651 23.051 16.5884 23.0156 16.6125C22.8668 16.6918 22.7184 16.726 22.5552 16.7612C21.7106 16.9617 21.0375 17.2911 20.5568 18.0381C20.361 18.3836 20.2414 18.7073 20.2391 19.105C20.2384 19.1909 20.2384 19.1909 20.2376 19.2785C20.2374 19.3242 20.2374 19.3242 20.2372 19.3709C20.2366 19.4668 20.2357 19.5627 20.2348 19.6586C20.2319 19.9312 20.2295 20.2039 20.228 20.4765C20.227 20.6435 20.2254 20.8105 20.2234 20.9775C20.2227 21.0409 20.2223 21.1042 20.2222 21.1676C20.221 21.6291 20.2074 21.9861 19.87 22.3312C19.3178 22.9175 18.93 23.5216 18.8979 24.3523C18.9264 25.2354 19.3029 25.9587 19.927 26.5757C20.0461 26.684 20.1661 26.7905 20.2888 26.8946C20.4093 27.0117 20.4693 27.0977 20.4813 27.2666C20.4554 27.5347 20.394 27.664 20.2007 27.8527C19.994 27.9905 19.8039 27.9847 19.5621 27.944C19.3999 27.8633 19.2812 27.7502 19.1516 27.6247C19.1078 27.5844 19.064 27.544 19.0189 27.5025C18.6913 27.1942 18.4319 26.8663 18.1939 26.4845C18.1552 26.4227 18.1552 26.4227 18.1158 26.3596C17.6114 25.4954 17.5075 24.4122 17.7007 23.4372C17.8801 22.7569 18.216 22.2095 18.7009 21.7027C18.851 21.5308 18.8893 21.4046 18.8889 21.177C18.8892 21.1034 18.8892 21.1034 18.8894 21.0282C18.8892 20.9752 18.8891 20.9221 18.8889 20.8675C18.8896 20.7537 18.8903 20.64 18.8911 20.5263C18.8918 20.3481 18.8922 20.1699 18.8919 19.9917C18.8911 18.811 19.0035 17.8329 19.7902 16.9066C19.8149 16.8758 19.8397 16.845 19.8652 16.8132C20.4775 16.0733 21.3696 15.6672 22.2899 15.4646C22.4888 15.3784 22.5972 15.2668 22.7091 15.0822C22.7642 14.9376 22.7958 14.7919 22.826 14.6404C23.0581 13.6162 23.6191 12.7294 24.5218 12.1586C25.8451 11.3676 27.4594 11.4247 28.7295 12.3001Z" fill="#6E37EA"/>
<path d="M26.1753 26.5301C26.5534 26.8157 26.8892 27.1668 27.0419 27.6247C27.0793 27.625 27.1167 27.6253 27.1553 27.6256C27.5109 27.6282 27.8664 27.6315 28.2219 27.6355C28.4046 27.6375 28.5873 27.6393 28.77 27.6405C28.9469 27.6417 29.1237 27.6436 29.3006 27.6459C29.3675 27.6466 29.4345 27.6472 29.5014 27.6474C30.0884 27.6502 30.6583 27.7001 31.178 27.9953C31.2105 28.0133 31.2431 28.0312 31.2765 28.0497C32.0742 28.5024 32.5793 29.1685 32.8567 30.0392C32.9273 30.3261 32.9289 30.5978 32.9254 30.8913C32.9254 30.9867 32.9254 31.082 32.9256 31.1773C32.9258 31.3268 32.9254 31.4762 32.9231 31.6256C32.921 31.7705 32.9216 31.9152 32.9226 32.06C32.9207 32.1266 32.9207 32.1266 32.9187 32.1945C32.9221 32.3866 32.9269 32.5035 33.0619 32.6471C33.1704 32.733 33.1704 32.733 33.2829 32.8039C33.4149 32.8921 33.4841 32.9962 33.564 33.132C33.5894 33.1741 33.6148 33.2162 33.6409 33.2596C33.8215 33.5971 33.8075 34.1072 33.7067 34.4736C33.5218 34.8651 33.2326 35.126 32.8342 35.2871C32.6623 35.3444 32.5003 35.3428 32.3211 35.3441C32.2706 35.3455 32.2706 35.3455 32.219 35.3469C31.8268 35.3497 31.5223 35.1893 31.2379 34.9222C30.9041 34.5044 30.8295 34.1261 30.8616 33.6013C30.8876 33.3902 30.9814 33.2241 31.1011 33.0522C31.1434 32.9887 31.1434 32.9887 31.1866 32.9239C31.2835 32.8242 31.2835 32.8242 31.3614 32.7811C31.4962 32.7056 31.5869 32.6492 31.6325 32.497C31.6436 32.3722 31.6446 32.251 31.642 32.1258C31.6421 32.0799 31.6421 32.0341 31.6422 31.9868C31.6421 31.8898 31.6411 31.7927 31.6394 31.6956C31.637 31.5488 31.6375 31.4023 31.6384 31.2555C31.6368 30.5668 31.5812 30.017 31.0761 29.5018C30.5657 29.0532 30.0352 28.9717 29.3738 28.9781C29.3093 28.9782 29.2449 28.9783 29.1804 28.9783C29.0463 28.9785 28.9122 28.9792 28.7781 28.9802C28.6062 28.9815 28.4343 28.982 28.2625 28.9822C28.1298 28.9824 27.9971 28.9828 27.8644 28.9834C27.801 28.9836 27.7376 28.9838 27.6742 28.984C27.5859 28.9843 27.4976 28.985 27.4093 28.9857C27.3592 28.986 27.309 28.9863 27.2573 28.9866C27.1287 28.9877 27.1287 28.9877 26.9963 29.0386C26.9594 29.1223 26.9594 29.1223 26.9364 29.2239C26.7876 29.7139 26.3816 30.0695 25.9473 30.3157C25.4711 30.5569 24.9261 30.6532 24.404 30.4933C23.7073 30.2053 23.2444 29.8641 22.939 29.1607C22.9233 29.1204 22.9076 29.0801 22.8915 29.0386C22.8747 28.9961 22.8579 28.9536 22.8407 28.9098C22.6768 28.3227 22.8193 27.7228 23.1081 27.2029C23.3997 26.7495 23.8291 26.3795 24.362 26.2492C25.0109 26.1199 25.6244 26.1405 26.1753 26.5301Z" fill="#6232D8"/>
<path d="M32.686 21.841C33.1617 22.1641 33.5299 22.6622 33.6438 23.2354C33.72 23.9179 33.5767 24.5181 33.1752 25.076C32.9765 25.3232 32.7472 25.47 32.4694 25.618C32.4242 25.6443 32.3791 25.6707 32.3325 25.6978C31.7881 25.9246 31.1984 25.8851 30.645 25.7092C29.9841 25.3901 29.6314 24.873 29.368 24.2041C28.7059 24.1988 28.0438 24.1948 27.3817 24.1923C27.0743 24.1911 26.7668 24.1895 26.4594 24.1869C26.1628 24.1844 25.8662 24.1831 25.5696 24.1825C25.4563 24.182 25.3431 24.1812 25.2299 24.18C25.0714 24.1783 24.913 24.1781 24.7546 24.1782C24.7076 24.1774 24.6607 24.1766 24.6123 24.1757C24.3451 24.177 24.3451 24.177 24.1198 24.3138C24.0907 24.3528 24.0616 24.3919 24.0317 24.4321C23.9925 24.4795 23.9925 24.4795 23.9524 24.5278C23.9287 24.5574 23.905 24.587 23.8806 24.6174C23.6506 24.8823 23.3686 24.9977 23.0283 25.0707C22.544 25.1019 22.1762 24.9872 21.8008 24.68C21.5249 24.427 21.3663 24.101 21.3299 23.7277C21.3176 23.2834 21.4265 22.9791 21.7142 22.6391C22.0193 22.3189 22.3379 22.1486 22.7803 22.1374C23.327 22.1454 23.6553 22.3633 24.0317 22.7446C24.0519 22.7688 24.072 22.7931 24.0928 22.818C24.1932 22.9021 24.2515 22.8985 24.3815 22.8985C24.4252 22.8988 24.4689 22.8991 24.514 22.8995C24.5619 22.8991 24.6098 22.8988 24.6592 22.8984C24.7097 22.8986 24.7602 22.8988 24.8123 22.8989C24.9797 22.8993 25.147 22.8987 25.3145 22.898C25.4305 22.898 25.5466 22.898 25.6626 22.8981C25.906 22.8981 26.1494 22.8976 26.3928 22.8968C26.6742 22.8958 26.9556 22.8956 27.2371 22.8959C27.5077 22.8962 27.7784 22.8959 28.0491 22.8954C28.1643 22.8952 28.2795 22.8952 28.3948 22.8953C28.5556 22.8953 28.7164 22.8947 28.8773 22.894C28.9252 22.8941 28.9731 22.8942 29.0225 22.8943C29.0662 22.894 29.11 22.8937 29.155 22.8933C29.1931 22.8932 29.2311 22.8931 29.2703 22.893C29.3815 22.8873 29.3815 22.8873 29.5048 22.7902C29.5624 22.7001 29.5624 22.7001 29.6131 22.5964C29.8868 22.0916 30.33 21.7491 30.873 21.5588C31.4942 21.3841 32.1425 21.5213 32.686 21.841Z" fill="#6734E0"/>
<path d="M46.762 21.325C46.9134 21.4466 47.0153 21.5697 47.1098 21.7412C47.1361 21.7873 47.1624 21.8334 47.1896 21.8809C47.298 22.1505 47.2945 22.4827 47.2167 22.7599C47.0524 23.1181 46.7796 23.3986 46.4256 23.5655C46.1238 23.6633 45.7212 23.6757 45.4256 23.5581C45.313 23.4898 45.208 23.4169 45.103 23.3375C44.3527 22.8181 43.4198 22.6638 42.5262 22.8215C41.5502 23.0296 40.884 23.621 40.35 24.4352C40.2919 24.5251 40.2344 24.6153 40.1772 24.7058C40.159 24.7344 40.1408 24.763 40.1221 24.7925C39.7584 25.3687 39.4803 25.9407 39.2907 26.5957C39.1132 27.2059 38.8802 27.9555 38.3131 28.3178C38.1053 28.3963 37.8858 28.3872 37.6687 28.3545C37.534 28.2841 37.4453 28.1977 37.3494 28.0808C37.3057 28.03 37.3057 28.03 37.2611 27.9782C37.1759 27.7577 37.1659 27.5224 37.249 27.2989C37.2801 27.2382 37.3127 27.1782 37.3468 27.1191C37.4043 27.0213 37.4043 27.0213 37.4521 26.8608C37.6006 26.457 37.8867 26.1247 38.1676 25.8061C38.6268 25.2817 38.9259 24.7147 39.2155 24.0835C39.628 23.1885 39.628 23.1885 39.9492 22.8358C39.98 22.8013 40.0109 22.7668 40.0427 22.7312C40.5033 22.2427 41.1166 21.8989 41.7707 21.7497C41.8129 21.7401 41.8551 21.7304 41.8985 21.7205C42.5406 21.589 43.2222 21.6051 43.8709 21.6852C44.0118 21.7011 44.1517 21.7051 44.2934 21.707C44.3463 21.7081 44.3992 21.7093 44.4538 21.7105C44.6153 21.6941 44.6964 21.6483 44.8293 21.5587C44.8594 21.5587 44.8895 21.5587 44.9205 21.5587C44.9356 21.5136 44.9506 21.4684 44.9661 21.4219C45.5316 20.927 46.1473 20.89 46.762 21.325Z" fill="white"/>
<path d="M33.2845 10.5214C33.5106 10.666 33.7059 10.8563 33.7919 11.1143C33.8226 11.4536 33.8192 11.7467 33.6095 12.0265C33.414 12.2467 33.1957 12.324 32.9077 12.3589C32.6106 12.3762 32.4227 12.309 32.1956 12.1177C32.0002 11.917 31.8897 11.693 31.8593 11.4136C31.8949 11.0746 32.0042 10.8689 32.2496 10.6329C32.53 10.4098 32.9508 10.4035 33.2845 10.5214Z" fill="white"/>
<path d="M25.5761 27.6374C25.769 27.793 25.8795 27.9742 25.9156 28.2236C25.9332 28.5556 25.8417 28.7839 25.6279 29.0386C25.5229 29.1211 25.4323 29.1664 25.3086 29.2211C25.2635 29.2437 25.2635 29.2437 25.2174 29.2667C24.9068 29.3001 24.6408 29.3017 24.3822 29.1131C24.1658 28.9037 24.0274 28.6459 24.0173 28.3431C24.0221 28.0754 24.118 27.9056 24.301 27.7181C24.696 27.3555 25.1254 27.3382 25.5761 27.6374Z" fill="white"/>
<path d="M31.924 22.8277C32.1334 22.9539 32.2778 23.1511 32.3981 23.3604C32.4644 23.655 32.4356 23.8834 32.3058 24.1532C32.1782 24.3443 31.9885 24.4674 31.7853 24.569C31.4355 24.6086 31.1515 24.6043 30.8676 24.3821C30.6765 24.1887 30.5444 23.9729 30.531 23.6967C30.5743 23.3613 30.7159 23.1071 30.9643 22.8815C31.2784 22.7012 31.5937 22.6908 31.924 22.8277Z" fill="white"/>
<path d="M26.3736 17.8017C26.6165 17.9064 26.8021 18.0755 26.9052 18.3205C26.9464 18.5956 26.9622 18.8909 26.8311 19.1443C26.6818 19.329 26.5428 19.4751 26.3123 19.552C25.7631 19.5936 25.7631 19.5936 25.5084 19.475C25.2645 19.2375 25.0785 18.9894 25.0637 18.6369C25.093 18.3293 25.2175 18.1573 25.4457 17.9557C25.4843 17.9208 25.5228 17.886 25.5626 17.8502C25.8219 17.7229 26.0956 17.7276 26.3736 17.8017Z" fill="white"/>
<path d="M11.5803 24.2953C11.5954 24.2953 11.6104 24.2953 11.626 24.2953C11.6272 24.3761 11.6281 24.4568 11.6288 24.5376C11.6293 24.5826 11.6299 24.6276 11.6304 24.6739C11.626 24.797 11.626 24.797 11.5803 24.9338C11.5688 25.0244 11.5574 25.1151 11.5476 25.2059C11.5345 25.3002 11.5123 25.3888 11.4891 25.4811C11.3182 26.427 11.3182 26.427 11.2629 27.3834C11.2611 27.4879 11.2611 27.4879 11.2155 27.5335C11.2121 27.6694 11.2156 27.8046 11.2183 27.9405C11.2155 28.0808 11.2155 28.0808 11.1927 28.1927C11.1638 28.3399 11.1673 28.4783 11.1699 28.6282C11.175 28.9247 11.175 28.9247 11.1478 29.0453C11.1152 29.2258 11.1135 29.4038 11.1098 29.5868C11.1089 29.626 11.1079 29.6652 11.107 29.7055C11.104 29.83 11.1013 29.9546 11.0986 30.0791C11.0966 30.1637 11.0946 30.2484 11.0926 30.3331C11.0878 30.5401 11.0831 30.7472 11.0786 30.9542C11.0636 30.9542 11.0485 30.9542 11.033 30.9542C11.0115 28.7061 11.0863 26.4969 11.5803 24.2953Z" fill="#9D66FA"/>
<path d="M35.4341 13.9877C35.5253 14.1245 35.5253 14.1245 35.5143 14.2341C35.5049 14.2789 35.4954 14.3238 35.4856 14.37C35.4187 14.7589 35.4255 15.1416 35.4298 15.5353C35.4323 15.7695 35.4331 16.0038 35.4339 16.238C35.4341 16.2875 35.4343 16.3369 35.4344 16.3879C35.4358 17.0085 35.4235 17.6288 35.4113 18.2493C35.4102 18.3055 35.4091 18.3618 35.4079 18.4197C35.4017 18.7363 35.3953 19.0529 35.3885 19.3695C35.3734 19.3695 35.3584 19.3695 35.3429 19.3695C35.3418 18.7605 35.341 18.1515 35.3405 17.5425C35.3403 17.2597 35.3399 16.9769 35.3394 16.6941C35.3389 16.4208 35.3386 16.1476 35.3385 15.8743C35.3384 15.7704 35.3383 15.6664 35.338 15.5625C35.3349 14.186 35.3349 14.186 35.4341 13.9877Z" fill="#6628E8"/>
<path d="M24.2596 24.1584C24.9241 24.1563 25.5885 24.1547 26.253 24.1537C26.5615 24.1532 26.87 24.1526 27.1785 24.1515C27.476 24.1505 27.7735 24.15 28.071 24.1498C28.1847 24.1496 28.2985 24.1493 28.4122 24.1488C28.571 24.1481 28.7298 24.148 28.8886 24.1481C28.936 24.1477 28.9834 24.1474 29.0323 24.1471C29.097 24.1473 29.097 24.1473 29.163 24.1475C29.2005 24.1474 29.2381 24.1473 29.2768 24.1472C29.3678 24.1584 29.3678 24.1584 29.4591 24.2496C29.442 24.3466 29.442 24.3466 29.4135 24.4321C29.3683 24.3192 29.3683 24.3192 29.3222 24.204C27.6516 24.204 25.9809 24.204 24.2596 24.204C24.2596 24.189 24.2596 24.1739 24.2596 24.1584Z" fill="#E2D8F9"/>
<path d="M11.5805 24.2953C11.5955 24.2953 11.6106 24.2953 11.6261 24.2953C11.6273 24.3761 11.6282 24.4568 11.629 24.5376C11.6295 24.5826 11.63 24.6276 11.6306 24.6739C11.6261 24.797 11.6261 24.797 11.5805 24.9338C11.569 25.0244 11.5575 25.1151 11.5477 25.2059C11.5349 25.2987 11.5349 25.2987 11.5135 25.383C11.4813 25.5134 11.4632 25.6447 11.4437 25.7776C11.4199 25.9397 11.3958 26.0984 11.3524 26.2565C11.3223 26.2565 11.2922 26.2565 11.2612 26.2565C11.3181 25.5921 11.4419 24.9471 11.5805 24.2953Z" fill="#A06DFA"/>
<path d="M35.2515 52.8465C35.2816 52.8615 35.3117 52.8766 35.3427 52.8921C35.0545 53.0453 34.7656 53.1973 34.4761 53.3482C34.4338 53.3703 34.3914 53.3925 34.3478 53.4153C34.2236 53.4799 34.0991 53.5439 33.9744 53.6076C33.9355 53.6279 33.8966 53.6483 33.8564 53.6692C33.8201 53.6876 33.7838 53.706 33.7464 53.725C33.7144 53.7414 33.6824 53.7579 33.6495 53.7748C33.564 53.8043 33.564 53.8043 33.4271 53.7587C33.499 53.7231 33.499 53.7231 33.5723 53.6869C33.637 53.6548 33.7017 53.6226 33.7663 53.5905C33.7997 53.5739 33.833 53.5574 33.8673 53.5403C34.079 53.4345 34.2866 53.3242 34.4898 53.2028C34.5673 53.1658 34.5673 53.1658 34.7042 53.1658C34.7042 53.1357 34.7042 53.1056 34.7042 53.0745C34.7933 53.0352 34.8827 52.9963 34.9721 52.9577C35.0219 52.936 35.0716 52.9143 35.1229 52.8919C35.1653 52.8769 35.2077 52.8619 35.2515 52.8465Z" fill="#622BDD"/>
<path d="M37.5775 11.3879C37.5214 11.5565 37.482 11.5631 37.3295 11.6445C36.9699 11.8511 36.6787 12.1404 36.3917 12.4369C36.3466 12.4219 36.3014 12.4068 36.2549 12.3913C37.1807 11.3879 37.1807 11.3879 37.5775 11.3879Z" fill="#793FF3"/>
<path d="M15.0468 22.8358C15.3452 23.1016 15.4721 23.5365 15.5912 23.9076C15.6065 23.9543 15.6065 23.9543 15.6221 24.0019C15.6701 24.1592 15.7037 24.2762 15.6397 24.4321C15.6096 24.4171 15.5795 24.402 15.5485 24.3865C15.5319 24.2803 15.517 24.1738 15.5028 24.0673C15.3991 23.6981 15.2722 23.3488 15.0886 23.0117C15.0468 22.927 15.0468 22.927 15.0468 22.8358Z" fill="#A474F9"/>
<path d="M18.5587 31.8207C18.5737 31.8207 18.5888 31.8207 18.6043 31.8207C18.6132 32.0425 18.5898 32.2061 18.5131 32.4137C18.4512 32.6549 18.4364 32.9038 18.5131 33.1434C18.4679 33.1585 18.4228 33.1735 18.3763 33.189C18.3464 32.2454 18.3464 32.2454 18.5587 31.8207Z" fill="#9052FA"/>
<path d="M35.434 13.9877C35.5252 14.1245 35.5252 14.1245 35.5141 14.2323C35.4999 14.2989 35.4999 14.2989 35.4853 14.3668C35.4058 14.8149 35.426 15.2674 35.434 15.7208C35.4039 15.7208 35.3738 15.7208 35.3427 15.7208C35.3307 14.1942 35.3307 14.1942 35.434 13.9877Z" fill="#6D2FEC"/>
<path d="M29.6873 55.2181C29.7325 55.2331 29.7776 55.2482 29.8242 55.2637C29.7941 55.2637 29.764 55.2637 29.733 55.2637C29.733 55.3089 29.733 55.354 29.733 55.4005C29.5259 55.452 29.3263 55.4545 29.1144 55.4547C29.0627 55.4555 29.0627 55.4555 29.0101 55.4564C28.8339 55.4568 28.6962 55.455 28.5471 55.3549C28.5471 55.3248 28.5471 55.2947 28.5471 55.2637C28.6073 55.2637 28.6675 55.2637 28.7296 55.2637C28.7296 55.2938 28.7296 55.3239 28.7296 55.3549C28.8246 55.3562 28.9196 55.357 29.0146 55.3578C29.094 55.3586 29.094 55.3586 29.175 55.3594C29.2966 55.3557 29.3889 55.3389 29.5049 55.3093C29.535 55.3244 29.5651 55.3394 29.5961 55.3549C29.5961 55.3248 29.5961 55.2947 29.5961 55.2637C29.6262 55.2487 29.6563 55.2336 29.6873 55.2181Z" fill="#6532DB"/>
<path d="M15.9589 27.1687C16.0474 27.3182 16.0635 27.4357 16.069 27.6084C16.0708 27.6572 16.0726 27.706 16.0744 27.7563C16.0765 27.8323 16.0765 27.8323 16.0787 27.9098C16.0804 27.9612 16.0822 28.0126 16.084 28.0655C16.0883 28.1923 16.0922 28.319 16.0958 28.4457C16.0657 28.4457 16.0356 28.4457 16.0045 28.4457C15.953 28.0196 15.9544 27.597 15.9589 27.1687Z" fill="#9B61FA"/>
<path d="M44.5643 14.3953C44.5985 14.3955 44.6327 14.3957 44.6679 14.3959C44.7522 14.3964 44.8364 14.3972 44.9206 14.3981C44.9206 14.4132 44.9206 14.4282 44.9206 14.4437C44.8772 14.4465 44.8337 14.4492 44.789 14.4521C44.7318 14.4559 44.6746 14.4597 44.6156 14.4637C44.559 14.4674 44.5024 14.4711 44.4441 14.4749C44.3096 14.4869 44.184 14.4986 44.0541 14.5349C43.992 14.6247 43.992 14.6247 43.9629 14.7174C43.9327 14.7174 43.9026 14.7174 43.8716 14.7174C43.8566 14.8829 43.8415 15.0485 43.826 15.2191C43.811 15.2191 43.7959 15.2191 43.7804 15.2191C43.7625 14.9138 43.7811 14.7394 43.9857 14.5007C44.153 14.3612 44.3594 14.3929 44.5643 14.3953Z" fill="#9C72F3"/>
<path d="M27.2244 52.208C27.3156 52.2992 27.3156 52.2992 27.3583 52.3876C27.4019 52.4847 27.4019 52.4847 27.4809 52.5529C27.5436 52.6185 27.5436 52.6185 27.5436 52.7553C27.5737 52.7553 27.6038 52.7553 27.6348 52.7553C27.7588 52.9257 27.8112 53.0999 27.8629 53.3026C27.8328 53.3026 27.8027 53.3026 27.7717 53.3026C27.7513 53.2635 27.7309 53.2244 27.7099 53.1841C27.5323 52.8431 27.5323 52.8431 27.3184 52.5244C27.2244 52.3904 27.2244 52.3904 27.2244 52.208Z" fill="#6D36E2"/>
<path d="M11.2155 32.733C11.2306 32.733 11.2456 32.733 11.2611 32.733C11.2611 32.8233 11.2611 32.9136 11.2611 33.0066C11.3063 33.0217 11.3514 33.0367 11.398 33.0522C11.397 33.0964 11.3961 33.1406 11.3951 33.1862C11.3817 33.3202 11.3817 33.3202 11.4436 33.3715C11.4395 33.4486 11.4324 33.5256 11.4236 33.6024C11.419 33.6443 11.4143 33.6862 11.4095 33.7294C11.4038 33.778 11.4038 33.778 11.398 33.8276C11.3829 33.8276 11.3679 33.8276 11.3523 33.8276C11.3291 33.7136 11.3064 33.5996 11.2839 33.4855C11.2774 33.4538 11.2709 33.422 11.2642 33.3893C11.2209 33.1667 11.2094 32.9598 11.2155 32.733Z" fill="#9D68FB"/>
<path d="M18.4219 26.7126C18.5548 26.8415 18.6785 26.9731 18.7981 27.1145C18.975 27.3195 19.174 27.495 19.3797 27.6704C19.3496 27.7005 19.3195 27.7306 19.2884 27.7616C19.1778 27.6536 19.0678 27.5452 18.9578 27.4366C18.9267 27.4063 18.8956 27.3759 18.8635 27.3447C18.6922 27.175 18.5425 27.0133 18.4219 26.8038C18.4219 26.7737 18.4219 26.7436 18.4219 26.7126Z" fill="#6B39DE"/>
<path d="M23.7125 26.6213C23.6889 26.8085 23.5918 26.893 23.4588 27.0204C23.4022 27.0751 23.4022 27.0751 23.3446 27.1308C23.3155 27.1584 23.2864 27.1859 23.2564 27.2142C23.2263 27.1841 23.1962 27.154 23.1652 27.123C23.2155 27.065 23.2658 27.007 23.3162 26.9491C23.3443 26.9168 23.3723 26.8846 23.4012 26.8513C23.6066 26.6213 23.6066 26.6213 23.7125 26.6213Z" fill="#6939E0"/>
<path d="M12.5838 22.1972C12.6139 22.2123 12.644 22.2273 12.675 22.2428C12.6436 22.2825 12.6123 22.3221 12.58 22.3629C12.5385 22.416 12.497 22.4691 12.4555 22.5222C12.4349 22.5482 12.4143 22.5742 12.393 22.6009C12.2671 22.7628 12.1679 22.9217 12.0821 23.1094C12.052 23.1094 12.0219 23.1094 11.9908 23.1094C12.0504 22.9006 12.1317 22.7498 12.2616 22.5764C12.2931 22.5339 12.3246 22.4913 12.357 22.4475C12.4287 22.3571 12.4997 22.276 12.5838 22.1972Z" fill="#A271FA"/>
<path d="M11.2612 26.2565C11.2762 26.2565 11.2913 26.2565 11.3068 26.2565C11.308 26.3638 11.3089 26.4712 11.3096 26.5786C11.3102 26.6384 11.3107 26.6982 11.3112 26.7598C11.307 26.9305 11.2876 27.0914 11.2612 27.2599C11.2596 27.3358 11.2589 27.4119 11.2612 27.4879C11.2311 27.5029 11.201 27.518 11.17 27.5335C11.1579 27.0942 11.1874 26.6897 11.2612 26.2565Z" fill="#9258FA"/>
<path d="M11.9453 23.1551C11.9961 23.234 11.9961 23.234 12.0365 23.3375C12.0071 23.4339 12.0071 23.4339 11.9538 23.5342C11.8639 23.7172 11.8257 23.8648 11.8085 24.0673C11.7633 24.0823 11.7182 24.0974 11.6716 24.1129C11.6979 23.8782 11.7513 23.6773 11.8341 23.4544C11.8549 23.398 11.8756 23.3416 11.897 23.2835C11.9129 23.2411 11.9289 23.1987 11.9453 23.1551Z" fill="#A16DFA"/>
<path d="M42.7314 22.7446C42.8816 22.7419 43.0317 22.7403 43.1818 22.7389C43.2237 22.7382 43.2656 22.7374 43.3087 22.7366C43.5984 22.7346 43.8637 22.7679 44.1453 22.8358C43.9924 22.9378 43.9671 22.9349 43.7947 22.9099C43.7578 22.9049 43.721 22.8998 43.683 22.8946C43.655 22.8903 43.6269 22.8859 43.598 22.8814C43.598 22.8513 43.598 22.8212 43.598 22.7902C43.312 22.7902 43.0261 22.7902 42.7314 22.7902C42.7314 22.7752 42.7314 22.7601 42.7314 22.7446Z" fill="#966DEC"/>
<path d="M43.1876 17.3172C43.2026 17.3623 43.2177 17.4075 43.2332 17.454C43.0745 17.7081 42.8596 17.8715 42.5946 18.0013C42.5645 17.9712 42.5344 17.9411 42.5034 17.9101C42.5299 17.894 42.5563 17.878 42.5836 17.8614C42.8311 17.705 43.0075 17.548 43.1876 17.3172Z" fill="#7540EC"/>
<path d="M43.6891 15.812C43.7193 15.8271 43.7494 15.8421 43.7804 15.8576C43.7599 16.0723 43.7357 16.2843 43.6949 16.4961C43.6884 16.53 43.6819 16.5639 43.6753 16.5988C43.6648 16.6251 43.6543 16.6514 43.6435 16.6786C43.5984 16.6936 43.5532 16.7087 43.5067 16.7242C43.5669 16.4232 43.6271 16.1222 43.6891 15.812Z" fill="#8352EC"/>
<path d="M15.8222 25.5267C15.8372 25.5267 15.8523 25.5267 15.8678 25.5267C15.9252 25.8342 15.9711 26.1258 15.959 26.4389C15.9289 26.4389 15.8988 26.4389 15.8678 26.4389C15.833 26.242 15.8149 26.0857 15.8678 25.8916C15.8377 25.8916 15.8076 25.8916 15.7766 25.8916C15.7746 25.7852 15.7747 25.6787 15.7766 25.5723C15.7916 25.5573 15.8067 25.5422 15.8222 25.5267Z" fill="#9C69FA"/>
<path d="M48.4325 18.8679C48.5533 18.9264 48.674 18.9854 48.7945 19.0446C48.8289 19.0612 48.8634 19.0779 48.8988 19.095C48.948 19.1193 48.948 19.1193 48.9982 19.144C49.0285 19.1588 49.0588 19.1736 49.0901 19.1889C49.1622 19.2327 49.1622 19.2327 49.2078 19.3239C49.0148 19.2957 48.8647 19.2279 48.6919 19.1387C48.6432 19.1137 48.5944 19.0887 48.5442 19.0629C48.5073 19.0437 48.4705 19.0245 48.4325 19.0047C48.4325 18.9595 48.4325 18.9144 48.4325 18.8679Z" fill="#6B33E9"/>
<path d="M26.1754 26.6213C26.3708 26.6836 26.4687 26.7676 26.6001 26.9235C26.632 26.9607 26.6638 26.998 26.6965 27.0364C26.7202 27.065 26.7439 27.0936 26.7683 27.123C26.7232 27.1907 26.7232 27.1907 26.6771 27.2598C26.6524 27.2252 26.6276 27.1906 26.6021 27.1549C26.5695 27.1096 26.5368 27.0642 26.5032 27.0175C26.471 26.9726 26.4387 26.9276 26.4054 26.8812C26.3329 26.7855 26.2632 26.7025 26.1754 26.6213Z" fill="#6B39E0"/>
<path d="M11.0787 31.1366C11.1088 31.1366 11.1389 31.1366 11.1699 31.1366C11.2261 31.3047 11.2113 31.452 11.1956 31.6269C11.1909 31.6803 11.1863 31.7337 11.1815 31.7887C11.1777 31.8294 11.1739 31.8701 11.1699 31.912C11.1549 31.912 11.1398 31.912 11.1243 31.912C11.0864 31.6511 11.0732 31.4002 11.0787 31.1366Z" fill="#975BF9"/>
<path d="M19.5164 35.0134C19.7051 35.1676 19.8728 35.3174 20.0181 35.5151C19.8813 35.5151 19.8813 35.5151 19.7782 35.4253C19.7416 35.3872 19.7051 35.3491 19.6675 35.3099C19.6307 35.2718 19.5938 35.2337 19.5558 35.1944C19.5278 35.1648 19.4997 35.1352 19.4708 35.1046C19.4859 35.0745 19.5009 35.0444 19.5164 35.0134Z" fill="#8949F6"/>
<path d="M20.2007 26.895C20.3095 26.9386 20.3712 26.9679 20.4359 27.0675C20.4813 27.187 20.4757 27.2596 20.4572 27.3853C20.4522 27.4218 20.4471 27.4582 20.4419 27.4958C20.4376 27.5233 20.4332 27.5508 20.4287 27.5792C20.3317 27.4336 20.3222 27.3367 20.3049 27.166C20.2897 27.0624 20.2561 26.9836 20.2007 26.895Z" fill="#7A4BE0"/>
<path d="M39.1283 10.9774C39.0061 11.0997 38.913 11.0992 38.7435 11.1257C38.6909 11.1344 38.6383 11.1431 38.5841 11.152C38.4442 11.1599 38.4442 11.1599 38.3074 11.0687C38.5878 10.9944 38.8383 10.9682 39.1283 10.9774Z" fill="#8B59F6"/>
<path d="M35.2515 52.8465C35.2816 52.8615 35.3117 52.8766 35.3427 52.8921C34.9815 53.0727 34.9815 53.0727 34.613 53.257C34.5979 53.2269 34.5829 53.1968 34.5674 53.1658C34.6125 53.1658 34.6577 53.1658 34.7042 53.1658C34.7042 53.1357 34.7042 53.1056 34.7042 53.0745C34.7933 53.0352 34.8827 52.9963 34.9722 52.9577C35.0219 52.936 35.0716 52.9143 35.1229 52.8919C35.1653 52.8769 35.2078 52.8619 35.2515 52.8465Z" fill="#6933E1"/>
<path d="M47.5659 17.5451C47.581 17.5451 47.596 17.5451 47.6115 17.5451C47.6266 17.7558 47.6416 17.9666 47.6571 18.1837C47.6722 18.1837 47.6872 18.1837 47.7027 18.1837C47.7027 18.289 47.7027 18.3944 47.7027 18.5029C47.6726 18.5029 47.6425 18.5029 47.6115 18.5029C47.558 18.3958 47.5607 18.3324 47.5614 18.2132C47.5616 18.1744 47.5617 18.1356 47.5619 18.0956C47.5623 18.0551 47.5627 18.0145 47.5631 17.9727C47.5633 17.9318 47.5635 17.8909 47.5637 17.8487C47.5642 17.7475 47.565 17.6463 47.5659 17.5451Z" fill="#E8DDF9"/>
<path d="M31.5116 9.60916C31.5567 9.62421 31.6019 9.63926 31.6484 9.65477C31.5743 9.73271 31.4982 9.80868 31.4203 9.88282C31.3902 9.88282 31.3601 9.88282 31.3291 9.88282C31.299 9.94302 31.2689 10.0032 31.2379 10.0653C31.1927 10.0653 31.1476 10.0653 31.1011 10.0653C31.1438 10.0148 31.1865 9.96448 31.2293 9.91417C31.2532 9.88613 31.277 9.85808 31.3015 9.82919C31.3689 9.75264 31.4386 9.68037 31.5116 9.60916Z" fill="#783DF5"/>
<path d="M34.2482 9.79164C34.408 9.8173 34.4741 9.86698 34.576 9.99118C34.5992 10.0188 34.6224 10.0464 34.6464 10.0749C34.7043 10.1565 34.7043 10.1565 34.7499 10.2933C34.7047 10.3159 34.7047 10.3159 34.6586 10.3389C34.5218 10.1565 34.385 9.97408 34.2482 9.79164Z" fill="#7D42F6"/>
<path d="M28.1822 54.7165C28.2123 54.7165 28.2424 54.7165 28.2734 54.7165C28.2772 54.74 28.2809 54.7635 28.2848 54.7877C28.3337 54.9465 28.4164 55.0755 28.5014 55.2182C28.4188 55.2096 28.4188 55.2096 28.319 55.1726C28.1994 55.0187 28.1656 54.91 28.1822 54.7165Z" fill="#6833DB"/>
<path d="M19.334 31.1366C19.334 31.1667 19.334 31.1968 19.334 31.2279C19.259 31.2934 19.259 31.2934 19.1601 31.3647C19.1117 31.4 19.1117 31.4 19.0623 31.436C18.9864 31.4893 18.9095 31.5413 18.8323 31.5927C18.8323 31.5476 18.8323 31.5024 18.8323 31.4559C18.9189 31.3727 18.9189 31.3727 19.0318 31.2877C19.0689 31.2593 19.1059 31.2309 19.1441 31.2017C19.2428 31.1366 19.2428 31.1366 19.334 31.1366Z" fill="#9763FA"/>
<path d="M17.829 23.0183C17.844 23.0183 17.8591 23.0183 17.8746 23.0183C17.8795 23.099 17.883 23.1798 17.886 23.2606C17.8881 23.3055 17.8902 23.3505 17.8924 23.3969C17.8746 23.52 17.8746 23.52 17.7826 23.6046C17.7528 23.6218 17.7229 23.639 17.6921 23.6568C17.7156 23.4302 17.7484 23.2331 17.829 23.0183Z" fill="#8559EA"/>
<path d="M24.0774 12.4826C24.0924 12.5278 24.1075 12.5729 24.123 12.6195C24.0176 12.7248 23.9122 12.8302 23.8037 12.9387C23.7585 12.9237 23.7134 12.9086 23.6669 12.8931C23.8023 12.7577 23.9378 12.6222 24.0774 12.4826Z" fill="#7841F0"/>
<path d="M41.9104 18.1381C41.9104 18.1682 41.9104 18.1983 41.9104 18.2294C41.6981 18.2676 41.5286 18.2757 41.3175 18.2294C41.3175 18.2143 41.3175 18.1993 41.3175 18.1837C41.5175 18.1517 41.7078 18.1332 41.9104 18.1381Z" fill="#723FE8"/>
<path d="M35.434 13.9877C35.5509 14.163 35.5215 14.2263 35.4853 14.4295C35.476 14.4833 35.4667 14.5371 35.4572 14.5925C35.4495 14.6337 35.4419 14.675 35.434 14.7174C35.4039 14.7174 35.3738 14.7174 35.3428 14.7174C35.3492 14.6129 35.3559 14.5084 35.3627 14.4039C35.3664 14.3456 35.3701 14.2874 35.374 14.2275C35.3884 14.0789 35.3884 14.0789 35.434 13.9877Z" fill="#7B43F3"/>
<path d="M27.9541 53.6219C28.0615 53.7382 28.0902 53.7911 28.0995 53.9525C28.0967 53.9939 28.0938 54.0353 28.0909 54.0779C28.121 54.0779 28.1511 54.0779 28.1821 54.0779C28.1671 54.1532 28.152 54.2285 28.1365 54.306C28.0333 54.2027 28.0233 54.155 27.994 54.0152C27.9864 53.9801 27.9787 53.9449 27.9708 53.9087C27.9541 53.8043 27.9541 53.8043 27.9541 53.6219Z" fill="#642AE1"/>
<path d="M18.5587 31.8207C18.5738 31.8207 18.5888 31.8207 18.6043 31.8207C18.6124 32.0282 18.6042 32.1801 18.5131 32.368C18.483 32.353 18.4529 32.3379 18.4219 32.3224C18.436 32.2559 18.4503 32.1894 18.4646 32.1229C18.4726 32.0859 18.4805 32.0488 18.4887 32.0107C18.5131 31.912 18.5131 31.912 18.5587 31.8207Z" fill="#9B66FB"/>
<path d="M38.3529 31.7751C38.383 31.7751 38.4131 31.7751 38.4441 31.7751C38.4312 31.8483 38.4178 31.9215 38.4042 31.9946C38.3968 32.0354 38.3894 32.0761 38.3817 32.1181C38.3529 32.2312 38.3529 32.2312 38.2617 32.368C38.2077 32.206 38.2299 32.1537 38.2816 31.9946C38.2947 31.9535 38.3078 31.9124 38.3213 31.8701C38.3317 31.8387 38.3422 31.8074 38.3529 31.7751Z" fill="#6943D1"/>
<path d="M15.6853 24.4778C15.7004 24.4778 15.7154 24.4778 15.7309 24.4778C15.7464 24.549 15.7615 24.6203 15.7765 24.6916C15.785 24.7312 15.7935 24.7709 15.8022 24.8118C15.8217 24.931 15.8256 25.0414 15.8221 25.1619C15.777 25.1469 15.7318 25.1318 15.6853 25.1163C15.6853 24.9056 15.6853 24.6949 15.6853 24.4778Z" fill="#A578F9"/>
<path d="M16.2783 30.4525C16.2933 30.4525 16.3084 30.4525 16.3239 30.4525C16.354 30.6783 16.3841 30.904 16.4151 31.1366C16.3699 31.1216 16.3248 31.1065 16.2783 31.091C16.2792 31.0562 16.2802 31.0214 16.2811 30.9856C16.2842 30.8583 16.2842 30.8583 16.2327 30.7262C16.2452 30.6345 16.2601 30.5432 16.2783 30.4525Z" fill="#9156F9"/>
<path d="M39.5845 16.4506C39.6296 16.4958 39.6748 16.5409 39.7213 16.5874C39.5106 16.6025 39.2999 16.6175 39.0828 16.633C39.0828 16.6029 39.0828 16.5728 39.0828 16.5418C39.2546 16.4779 39.4004 16.4257 39.5845 16.4506Z" fill="#7D47ED"/>
<path d="M30.7818 10.567C30.8119 10.5971 30.842 10.6272 30.873 10.6582C30.859 10.7924 30.8423 10.902 30.7818 11.0231C30.7517 11.0231 30.7216 11.0231 30.6906 11.0231C30.7207 10.8726 30.7508 10.7221 30.7818 10.567Z" fill="#814AF5"/>
<path d="M17.2815 34.1924C17.404 34.3149 17.4211 34.4376 17.464 34.6028C17.4339 34.6329 17.4038 34.6631 17.3727 34.6941C17.3486 34.6277 17.3249 34.5612 17.3015 34.4945C17.2883 34.4575 17.275 34.4204 17.2614 34.3823C17.2359 34.2836 17.2359 34.2836 17.2815 34.1924Z" fill="#945DFA"/>
<path d="M32.0588 9.33559C32.0588 9.36569 32.0588 9.39579 32.0588 9.4268C31.9305 9.52657 31.9305 9.52657 31.7851 9.60924C31.74 9.59419 31.6948 9.57914 31.6483 9.56363C31.9279 9.33559 31.9279 9.33559 32.0588 9.33559Z" fill="#844CF5"/>
<path d="M18.4219 33.2346C18.467 33.2496 18.5122 33.2647 18.5587 33.2802C18.5738 33.3856 18.5888 33.4909 18.6043 33.5995C18.5592 33.5995 18.514 33.5995 18.4675 33.5995C18.4524 33.4791 18.4374 33.3586 18.4219 33.2346Z" fill="#9559FA"/>
<path d="M16.4607 31.5016C16.4757 31.5016 16.4908 31.5016 16.5063 31.5016C16.5364 31.6822 16.5665 31.8628 16.5975 32.0489C16.5674 32.0489 16.5373 32.0489 16.5063 32.0489C16.4392 31.8476 16.3982 31.7076 16.4607 31.5016Z" fill="#9866F9"/>
<path d="M25.765 26.3477C26.0729 26.4732 26.0729 26.4732 26.1755 26.5758C25.8676 26.5359 25.8676 26.5359 25.765 26.4846C25.765 26.4394 25.765 26.3943 25.765 26.3477Z" fill="#6C3ADF"/>
<path d="M21.6144 22.7446C21.6445 22.7597 21.6746 22.7747 21.7057 22.7902C21.6448 22.9119 21.584 23.0335 21.5232 23.1551C21.4931 23.1551 21.463 23.1551 21.432 23.1551C21.4803 22.9999 21.5236 22.8808 21.6144 22.7446Z" fill="#7647EA"/>
<path d="M38.6266 16.7698C38.6567 16.7999 38.6868 16.83 38.7179 16.861C38.5174 17.0436 38.5174 17.0436 38.4442 17.089C38.399 17.074 38.3539 17.0589 38.3074 17.0434C38.3375 17.0434 38.3676 17.0434 38.3986 17.0434C38.4108 17.0152 38.423 16.987 38.4356 16.9579C38.4898 16.861 38.4898 16.861 38.6266 16.7698Z" fill="#703CE8"/>
<path d="M28.5471 55.2638C28.6073 55.2638 28.6675 55.2638 28.7296 55.2638C28.7296 55.2939 28.7296 55.324 28.7296 55.355C28.7898 55.355 28.85 55.355 28.912 55.355C28.912 55.3851 28.912 55.4152 28.912 55.4462C28.6497 55.4063 28.6497 55.4063 28.5471 55.355C28.5471 55.3249 28.5471 55.2948 28.5471 55.2638Z" fill="#7246DC"/>
<path d="M11.17 32.1856C11.2152 32.2006 11.2603 32.2157 11.3069 32.2312C11.3069 32.3366 11.3069 32.4419 11.3069 32.5505C11.2617 32.5354 11.2166 32.5204 11.17 32.5049C11.17 32.3995 11.17 32.2941 11.17 32.1856Z" fill="#965CFB"/>
<path d="M29.9152 13.7597C30.0294 13.8937 30.0735 13.9959 30.0977 14.1702C30.0676 14.1702 30.0375 14.1702 30.0065 14.1702C29.9578 14.0651 29.9123 13.9585 29.8696 13.8509C29.8847 13.8208 29.8997 13.7907 29.9152 13.7597Z" fill="#8252EB"/>
<path d="M28.1821 35.7431C28.3627 35.8334 28.3627 35.8334 28.547 35.9256C28.5319 35.9557 28.5169 35.9858 28.5014 36.0168C28.4713 36.0168 28.4412 36.0168 28.4102 36.0168C28.4102 35.9867 28.4102 35.9566 28.4102 35.9256C28.3349 35.9105 28.2597 35.8955 28.1821 35.88C28.1821 35.8348 28.1821 35.7897 28.1821 35.7431Z" fill="#884CF9"/>
<path d="M47.7483 28.4001C47.7483 28.5369 47.7483 28.5369 47.6913 28.611C47.6036 28.68 47.5381 28.7006 47.4291 28.7193C47.5355 28.6129 47.6419 28.5065 47.7483 28.4001Z" fill="#602ED6"/>
<path d="M38.6721 27.8984C38.6871 27.9586 38.7022 28.0188 38.7177 28.0809C38.6424 28.1411 38.5672 28.2013 38.4896 28.2633C38.4896 28.085 38.5583 28.03 38.6721 27.8984Z" fill="#6A3CDA"/>
<path d="M38.9914 24.569C39.0215 24.6141 39.0516 24.6593 39.0826 24.7058C39.0074 24.8111 38.9321 24.9165 38.8546 25.025C38.8395 24.9949 38.8245 24.9648 38.809 24.9338C38.8444 24.8451 38.8444 24.8451 38.8973 24.7457C38.9233 24.6961 38.9233 24.6961 38.9499 24.6456C38.9636 24.6203 38.9773 24.595 38.9914 24.569Z" fill="#E8DEFA"/>
<path d="M40.6334 18.7309C40.6786 18.746 40.7237 18.761 40.7703 18.7765C40.6348 18.8894 40.6348 18.8894 40.4966 19.0046C40.4665 18.9895 40.4364 18.9745 40.4054 18.959C40.4807 18.8837 40.5559 18.8085 40.6334 18.7309Z" fill="#7443EA"/>
<path d="M35.7988 13.0755C35.8459 13.2026 35.8465 13.2519 35.8017 13.3833C35.7857 13.4172 35.7697 13.4511 35.7532 13.486C35.7231 13.4709 35.693 13.4558 35.662 13.4403C35.7475 13.1781 35.7475 13.1781 35.7988 13.0755Z" fill="#7E49F2"/>
</g>
<defs>
<clipPath id="clip0_4386_82457">
<rect width="42.5465" height="46.7314" fill="white" transform="translate(10.7267 8.95398)"/>
</clipPath>
</defs>
</svg>
