<svg width="398" height="94" viewBox="0 0 398 94" fill="none" xmlns="http://www.w3.org/2000/svg">
<g clip-path="url(#clip0_4387_82924)">
<path d="M16.0253 29.447C17.5055 30.595 18.0489 32.6696 18.2923 34.4444C18.3308 34.7527 18.3642 35.0612 18.3937 35.3705C18.413 35.5639 18.4359 35.757 18.4649 35.9492C18.5207 36.3606 18.547 36.7726 18.5752 37.1866C18.5821 37.2827 18.5889 37.3787 18.5959 37.4776C18.6337 38.0127 18.6693 38.5479 18.7021 39.0833C18.9014 42.3267 19.2371 45.5237 20.1852 48.6461C20.2112 48.7333 20.2373 48.8204 20.2642 48.9102C20.4359 49.455 20.6581 49.9656 20.9061 50.4797C20.9979 50.6729 21.0864 50.8674 21.1751 51.062C21.8429 52.5123 22.627 53.876 23.625 55.1259C23.6781 55.1942 23.7312 55.2626 23.7859 55.333C24.1153 55.753 24.463 56.1522 24.8231 56.5461C24.9509 56.688 25.0716 56.8311 25.1899 56.9808C25.3925 57.2145 25.607 57.408 25.8421 57.6079C26.0461 57.784 26.2425 57.9672 26.4399 58.1507C26.9196 58.5869 27.4208 58.9849 27.9448 59.3657C28.0109 59.4139 28.0109 59.4139 28.0783 59.4631C29.2994 60.3426 30.6647 61.0821 32.1046 61.5256C32.2193 61.5652 32.334 61.6049 32.4487 61.6446C32.8177 61.7679 33.1888 61.8572 33.5696 61.9356C33.6362 61.9493 33.7028 61.963 33.7714 61.9772C34.2823 62.0793 34.783 62.1492 35.3045 62.1655C35.3991 62.1697 35.4936 62.1738 35.591 62.178C36.2228 62.1932 36.8289 62.1469 37.4544 62.0555C37.5244 62.0455 37.5943 62.0354 37.6664 62.025C38.0445 61.9793 38.0445 61.9793 38.3444 61.7656C38.3999 61.5736 38.3999 61.5736 38.3444 61.3656C38.1762 61.2263 38.0274 61.1271 37.8394 61.0206C37.7553 60.9705 37.7553 60.9705 37.6695 60.9194C37.5411 60.8432 37.4123 60.7676 37.2832 60.6927C37.0452 60.5545 36.8084 60.4144 36.5716 60.2741C36.1624 60.0315 36.1624 60.0315 35.753 59.7892C34.0242 58.7665 32.337 57.6937 30.6709 56.5723C30.3107 56.33 29.9494 56.0893 29.5872 55.8499C28.6224 55.2118 27.6639 54.5678 26.7354 53.8774C26.5939 53.7726 26.4513 53.6694 26.3083 53.5665C24.8116 52.4731 23.1676 50.8329 22.776 48.9593C22.6343 47.8915 22.6821 46.8225 23.3319 45.9263C23.7592 45.4127 24.2741 45.0966 24.9049 44.8863C26.429 44.7808 27.3579 45.283 28.5191 46.1913C28.8439 46.444 29.1769 46.6691 29.5266 46.8853C29.7932 47.0515 30.0561 47.2226 30.3189 47.3948C31.9665 48.4731 33.6436 49.4954 35.3459 50.4841C35.606 50.6352 35.8658 50.787 36.1254 50.9389C36.7648 51.3128 37.4044 51.6863 38.0472 52.0544C39.3325 52.7911 40.6018 53.5508 41.8642 54.3259C41.9642 54.387 41.9642 54.387 42.0661 54.4494C43.8592 55.5466 45.5613 56.7806 47.144 58.1657C47.2051 58.2189 47.2663 58.2721 47.3293 58.327C47.4341 58.4185 47.5387 58.5103 47.643 58.6026C47.7366 58.6844 47.8314 58.7648 47.9274 58.8438C48.2376 59.0999 48.499 59.3744 48.7592 59.681C48.9041 59.8459 49.0562 59.9979 49.2139 60.1506C49.5551 60.4886 49.8569 60.8512 50.1547 61.2277C50.2327 61.3262 50.311 61.4245 50.3896 61.5226C51.0912 62.3994 51.7406 63.2982 52.3437 64.2455C52.3745 64.2933 52.4052 64.341 52.4369 64.3903C53.3472 65.8151 54.1635 67.3719 54.7436 68.9602C54.8719 69.3086 55.0025 69.6539 55.1486 69.9952C55.3682 70.5363 55.504 71.1055 55.655 71.6686C55.7248 71.9222 55.8023 72.1734 55.8786 72.4251C56.0111 72.886 56.089 73.3409 56.1492 73.8163C56.1809 74.0642 56.2203 74.3089 56.2636 74.555C56.2906 74.7183 56.3172 74.8816 56.3436 75.045C56.3573 75.1301 56.371 75.2152 56.3851 75.3029C56.5161 76.2186 56.536 77.1281 56.5376 78.0523C56.5386 78.3161 56.5425 78.5798 56.5465 78.8436C56.5473 79.0138 56.5479 79.184 56.5482 79.3542C56.5498 79.4318 56.5514 79.5094 56.553 79.5893C56.5489 80.2116 56.3817 80.7345 55.9605 81.2043C55.5136 81.631 54.9607 81.9281 54.4286 82.2347C54.3788 82.2636 54.329 82.2926 54.2776 82.3225C51.986 83.6531 49.5841 84.8601 47.1465 85.8992C46.946 85.9862 46.7526 86.0785 46.559 86.1795C46.2519 86.3381 45.9318 86.45 45.6062 86.5648C45.4015 86.6382 45.2004 86.7171 44.9991 86.7995C44.583 86.9682 44.1603 87.1164 43.7369 87.2657C43.4337 87.3755 43.1358 87.4951 42.8388 87.6207C42.1997 87.8539 41.3206 87.9045 40.6693 87.6854C40.1989 87.4033 39.9406 87.0038 39.7843 86.4845C39.7466 86.2285 39.7182 85.9732 39.6938 85.7156C39.5038 83.9412 38.4163 82.4635 37.2244 81.2047C37.1638 81.1398 37.1031 81.075 37.0407 81.0082C36.1235 80.0565 35.0295 79.3109 33.9445 78.5648C33.8963 78.5316 33.848 78.4983 33.7982 78.4641C32.5446 77.6049 31.245 76.8108 29.9397 76.0331C26.8492 74.1908 23.8475 72.2576 21.201 69.8036C21.0251 69.642 20.847 69.4851 20.6651 69.3302C20.0593 68.8041 19.4906 68.2247 18.9711 67.6134C18.824 67.4439 18.6715 67.2799 18.518 67.1161C17.9977 66.5588 17.5254 65.9729 17.0653 65.3654C17.0216 65.3081 16.978 65.2509 16.933 65.1919C13.4873 60.6566 11.4755 55.4132 10.4368 49.8488C10.4272 49.7971 10.4175 49.7454 10.4075 49.6921C10.3978 49.6398 10.388 49.5876 10.378 49.5337C10.3549 49.4141 10.3306 49.2947 10.3055 49.1755C10.2086 48.7134 10.1432 48.2565 10.1 47.7865C10.0931 47.7136 10.0862 47.6406 10.0791 47.5655C10.0571 47.3274 10.0361 47.0894 10.0156 46.8512C10.0085 46.7687 10.0014 46.6861 9.99402 46.6011C9.84677 44.8534 9.81848 43.119 9.86561 41.3665C9.86735 41.2984 9.86908 41.2304 9.87087 41.1603C9.95391 38.0065 10.2446 34.7657 11.2256 31.7519C11.2502 31.6759 11.2748 31.5999 11.3002 31.5216C11.6615 30.4757 12.2329 29.6156 13.1989 29.0573C14.1574 28.5933 15.1888 28.889 16.0253 29.447Z" fill="white"/>
<path d="M61.6234 10.0879C61.6947 10.1101 61.7661 10.1322 61.8396 10.1551C63.3173 10.6723 64.6115 11.8707 65.3003 13.2584C65.8878 14.5025 66.2151 15.9711 65.781 17.3157C65.7553 17.3856 65.7297 17.4555 65.7032 17.5276C65.675 17.6074 65.6469 17.6872 65.6179 17.7694C65.3096 18.5774 64.8215 19.1912 64.1833 19.7675C64.1417 19.8054 64.1001 19.8434 64.0573 19.8825C63.4518 20.3751 62.6182 20.4631 61.8612 20.4468C61.5392 20.3935 61.3686 20.2613 61.1271 20.0503C60.6382 19.6325 60.0463 19.6456 59.4285 19.6597C59.0537 19.6962 58.8038 19.7843 58.5035 20.0075C58.4536 20.0442 58.4037 20.0809 58.3523 20.1187C57.8128 20.5493 57.509 21.0473 57.4304 21.7393C57.4249 21.8376 57.4193 21.936 57.4136 22.0374C57.4076 22.137 57.4016 22.2366 57.3954 22.3392C57.3915 22.4145 57.3876 22.4898 57.3836 22.5673C57.4364 22.5673 57.4892 22.5673 57.5436 22.5673C57.5832 22.7035 57.5832 22.7035 57.6236 22.8423C57.8299 23.3851 58.2275 23.8515 58.7385 24.1323C59.3508 24.3619 60.1254 24.3558 60.7494 24.1767C61.2964 23.9236 61.7031 23.535 62.0284 23.0323C62.2481 22.7134 62.4791 22.5353 62.8519 22.4383C63.0718 22.3983 63.292 22.3645 63.5133 22.3324C64.7092 22.1341 65.6068 21.8049 66.3632 20.8124C67.0699 19.673 67.239 18.0725 67.2706 16.7617C67.3167 16.3735 67.4836 16.0973 67.7831 15.8476C68.857 15.4897 70.0686 15.8992 71.038 16.3726C72.4706 17.2171 73.3834 18.6264 73.835 20.2034C73.9787 20.7965 73.9694 21.3809 73.9578 21.9874C73.9566 22.0986 73.9555 22.2099 73.9546 22.3211C73.9518 22.5899 73.9478 22.8586 73.9428 23.1273C74.0492 23.1509 74.0492 23.1509 74.1577 23.1749C74.2509 23.1959 74.3442 23.2169 74.4403 23.2386C74.5327 23.2592 74.625 23.2799 74.7201 23.3011C75.0733 23.3901 75.38 23.5214 75.7028 23.6873C75.8223 23.7465 75.8223 23.7465 75.9443 23.807C78.1601 24.9451 79.6284 26.787 80.4075 29.1321C80.9904 31.2945 80.6453 33.4795 79.6226 35.4468C79.5168 35.6181 79.4084 35.7862 79.2943 35.9522C79.2014 36.0949 79.2014 36.0949 79.2526 36.3117C79.3257 36.4551 79.3989 36.5984 79.4726 36.7414C80.2303 38.2971 80.396 40.273 79.8626 41.9265C79.5123 42.9188 79.0196 43.7643 78.3426 44.5664C78.2816 44.6472 78.2205 44.7281 78.1576 44.8114C77.0847 45.9841 75.6416 46.5844 74.1828 47.1263C74.1776 47.1705 74.1725 47.2146 74.1671 47.2602C73.9282 49.2408 73.4344 51.0568 71.8084 52.3533C70.7521 53.1326 69.6747 53.518 68.3612 53.54C68.3056 53.541 68.2499 53.542 68.1926 53.543C67.9602 53.5468 67.7279 53.5506 67.4954 53.5521C67.324 53.5533 67.1527 53.5565 66.9813 53.56C66.8292 53.5618 66.8292 53.5618 66.674 53.5636C66.4226 53.5842 66.4226 53.5842 66.2701 53.7353C66.155 53.9877 66.1537 54.1858 66.1535 54.4631C66.1521 54.5704 66.1507 54.6776 66.1493 54.7848C66.1485 54.9517 66.1482 55.1186 66.1483 55.2855C66.1461 56.5061 65.9019 57.6196 65.0482 58.5408C64.026 59.4935 62.5301 60.0819 61.1384 60.1107C61.0434 60.1137 60.9485 60.1167 60.8506 60.1198C60.5326 60.0792 60.406 59.9923 60.1834 59.7657C60.0978 59.5088 60.093 59.324 60.0922 59.0538C60.0918 58.9553 60.0913 58.8567 60.0908 58.7552C60.0907 58.6457 60.0906 58.5363 60.0906 58.4269C60.0902 58.3118 60.0898 58.1966 60.0893 58.0815C60.0883 57.7684 60.0878 57.4553 60.0874 57.1423C60.0872 56.9464 60.0869 56.7505 60.0865 56.5546C60.0854 55.941 60.0846 55.3274 60.0843 54.7138C60.084 54.007 60.0826 53.3002 60.0803 52.5934C60.0785 52.0462 60.0777 51.4991 60.0776 50.952C60.0775 50.6257 60.0771 50.2994 60.0756 49.973C60.0743 49.6654 60.0741 49.3578 60.0748 49.0502C60.0749 48.938 60.0746 48.8257 60.0738 48.7135C60.0675 47.7781 60.192 46.9311 60.6284 46.0963C60.6559 46.0427 60.6834 45.989 60.7117 45.9337C61.0154 45.359 61.3883 44.841 61.7834 44.3264C61.8468 44.2438 61.9102 44.1612 61.9755 44.0761C62.0722 43.9509 62.1689 43.8257 62.2661 43.7009C62.558 43.3245 62.8359 42.9386 63.1133 42.5515C64.9489 40.0015 64.9489 40.0015 66.3432 39.7666C66.4702 39.7579 66.5975 39.7524 66.7248 39.7499C66.7983 39.7483 66.8717 39.7468 66.9474 39.7452C67.2812 39.7406 67.6151 39.7367 67.949 39.7342C68.1248 39.7325 68.3006 39.7297 68.4764 39.726C68.7309 39.7206 68.9853 39.7184 69.2399 39.7169C69.3571 39.7136 69.3571 39.7136 69.4766 39.7102C69.9546 39.7116 70.2122 39.7852 70.5567 40.1233C70.663 40.2466 70.663 40.2466 70.808 40.4516C71.1554 40.8387 71.5596 41.0187 72.0739 41.0828C72.8214 41.1039 73.365 40.9735 74.0028 40.5966C74.5882 39.9786 74.7722 39.3672 74.7653 38.5338C74.7255 38.026 74.5583 37.683 74.2278 37.3017C74.1602 37.244 74.0925 37.1862 74.0228 37.1267C73.9601 37.0706 73.8974 37.0145 73.8328 36.9567C73.3817 36.6345 72.9789 36.5235 72.4279 36.5317C72.3716 36.5323 72.3153 36.5328 72.2573 36.5334C71.8139 36.5471 71.4964 36.621 71.143 36.8867C71.0981 36.9194 71.0532 36.9521 71.007 36.9858C70.824 37.1289 70.6746 37.2698 70.543 37.4617C70.3637 37.6783 70.2185 37.6989 69.943 37.7667C69.6224 37.788 69.3027 37.785 68.9815 37.7829C68.7887 37.7838 68.596 37.7847 68.4032 37.7857C68.1019 37.7866 67.8006 37.7867 67.4992 37.7851C65.6423 37.7775 64.3324 37.9951 62.9624 39.2988C62.4052 39.8866 62.0041 40.6035 61.5853 41.2921C61.0722 42.1319 60.5045 42.8691 59.8335 43.5914C57.9802 45.5914 57.5613 47.4523 57.5721 50.1193C57.573 50.445 57.5714 50.7707 57.5701 51.0964C57.5679 51.7117 57.5676 52.327 57.5682 52.9423C57.569 54.0453 57.5671 55.1483 57.5639 56.2513C57.5628 56.6376 57.5627 57.0238 57.5634 57.41C57.5637 57.6503 57.5633 57.8906 57.5628 58.1309C57.5628 58.2417 57.5629 58.3524 57.5634 58.4632C57.5674 59.4005 57.5509 60.0922 56.8655 60.7863C56.2041 61.3739 55.5644 61.4432 54.7046 61.4041C54.2499 61.3669 53.91 61.2386 53.5437 60.9657C53.4858 60.9241 53.4278 60.8825 53.3681 60.8397C52.8851 60.4574 52.5532 59.9722 52.4238 59.3657C52.416 59.1274 52.4126 58.8911 52.413 58.6528C52.4128 58.543 52.4128 58.543 52.4125 58.431C52.4119 58.1839 52.412 57.9369 52.412 57.6898C52.4117 57.5116 52.4114 57.3334 52.4111 57.1552C52.4103 56.664 52.41 56.1729 52.4098 55.6817C52.4095 55.2068 52.4089 54.732 52.4082 54.2571C52.4066 52.9844 52.4057 51.7116 52.405 50.4389C52.4047 49.8367 52.4043 49.2344 52.4039 48.6322C52.4024 46.5702 52.4012 44.5082 52.4006 42.4462C52.4006 42.3167 52.4006 42.1872 52.4005 42.0578C52.4005 41.9936 52.4005 41.9294 52.4005 41.8632C52.4004 41.5379 52.4003 41.2126 52.4002 40.8873C52.4002 40.8228 52.4001 40.7582 52.4001 40.6917C52.3995 38.5998 52.3976 36.508 52.395 34.4161C52.3923 32.204 52.3907 29.9919 52.3904 27.7798C52.3904 27.5368 52.3903 27.2938 52.3903 27.0507C52.3903 26.9909 52.3903 26.9311 52.3903 26.8694C52.3901 25.9078 52.3888 24.9461 52.3872 23.9845C52.3856 23.017 52.3851 22.0496 52.3859 21.0821C52.3863 20.5583 52.3861 20.0346 52.3846 19.5108C52.3831 19.0307 52.3832 18.5506 52.3845 18.0706C52.3847 17.8974 52.3843 17.7243 52.3834 17.5512C52.372 15.3441 52.9764 13.4226 54.5346 11.8169C55.3535 10.998 56.2829 10.3882 57.3836 10.0079C57.4574 9.98233 57.5312 9.95675 57.6073 9.9304C58.8977 9.56172 60.3627 9.66323 61.6234 10.0879Z" fill="white"/>
<path d="M80.9976 47.0012C81.0707 47.0001 81.1439 46.9989 81.2192 46.9977C82.0275 47.0099 82.6448 47.2802 83.2294 47.8337C83.9729 48.6713 83.8437 49.8404 83.7825 50.8861C83.7251 51.3786 83.6019 51.8512 83.4625 52.326C83.4374 52.4135 83.4374 52.4135 83.4118 52.5027C83.2806 52.9546 83.1342 53.4006 82.9825 53.8459C82.9568 53.9217 82.9312 53.9976 82.9047 54.0757C81.3491 58.6292 78.8964 62.9687 75.7828 66.6454C75.7124 66.7297 75.642 66.8141 75.5716 66.8985C75.159 67.3916 74.7376 67.8741 74.3016 68.3469C74.1478 68.516 73.9978 68.687 73.8486 68.8602C73.5559 69.195 73.2482 69.5116 72.9333 69.8255C72.8488 69.9101 72.8488 69.9101 72.7627 69.9963C72.6446 70.1145 72.5263 70.2327 72.408 70.3507C72.2285 70.5297 72.0494 70.7092 71.8703 70.8888C71.7547 71.0044 71.639 71.1199 71.5233 71.2355C71.4706 71.2883 71.418 71.3412 71.3637 71.3956C71.0529 71.7048 70.7335 71.9996 70.4014 72.2858C70.2239 72.4389 70.0511 72.5969 69.8781 72.7551C69.4582 73.1336 69.0227 73.4898 68.5831 73.8451C68.4847 73.9259 68.3862 74.0069 68.2878 74.0879C67.5485 74.6952 66.7962 75.281 66.0233 75.845C65.9721 75.8823 65.921 75.9197 65.8683 75.9582C64.3561 77.0569 62.7799 78.0777 61.1652 79.0188C60.9829 79.1252 60.8015 79.2329 60.6201 79.3408C60.5063 79.4072 60.3924 79.4736 60.2785 79.5398C60.2032 79.5848 60.2032 79.5848 60.1263 79.6307C59.8006 79.8169 59.5202 79.9162 59.1436 79.9248C59.0089 79.83 59.0089 79.83 58.9036 79.6848C58.8758 79.5034 58.8758 79.5034 58.8789 79.2879C58.8794 79.2068 58.8799 79.1257 58.8805 79.0422C58.8822 78.954 58.884 78.8657 58.8858 78.7748C58.8865 78.6826 58.8872 78.5904 58.8879 78.4955C58.8903 78.1986 58.8943 77.9018 58.8986 77.6049C58.9254 75.6041 58.8713 73.6337 58.5186 71.6602C58.4972 71.5368 58.4759 71.4134 58.4545 71.29C58.1926 69.7926 57.8485 68.3333 57.3836 66.8854C57.3633 66.8217 57.343 66.7581 57.3221 66.6925C57.2216 66.3836 57.1167 66.0903 56.9687 65.8004C56.8075 65.4431 56.7641 65.1956 56.8237 64.8055C57.1054 64.5205 57.3069 64.4444 57.7027 64.4277C57.8431 64.4202 57.8431 64.4202 57.9863 64.4127C58.1359 64.4066 58.1359 64.4066 58.2886 64.4005C58.4981 64.389 58.7076 64.3771 58.917 64.3649C59.022 64.3587 59.127 64.3526 59.2352 64.3463C59.6899 64.3156 60.1413 64.2667 60.5935 64.2105C60.6686 64.2017 60.7437 64.1928 60.8211 64.1837C61.265 64.1268 61.6843 64.0331 62.114 63.9086C62.3541 63.8426 62.5947 63.7915 62.8384 63.7405C63.4705 63.5965 64.0633 63.366 64.6633 63.1255C64.7211 63.1026 64.7788 63.0796 64.8383 63.0559C67.0462 62.1744 69.0345 60.9857 70.7937 59.3773C70.9606 59.2261 71.1308 59.0807 71.303 58.9357C73.8104 56.7399 75.4801 53.4513 76.8162 50.4733C77.4259 49.1195 78.119 47.8596 79.5227 47.2062C80.0121 47.0345 80.4808 47.0071 80.9976 47.0012Z" fill="#A381FB"/>
<path d="M50.8232 7.65481C51.4793 8.25261 51.9289 9.10868 51.9706 9.99627C51.989 11.081 51.8925 11.9943 51.2238 12.8877C51.1845 12.941 51.1452 12.9943 51.1047 13.0493C50.6289 13.6433 50.0234 14.0163 49.3039 14.2476C49.3046 14.3009 49.3053 14.3542 49.306 14.4091C49.3132 14.9698 49.318 15.5306 49.3215 16.0913C49.3231 16.2999 49.3252 16.5084 49.328 16.7169C49.3569 18.9309 49.0395 20.9291 47.4408 22.5998C46.878 23.1383 46.2865 23.5393 45.5891 23.8772C45.5367 23.903 45.4843 23.9287 45.4303 23.9552C44.609 24.3322 43.7479 24.4428 42.8526 24.4481C42.7617 24.4496 42.6709 24.451 42.5773 24.4525C42.2913 24.4568 42.0053 24.4595 41.7192 24.4622C41.5236 24.4649 41.3279 24.4676 41.1322 24.4705C40.6563 24.4772 40.1803 24.4827 39.7043 24.4872C39.6885 24.5366 39.6727 24.586 39.6565 24.6369C39.6249 24.7341 39.6249 24.7341 39.5926 24.8333C39.5719 24.8975 39.5511 24.9617 39.5298 25.0279C39.2677 25.7458 38.5816 26.2722 37.9444 26.6471C36.9274 27.1137 35.8319 27.2097 34.7664 26.8433C33.6765 26.3595 32.9648 25.5819 32.5046 24.4872C32.2048 23.6591 32.2209 22.5713 32.5846 21.7673C33.0962 20.7565 33.8444 19.949 34.9289 19.5512C35.3037 19.4341 35.6536 19.4073 36.0445 19.4124C36.1105 19.4131 36.1764 19.4137 36.2444 19.4144C37.1765 19.4399 37.8984 19.6897 38.5844 20.3274C38.6403 20.377 38.6961 20.4266 38.7537 20.4777C39.2511 20.9422 39.5637 21.4829 39.8643 22.0873C40.3866 22.0934 40.9088 22.0976 41.4311 22.1005C41.6086 22.1017 41.786 22.1033 41.9634 22.1054C42.2194 22.1083 42.4754 22.1097 42.7314 22.1107C42.8099 22.112 42.8884 22.1132 42.9693 22.1145C44.0456 22.1148 45.0895 21.6384 45.8669 20.8977C46.3257 20.4005 46.6093 19.8455 46.824 19.2074C46.8511 19.1318 46.8783 19.0562 46.9062 18.9782C47.0303 18.5381 47.0126 18.0842 47.0171 17.6303C47.0187 17.5334 47.0202 17.4366 47.0218 17.3368C47.0266 17.0287 47.0303 16.7206 47.034 16.4126C47.037 16.2031 47.0402 15.9937 47.0434 15.7843C47.051 15.2721 47.0578 14.7599 47.064 14.2476C47.0015 14.2359 46.9389 14.2241 46.8745 14.212C46.1265 14.0544 45.4427 13.4493 44.9981 12.8515C44.3418 11.8 44.105 10.7841 44.3541 9.55786C44.6347 8.48344 45.2606 7.67478 46.204 7.08796C47.7383 6.23825 49.4957 6.59806 50.8232 7.65481Z" fill="white"/>
<path d="M40.9043 12.0877C41.1852 12.3142 41.4453 12.5566 41.7042 12.8077C41.7867 12.8799 41.7867 12.8799 41.8708 12.9536C42.9403 13.9261 43.6241 15.555 43.7217 16.9846C43.7312 17.264 43.7338 17.5428 43.7341 17.8224C43.7361 17.9171 43.7381 18.0119 43.7401 18.1094C43.7419 18.654 43.7164 19.0081 43.3842 19.4474C43.0796 19.725 42.7688 19.7236 42.3736 19.7102C42.0228 19.6679 41.8514 19.519 41.616 19.268C41.4387 19.0102 41.4254 18.8818 41.4268 18.5724C41.4254 18.436 41.4254 18.436 41.424 18.2969C41.4241 18.1536 41.4241 18.1536 41.4243 18.0074C41.4097 17.2326 41.3936 16.5601 41.0643 15.8475C41.0304 15.7721 40.9966 15.6968 40.9618 15.6191C40.395 14.4777 39.4997 13.7559 38.305 13.3458C37.2128 13.0293 35.9869 13.1171 34.9849 13.6567C34.7639 13.7919 34.554 13.9353 34.3446 14.0876C34.2685 14.1388 34.2685 14.1388 34.1908 14.191C33.2674 14.8794 32.8656 16.0598 32.6646 17.1425C32.4824 18.1052 32.0264 18.855 31.2241 19.4242C31.1715 19.4583 31.1189 19.4923 31.0647 19.5274C31.0045 19.5683 30.9443 19.6092 30.8822 19.6514C30.6212 19.7905 30.3611 19.8506 30.0748 19.9123C28.5934 20.264 27.4127 20.8417 26.5696 22.1519C26.2262 22.758 26.0164 23.3258 26.0123 24.0233C26.0111 24.1739 26.0111 24.1739 26.0098 24.3276C26.0094 24.4078 26.0094 24.4078 26.009 24.4896C26.008 24.6578 26.0065 24.826 26.0047 24.9943C25.9998 25.4725 25.9955 25.9506 25.9928 26.4288C25.9911 26.7218 25.9883 27.0147 25.9848 27.3076C25.9836 27.4187 25.9829 27.5298 25.9827 27.6409C25.9806 28.4505 25.9567 29.0767 25.365 29.6819C24.3965 30.7102 23.7162 31.7699 23.66 33.2268C23.71 34.7757 24.3702 36.0445 25.465 37.1266C25.6738 37.3165 25.8843 37.5033 26.0996 37.6859C26.3109 37.8912 26.4161 38.0422 26.4371 38.3384C26.3917 38.8087 26.284 39.0354 25.9449 39.3665C25.5825 39.6081 25.249 39.598 24.825 39.5265C24.5404 39.3849 24.3322 39.1866 24.105 38.9665C24.0282 38.8958 23.9514 38.825 23.8722 38.7521C23.2976 38.2114 22.8427 37.6362 22.4251 36.9666C22.3573 36.8582 22.3573 36.8582 22.2882 36.7475C21.4035 35.2318 21.2212 33.3319 21.5601 31.6218C21.8748 30.4285 22.4639 29.4685 23.3144 28.5795C23.5777 28.2779 23.6449 28.0567 23.6442 27.6575C23.6446 27.5283 23.6446 27.5283 23.6451 27.3966C23.6448 27.3035 23.6444 27.2104 23.6441 27.1145C23.6453 26.9151 23.6466 26.7156 23.648 26.5161C23.6493 26.2036 23.65 25.891 23.6495 25.5785C23.648 23.5077 23.8452 21.792 25.225 20.1673C25.2684 20.1133 25.3118 20.0593 25.3565 20.0036C26.4305 18.7057 27.9953 17.9935 29.6095 17.6381C29.9583 17.4869 30.1484 17.2911 30.3447 16.9675C30.4414 16.7138 30.4967 16.4583 30.5497 16.1925C30.9568 14.3961 31.9409 12.8408 33.5241 11.8395C35.8451 10.4522 38.6765 10.5523 40.9043 12.0877Z" fill="white"/>
<path d="M36.4245 37.0467C37.0876 37.5476 37.6766 38.1633 37.9444 38.9666C38.0101 38.967 38.0757 38.9675 38.1434 38.968C38.767 38.9727 39.3906 38.9784 40.0141 38.9854C40.3346 38.989 40.6551 38.9921 40.9755 38.9943C41.2857 38.9964 41.5959 38.9996 41.9061 39.0036C42.0235 39.0049 42.1409 39.0059 42.2583 39.0064C43.2879 39.0113 44.2875 39.0987 45.1991 39.6165C45.2561 39.648 45.3131 39.6795 45.3719 39.7119C46.7709 40.506 47.6568 41.6742 48.1433 43.2014C48.2672 43.7046 48.27 44.1812 48.2639 44.696C48.2638 44.8632 48.264 45.0305 48.2642 45.1977C48.2646 45.4599 48.2639 45.7218 48.2598 45.9839C48.2562 46.238 48.2572 46.4918 48.2589 46.7459C48.2556 46.8627 48.2556 46.8627 48.2522 46.9818C48.2581 47.3186 48.2665 47.5238 48.5032 47.7756C48.6936 47.9262 48.6936 47.9262 48.8908 48.0506C49.1225 48.2053 49.2439 48.3879 49.3839 48.6262C49.4284 48.7 49.473 48.7738 49.5189 48.8499C49.8356 49.4419 49.8111 50.3365 49.6342 50.9792C49.3099 51.666 48.8027 52.1234 48.1039 52.406C47.8024 52.5065 47.5182 52.5038 47.204 52.506C47.1154 52.5085 47.1154 52.5085 47.0249 52.511C46.337 52.5158 45.8029 52.2345 45.3041 51.766C44.7186 51.0332 44.5878 50.3697 44.644 49.4493C44.6896 49.079 44.8542 48.7876 45.0641 48.4862C45.1383 48.3748 45.1383 48.3748 45.2141 48.2612C45.3841 48.0862 45.3841 48.0862 45.5207 48.0106C45.7571 47.8782 45.9161 47.7792 45.9962 47.5123C46.0156 47.2935 46.0175 47.0809 46.0128 46.8612C46.0129 46.7808 46.0131 46.7004 46.0133 46.6175C46.0129 46.4473 46.0112 46.277 46.0083 46.1068C46.0041 45.8493 46.005 45.5922 46.0065 45.3347C46.0037 44.1269 45.9063 43.1625 45.0203 42.2589C44.1251 41.472 43.1946 41.3291 42.0345 41.3402C41.9215 41.3405 41.8084 41.3406 41.6953 41.3407C41.4601 41.341 41.2248 41.3422 40.9896 41.344C40.6881 41.3462 40.3867 41.3471 40.0853 41.3475C39.8525 41.3478 39.6198 41.3486 39.3871 41.3495C39.2759 41.35 39.1647 41.3504 39.0535 41.3507C38.8986 41.3512 38.7438 41.3524 38.5889 41.3536C38.5009 41.3541 38.4129 41.3547 38.3222 41.3552C38.0968 41.3571 38.0968 41.3571 37.8644 41.4465C37.7997 41.5932 37.7997 41.5932 37.7594 41.7715C37.4984 42.6309 36.7863 43.2546 36.0245 43.6864C35.1894 44.1095 34.2335 44.2783 33.3177 43.9979C32.0956 43.4928 31.2837 42.8943 30.7481 41.6605C30.7206 41.5899 30.6931 41.5192 30.6647 41.4465C30.6353 41.3719 30.6059 41.2974 30.5757 41.2205C30.2881 40.1908 30.5382 39.1386 31.0447 38.2266C31.5561 37.4315 32.3093 36.7825 33.244 36.5539C34.3821 36.3271 35.4582 36.3633 36.4245 37.0467Z" fill="white"/>
<path d="M47.844 28.8221C48.6785 29.3888 49.3241 30.2625 49.524 31.2679C49.6577 32.465 49.4063 33.5176 48.7021 34.4962C48.3536 34.9298 47.9513 35.1873 47.4641 35.4468C47.3849 35.493 47.3057 35.5392 47.2241 35.5868C46.2692 35.9846 45.2349 35.9154 44.2642 35.6068C43.105 35.0471 42.4864 34.1401 42.0243 32.9669C40.863 32.9575 39.7018 32.9505 38.5405 32.9462C38.0012 32.9441 37.462 32.9413 36.9228 32.9367C36.4026 32.9323 35.8824 32.93 35.3621 32.9289C35.1635 32.9282 34.9649 32.9268 34.7663 32.9246C34.4883 32.9217 34.2105 32.9213 33.9326 32.9215C33.8502 32.92 33.7679 32.9186 33.683 32.9171C33.2144 32.9193 33.2144 32.9193 32.8191 33.1592C32.7682 33.2278 32.7172 33.2963 32.6647 33.3669C32.5959 33.4499 32.5959 33.4499 32.5257 33.5347C32.4841 33.5865 32.4425 33.6384 32.3997 33.6919C31.9963 34.1565 31.5017 34.3589 30.9048 34.4868C30.0552 34.5416 29.4102 34.3404 28.7518 33.8015C28.2678 33.3578 27.9897 32.7861 27.9259 32.1313C27.9043 31.352 28.0953 30.8184 28.5999 30.222C29.1351 29.6603 29.6939 29.3617 30.4698 29.342C31.4287 29.356 32.0045 29.7382 32.6647 30.407C32.7001 30.4495 32.7354 30.492 32.7718 30.5357C32.9479 30.6832 33.0503 30.677 33.2782 30.6769C33.3549 30.6775 33.4316 30.678 33.5106 30.6786C33.5947 30.678 33.6787 30.6774 33.7653 30.6768C33.8539 30.6771 33.9425 30.6774 34.0338 30.6777C34.3274 30.6783 34.621 30.6772 34.9146 30.6761C35.1182 30.676 35.3217 30.6761 35.5252 30.6762C35.9521 30.6762 36.379 30.6754 36.8059 30.6739C37.2996 30.6722 37.7932 30.6719 38.2868 30.6724C38.7616 30.6729 39.2363 30.6724 39.7111 30.6715C39.9132 30.6712 40.1153 30.6711 40.3173 30.6712C40.5995 30.6713 40.8816 30.6703 41.1637 30.669C41.2477 30.6692 41.3318 30.6694 41.4184 30.6696C41.4951 30.669 41.5718 30.6684 41.6508 30.6678C41.7176 30.6677 41.7843 30.6675 41.853 30.6673C42.0481 30.6573 42.0481 30.6573 42.2643 30.487C42.3654 30.3289 42.3654 30.3289 42.4543 30.147C42.9344 29.2616 43.7117 28.6609 44.6642 28.3271C45.7536 28.0208 46.8908 28.2613 47.844 28.8221Z" fill="white"/>
<path d="M72.5328 27.917C72.7984 28.1303 72.9771 28.3463 73.1428 28.647C73.189 28.7279 73.2352 28.8087 73.2828 28.892C73.473 29.3649 73.4669 29.9477 73.3303 30.4338C73.0423 31.062 72.5637 31.554 71.9429 31.8469C71.4134 32.0183 70.7074 32.04 70.1889 31.8337C69.9914 31.714 69.8071 31.5862 69.623 31.4469C68.307 30.5358 66.6707 30.2653 65.1035 30.5419C63.3915 30.9068 62.223 31.9441 61.2864 33.3723C61.1846 33.53 61.0837 33.6882 60.9833 33.8468C60.9514 33.897 60.9195 33.9472 60.8866 33.9989C60.2487 35.0095 59.761 36.0128 59.4284 37.1616C59.1171 38.2319 58.7085 39.5467 57.7138 40.1821C57.3493 40.3199 56.9643 40.3038 56.5835 40.2465C56.3472 40.123 56.1917 39.9715 56.0236 39.7665C55.9468 39.6774 55.9468 39.6774 55.8686 39.5865C55.7191 39.1998 55.7016 38.7871 55.8473 38.395C55.9019 38.2886 55.9592 38.1834 56.0189 38.0797C56.1198 37.9082 56.1198 37.9082 56.2036 37.6266C56.464 36.9183 56.9659 36.3355 57.4585 35.7767C58.264 34.8569 58.7886 33.8624 59.2965 32.7554C60.02 31.1856 60.02 31.1856 60.5834 30.5669C60.6375 30.5064 60.6916 30.4459 60.7474 30.3835C61.5554 29.5267 62.631 28.9236 63.7782 28.662C63.8522 28.6451 63.9262 28.6282 64.0025 28.6107C65.1286 28.3801 66.3242 28.4083 67.462 28.5489C67.7091 28.5767 67.9546 28.5837 68.203 28.587C68.2958 28.5891 68.3886 28.5911 68.4843 28.5933C68.7677 28.5645 68.9098 28.4841 69.143 28.327C69.1958 28.327 69.2486 28.327 69.303 28.327C69.3294 28.2478 69.3558 28.1686 69.383 28.087C70.3747 27.219 71.4547 27.1541 72.5328 27.917Z" fill="#160D2D"/>
<path d="M48.894 8.96786C49.2905 9.2216 49.6331 9.55534 49.784 10.0078C49.8377 10.603 49.8317 11.117 49.464 11.6077C49.1211 11.994 48.7382 12.1297 48.2331 12.1908C47.712 12.2212 47.3824 12.1033 46.9841 11.7677C46.6413 11.4157 46.4476 11.0229 46.3941 10.5328C46.4567 9.93828 46.6484 9.57748 47.0788 9.16348C47.5705 8.7722 48.3087 8.7612 48.894 8.96786Z" fill="#160D2D"/>
<path d="M35.3736 38.9888C35.712 39.2616 35.9058 39.5795 35.9692 40.0169C36 40.5993 35.8395 40.9996 35.4645 41.4465C35.2803 41.591 35.1214 41.6706 34.9045 41.7665C34.8253 41.8061 34.8253 41.8061 34.7445 41.8465C34.1997 41.9051 33.7331 41.9078 33.2796 41.5771C32.9 41.2098 32.6573 40.7576 32.6396 40.2265C32.648 39.757 32.8162 39.4591 33.1371 39.1303C33.83 38.4944 34.5832 38.4639 35.3736 38.9888Z" fill="#160D2D"/>
<path d="M46.5075 30.5526C46.8747 30.774 47.128 31.12 47.339 31.487C47.4553 32.0038 47.4047 32.4043 47.1771 32.8775C46.9532 33.2128 46.6206 33.4286 46.2641 33.6069C45.6506 33.6764 45.1525 33.6689 44.6544 33.2791C44.3193 32.9398 44.0876 32.5613 44.0641 32.0769C44.1401 31.4886 44.3885 31.0427 44.8241 30.647C45.375 30.3308 45.9281 30.3126 46.5075 30.5526Z" fill="#160D2D"/>
<path d="M36.7721 21.7374C37.1983 21.9209 37.5237 22.2176 37.7046 22.6473C37.7769 23.1297 37.8046 23.6477 37.5746 24.0923C37.3127 24.4162 37.069 24.6724 36.6646 24.8072C35.7014 24.8802 35.7014 24.8802 35.2547 24.6722C34.8269 24.2557 34.5007 23.8205 34.4747 23.2023C34.5261 22.6628 34.7444 22.3611 35.1447 22.0073C35.2123 21.9463 35.28 21.8852 35.3497 21.8224C35.8045 21.5991 36.2845 21.6073 36.7721 21.7374Z" fill="#160D2D"/>
</g>
<path d="M110.996 41.0859H106.385L113.41 20.7337H118.956L125.972 41.0859H121.361L116.263 25.3845H116.104L110.996 41.0859ZM110.707 33.0861H121.599V36.4451H110.707V33.0861ZM132.724 20.7337V41.0859H128.421V20.7337H132.724ZM145.695 29.2303V32.5893H136.414V29.2303H145.695ZM156.597 41.0859H149.382V20.7337H156.657C158.704 20.7337 160.466 21.1411 161.943 21.956C163.421 22.7643 164.557 23.927 165.352 25.4441C166.154 26.9612 166.554 28.7765 166.554 30.8899C166.554 33.01 166.154 34.8319 165.352 36.3556C164.557 37.8794 163.414 39.0487 161.924 39.8636C160.439 40.6785 158.664 41.0859 156.597 41.0859ZM153.685 37.3991H156.418C157.69 37.3991 158.76 37.1738 159.628 36.7233C160.502 36.2662 161.158 35.5606 161.596 34.6066C162.039 33.646 162.261 32.4071 162.261 30.8899C162.261 29.386 162.039 28.1571 161.596 27.2031C161.158 26.2491 160.506 25.5468 159.638 25.0963C158.77 24.6458 157.7 24.4205 156.428 24.4205H153.685V37.3991ZM169.742 41.0859V20.7337H177.772C179.309 20.7337 180.62 21.0086 181.707 21.5585C182.8 22.1017 183.631 22.8736 184.201 23.874C184.778 24.8677 185.066 26.037 185.066 27.3819C185.066 28.7335 184.774 29.8962 184.191 30.87C183.608 31.8373 182.764 32.5793 181.657 33.0961C180.557 33.6128 179.226 33.8712 177.662 33.8712H172.286V30.4129H176.967C177.788 30.4129 178.471 30.3003 179.014 30.075C179.557 29.8498 179.961 29.5119 180.226 29.0614C180.498 28.6109 180.634 28.0511 180.634 27.3819C180.634 26.7062 180.498 26.1364 180.226 25.6727C179.961 25.2089 179.554 24.8578 179.004 24.6193C178.461 24.3742 177.775 24.2516 176.947 24.2516H174.045V41.0859H169.742ZM180.733 31.8241L185.791 41.0859H181.041L176.092 31.8241H180.733ZM191.615 41.0859H187.004L194.03 20.7337H199.575L206.591 41.0859H201.98L196.882 25.3845H196.723L191.615 41.0859ZM191.326 33.0861H202.218V36.4451H191.326V33.0861Z" fill="white"/>
<path opacity="0.6" d="M111.549 72.1953H107.362V58.6271H111.734C113.051 58.6271 114.177 58.8988 115.113 59.442C116.049 59.9809 116.767 60.756 117.266 61.7674C117.765 62.7744 118.015 63.9802 118.015 65.3847C118.015 66.7981 117.763 68.0149 117.26 69.0351C116.756 70.051 116.023 70.8328 115.06 71.3804C114.097 71.9237 112.927 72.1953 111.549 72.1953ZM109.005 70.7378H111.443C112.565 70.7378 113.494 70.5214 114.232 70.0885C114.97 69.6557 115.519 69.0396 115.882 68.2401C116.244 67.4407 116.425 66.4889 116.425 65.3847C116.425 64.2894 116.246 63.3464 115.888 62.5558C115.531 61.7608 114.996 61.1513 114.285 60.7273C113.574 60.2989 112.688 60.0846 111.628 60.0846H109.005V70.7378ZM120.559 72.1953V62.0192H122.122V72.1953H120.559ZM121.354 60.3232C121.049 60.3232 120.786 60.2194 120.566 60.0118C120.349 59.8042 120.241 59.5546 120.241 59.2631C120.241 58.9716 120.349 58.7221 120.566 58.5145C120.786 58.3069 121.049 58.2031 121.354 58.2031C121.659 58.2031 121.919 58.3069 122.136 58.5145C122.357 58.7221 122.467 58.9716 122.467 59.2631C122.467 59.5546 122.357 59.8042 122.136 60.0118C121.919 60.2194 121.659 60.3232 121.354 60.3232ZM129.094 76.2234C128.338 76.2234 127.689 76.1262 127.146 75.9319C126.603 75.7419 126.15 75.4902 125.788 75.1766C125.43 74.8674 125.145 74.5362 124.933 74.1828L126.179 73.3083C126.32 73.4938 126.499 73.7058 126.715 73.9443C126.932 74.1873 127.228 74.3971 127.603 74.5737C127.983 74.7548 128.48 74.8453 129.094 74.8453C129.915 74.8453 130.593 74.6466 131.128 74.2491C131.662 73.8516 131.929 73.2288 131.929 72.3808V70.3138H131.797C131.682 70.4993 131.519 70.729 131.306 71.0028C131.099 71.2722 130.799 71.5129 130.405 71.7249C130.017 71.9325 129.491 72.0363 128.829 72.0363C128.007 72.0363 127.27 71.842 126.616 71.4533C125.967 71.0646 125.452 70.4993 125.072 69.7573C124.697 69.0153 124.509 68.1143 124.509 67.0542C124.509 66.0119 124.692 65.1043 125.059 64.3313C125.426 63.554 125.936 62.9533 126.589 62.5293C127.243 62.1009 127.998 61.8867 128.855 61.8867C129.518 61.8867 130.043 61.9971 130.432 62.2179C130.825 62.4343 131.125 62.6817 131.333 62.9599C131.545 63.2338 131.708 63.459 131.823 63.6357H131.982V62.0192H133.493V72.4868C133.493 73.3613 133.294 74.0724 132.897 74.6201C132.503 75.1722 131.973 75.5763 131.306 75.8325C130.644 76.0931 129.906 76.2234 129.094 76.2234ZM129.041 70.6318C129.668 70.6318 130.198 70.4882 130.631 70.2012C131.064 69.9141 131.393 69.5011 131.618 68.9623C131.843 68.4234 131.956 67.7786 131.956 67.0277C131.956 66.2946 131.845 65.6475 131.625 65.0866C131.404 64.5257 131.077 64.0862 130.644 63.7682C130.211 63.4502 129.677 63.2912 129.041 63.2912C128.378 63.2912 127.826 63.459 127.384 63.7947C126.947 64.1304 126.618 64.5809 126.397 65.1462C126.181 65.7116 126.073 66.3387 126.073 67.0277C126.073 67.7344 126.183 68.3594 126.404 68.9026C126.629 69.4415 126.96 69.8655 127.398 70.1747C127.839 70.4794 128.387 70.6318 129.041 70.6318ZM136.355 72.1953V62.0192H137.918V72.1953H136.355ZM137.15 60.3232C136.845 60.3232 136.582 60.2194 136.361 60.0118C136.145 59.8042 136.037 59.5546 136.037 59.2631C136.037 58.9716 136.145 58.7221 136.361 58.5145C136.582 58.3069 136.845 58.2031 137.15 58.2031C137.455 58.2031 137.715 58.3069 137.932 58.5145C138.152 58.7221 138.263 58.9716 138.263 59.2631C138.263 59.5546 138.152 59.8042 137.932 60.0118C137.715 60.2194 137.455 60.3232 137.15 60.3232ZM145.208 62.0192V63.3442H139.934V62.0192H145.208ZM141.471 59.5811H143.035V69.2803C143.035 69.7219 143.099 70.0532 143.227 70.274C143.359 70.4905 143.527 70.6362 143.73 70.7113C143.938 70.782 144.156 70.8173 144.386 70.8173C144.558 70.8173 144.7 70.8085 144.81 70.7908C144.921 70.7687 145.009 70.751 145.075 70.7378L145.393 72.1423C145.287 72.1821 145.139 72.2218 144.949 72.2616C144.759 72.3057 144.519 72.3278 144.227 72.3278C143.785 72.3278 143.353 72.2329 142.929 72.0429C142.509 71.853 142.16 71.5637 141.882 71.175C141.608 70.7864 141.471 70.2961 141.471 69.7043V59.5811ZM150.554 72.4338C149.909 72.4338 149.324 72.3124 148.798 72.0694C148.273 71.8221 147.855 71.4666 147.546 71.0028C147.237 70.5346 147.082 69.9693 147.082 69.3068C147.082 68.7238 147.197 68.2512 147.427 67.889C147.657 67.5224 147.964 67.2353 148.348 67.0277C148.732 66.8202 149.156 66.6656 149.62 66.564C150.088 66.458 150.558 66.3741 151.031 66.3122C151.649 66.2327 152.151 66.1731 152.535 66.1334C152.924 66.0892 153.206 66.0163 153.383 65.9147C153.564 65.8131 153.655 65.6365 153.655 65.3847V65.3317C153.655 64.678 153.476 64.1701 153.118 63.8079C152.765 63.4458 152.228 63.2647 151.508 63.2647C150.762 63.2647 150.176 63.4281 149.752 63.7549C149.328 64.0818 149.03 64.4307 148.858 64.8017L147.374 64.2717C147.639 63.6534 147.992 63.1719 148.434 62.8274C148.88 62.4785 149.366 62.2356 149.892 62.0987C150.422 61.9573 150.943 61.8867 151.455 61.8867C151.782 61.8867 152.157 61.9264 152.581 62.0059C153.01 62.081 153.423 62.2378 153.82 62.4763C154.222 62.7148 154.556 63.0748 154.821 63.5562C155.086 64.0376 155.218 64.6825 155.218 65.4907V72.1953H153.655V70.8173H153.575C153.469 71.0381 153.292 71.2744 153.045 71.5262C152.798 71.7779 152.469 71.9921 152.058 72.1688C151.647 72.3455 151.146 72.4338 150.554 72.4338ZM150.793 71.0293C151.411 71.0293 151.932 70.9078 152.356 70.6649C152.784 70.422 153.107 70.1084 153.323 69.7242C153.544 69.3399 153.655 68.9358 153.655 68.5118V67.0807C153.588 67.1602 153.443 67.2331 153.217 67.2994C152.996 67.3612 152.74 67.4164 152.449 67.465C152.162 67.5092 151.881 67.5489 151.607 67.5843C151.338 67.6152 151.119 67.6417 150.952 67.6638C150.545 67.7168 150.165 67.8029 149.812 67.9221C149.463 68.037 149.18 68.2114 148.964 68.4455C148.752 68.6752 148.646 68.9888 148.646 69.3863C148.646 69.9295 148.847 70.3403 149.249 70.6185C149.655 70.8924 150.17 71.0293 150.793 71.0293ZM159.635 58.6271V72.1953H158.072V58.6271H159.635ZM167.958 72.1953V58.6271H172.543C173.603 58.6271 174.473 58.8082 175.153 59.1704C175.833 59.5281 176.337 60.0206 176.664 60.6478C176.99 61.275 177.154 61.9883 177.154 62.7877C177.154 63.5871 176.99 64.296 176.664 64.9143C176.337 65.5327 175.835 66.0185 175.16 66.3719C174.484 66.7208 173.62 66.8952 172.569 66.8952H168.859V65.4112H172.516C173.241 65.4112 173.824 65.3052 174.265 65.0932C174.711 64.8812 175.034 64.5809 175.232 64.1922C175.436 63.7991 175.537 63.3309 175.537 62.7877C175.537 62.2444 175.436 61.7696 175.232 61.3633C175.029 60.957 174.705 60.6434 174.259 60.4225C173.813 60.1973 173.223 60.0846 172.49 60.0846H169.601V72.1953H167.958ZM174.345 66.1002L177.684 72.1953H175.776L172.49 66.1002H174.345ZM183.837 72.4073C182.856 72.4073 182.011 72.1909 181.299 71.7581C180.593 71.3208 180.047 70.7113 179.663 69.9295C179.283 69.1434 179.093 68.2291 179.093 67.1867C179.093 66.1444 179.283 65.2257 179.663 64.4307C180.047 63.6313 180.582 63.0085 181.266 62.5624C181.955 62.1119 182.759 61.8867 183.678 61.8867C184.208 61.8867 184.731 61.975 185.248 62.1517C185.765 62.3283 186.235 62.6154 186.659 63.0129C187.083 63.406 187.421 63.9272 187.673 64.5765C187.925 65.2257 188.05 66.0251 188.05 66.9747V67.6373H180.206V66.2857H186.46C186.46 65.7116 186.346 65.1992 186.116 64.7487C185.891 64.2982 185.568 63.9427 185.149 63.6821C184.733 63.4215 184.243 63.2912 183.678 63.2912C183.055 63.2912 182.516 63.4458 182.061 63.7549C181.611 64.0597 181.264 64.4572 181.021 64.9475C180.778 65.4377 180.657 65.9633 180.657 66.5242V67.4252C180.657 68.1938 180.789 68.8452 181.054 69.3796C181.324 69.9097 181.697 70.3138 182.174 70.592C182.651 70.8659 183.205 71.0028 183.837 71.0028C184.248 71.0028 184.619 70.9454 184.95 70.8305C185.286 70.7113 185.575 70.5346 185.818 70.3005C186.061 70.062 186.248 69.7661 186.381 69.4128L187.891 69.8368C187.732 70.3491 187.465 70.7996 187.09 71.1883C186.714 71.5726 186.251 71.8729 185.698 72.0893C185.146 72.3013 184.526 72.4073 183.837 72.4073ZM191.992 66.0737V72.1953H190.429V58.6271H191.992V63.6092H192.125C192.363 63.0836 192.721 62.6662 193.198 62.3571C193.68 62.0435 194.32 61.8867 195.119 61.8867C195.813 61.8867 196.42 62.0258 196.941 62.3041C197.462 62.5779 197.867 62.9997 198.154 63.5694C198.445 64.1348 198.591 64.8547 198.591 65.7292V72.1953H197.027V65.8352C197.027 65.027 196.818 64.402 196.398 63.9603C195.983 63.5142 195.406 63.2912 194.669 63.2912C194.157 63.2912 193.697 63.3994 193.291 63.6158C192.889 63.8322 192.571 64.148 192.337 64.5632C192.107 64.9784 191.992 65.4819 191.992 66.0737ZM204.446 72.4338C203.801 72.4338 203.216 72.3124 202.69 72.0694C202.165 71.8221 201.747 71.4666 201.438 71.0028C201.129 70.5346 200.974 69.9693 200.974 69.3068C200.974 68.7238 201.089 68.2512 201.319 67.889C201.548 67.5224 201.855 67.2353 202.24 67.0277C202.624 66.8202 203.048 66.6656 203.512 66.564C203.98 66.458 204.45 66.3741 204.923 66.3122C205.541 66.2327 206.042 66.1731 206.427 66.1334C206.815 66.0892 207.098 66.0163 207.275 65.9147C207.456 65.8131 207.546 65.6365 207.546 65.3847V65.3317C207.546 64.678 207.367 64.1701 207.01 63.8079C206.656 63.4458 206.12 63.2647 205.4 63.2647C204.653 63.2647 204.068 63.4281 203.644 63.7549C203.22 64.0818 202.922 64.4307 202.75 64.8017L201.266 64.2717C201.531 63.6534 201.884 63.1719 202.326 62.8274C202.772 62.4785 203.258 62.2356 203.783 62.0987C204.313 61.9573 204.834 61.8867 205.347 61.8867C205.674 61.8867 206.049 61.9264 206.473 62.0059C206.902 62.081 207.314 62.2378 207.712 62.4763C208.114 62.7148 208.447 63.0748 208.712 63.5562C208.977 64.0376 209.11 64.6825 209.11 65.4907V72.1953H207.546V70.8173H207.467C207.361 71.0381 207.184 71.2744 206.937 71.5262C206.69 71.7779 206.36 71.9921 205.95 72.1688C205.539 72.3455 205.038 72.4338 204.446 72.4338ZM204.684 71.0293C205.303 71.0293 205.824 70.9078 206.248 70.6649C206.676 70.422 206.999 70.1084 207.215 69.7242C207.436 69.3399 207.546 68.9358 207.546 68.5118V67.0807C207.48 67.1602 207.334 67.2331 207.109 67.2994C206.888 67.3612 206.632 67.4164 206.341 67.465C206.054 67.5092 205.773 67.5489 205.499 67.5843C205.23 67.6152 205.011 67.6417 204.843 67.6638C204.437 67.7168 204.057 67.8029 203.704 67.9221C203.355 68.037 203.072 68.2114 202.856 68.4455C202.644 68.6752 202.538 68.9888 202.538 69.3863C202.538 69.9295 202.739 70.3403 203.141 70.6185C203.547 70.8924 204.062 71.0293 204.684 71.0293ZM212.176 72.1953V58.6271H213.739V63.6357H213.872C213.987 63.459 214.146 63.2338 214.349 62.9599C214.556 62.6817 214.852 62.4343 215.236 62.2179C215.625 61.9971 216.151 61.8867 216.813 61.8867C217.67 61.8867 218.425 62.1009 219.079 62.5293C219.733 62.9577 220.243 63.565 220.609 64.3512C220.976 65.1374 221.159 66.0649 221.159 67.1337C221.159 68.2114 220.976 69.1456 220.609 69.9362C220.243 70.7223 219.735 71.3318 219.086 71.7647C218.436 72.1931 217.688 72.4073 216.84 72.4073C216.186 72.4073 215.663 72.2991 215.27 72.0827C214.876 71.8618 214.574 71.6123 214.362 71.3341C214.15 71.0514 213.987 70.8173 213.872 70.6318H213.686V72.1953H212.176ZM213.713 67.1072C213.713 67.8758 213.825 68.5537 214.051 69.1411C214.276 69.7242 214.605 70.1813 215.038 70.5125C215.471 70.8394 216.001 71.0028 216.628 71.0028C217.281 71.0028 217.827 70.8305 218.264 70.486C218.706 70.1371 219.037 69.6689 219.258 69.0815C219.483 68.4897 219.596 67.8316 219.596 67.1072C219.596 66.3917 219.485 65.7469 219.264 65.1727C219.048 64.5941 218.719 64.137 218.277 63.8013C217.84 63.4612 217.29 63.2912 216.628 63.2912C215.992 63.2912 215.457 63.4524 215.024 63.7748C214.592 64.0928 214.265 64.5389 214.044 65.1131C213.823 65.6828 213.713 66.3476 213.713 67.1072ZM223.551 72.1953V62.0192H225.114V72.1953H223.551ZM224.346 60.3232C224.041 60.3232 223.778 60.2194 223.558 60.0118C223.341 59.8042 223.233 59.5546 223.233 59.2631C223.233 58.9716 223.341 58.7221 223.558 58.5145C223.778 58.3069 224.041 58.2031 224.346 58.2031C224.651 58.2031 224.911 58.3069 225.128 58.5145C225.349 58.7221 225.459 58.9716 225.459 59.2631C225.459 59.5546 225.349 59.8042 225.128 60.0118C224.911 60.2194 224.651 60.3232 224.346 60.3232ZM229.542 58.6271V72.1953H227.978V58.6271H229.542ZM232.405 72.1953V62.0192H233.969V72.1953H232.405ZM233.2 60.3232C232.896 60.3232 232.633 60.2194 232.412 60.0118C232.196 59.8042 232.087 59.5546 232.087 59.2631C232.087 58.9716 232.196 58.7221 232.412 58.5145C232.633 58.3069 232.896 58.2031 233.2 58.2031C233.505 58.2031 233.766 58.3069 233.982 58.5145C234.203 58.7221 234.313 58.9716 234.313 59.2631C234.313 59.5546 234.203 59.8042 233.982 60.0118C233.766 60.2194 233.505 60.3232 233.2 60.3232ZM241.258 62.0192V63.3442H235.985V62.0192H241.258ZM237.522 59.5811H239.085V69.2803C239.085 69.7219 239.149 70.0532 239.277 70.274C239.41 70.4905 239.578 70.6362 239.781 70.7113C239.988 70.782 240.207 70.8173 240.437 70.8173C240.609 70.8173 240.75 70.8085 240.861 70.7908C240.971 70.7687 241.059 70.751 241.126 70.7378L241.444 72.1423C241.338 72.1821 241.19 72.2218 241 72.2616C240.81 72.3057 240.569 72.3278 240.278 72.3278C239.836 72.3278 239.403 72.2329 238.979 72.0429C238.56 71.853 238.211 71.5637 237.932 71.175C237.658 70.7864 237.522 70.2961 237.522 69.7043V59.5811ZM246.605 72.4338C245.96 72.4338 245.375 72.3124 244.849 72.0694C244.323 71.8221 243.906 71.4666 243.597 71.0028C243.288 70.5346 243.133 69.9693 243.133 69.3068C243.133 68.7238 243.248 68.2512 243.478 67.889C243.707 67.5224 244.014 67.2353 244.398 67.0277C244.783 66.8202 245.207 66.6656 245.67 66.564C246.139 66.458 246.609 66.3741 247.082 66.3122C247.7 66.2327 248.201 66.1731 248.585 66.1334C248.974 66.0892 249.257 66.0163 249.433 65.9147C249.615 65.8131 249.705 65.6365 249.705 65.3847V65.3317C249.705 64.678 249.526 64.1701 249.168 63.8079C248.815 63.4458 248.279 63.2647 247.559 63.2647C246.812 63.2647 246.227 63.4281 245.803 63.7549C245.379 64.0818 245.081 64.4307 244.909 64.8017L243.425 64.2717C243.69 63.6534 244.043 63.1719 244.485 62.8274C244.931 62.4785 245.416 62.2356 245.942 62.0987C246.472 61.9573 246.993 61.8867 247.506 61.8867C247.832 61.8867 248.208 61.9264 248.632 62.0059C249.06 62.081 249.473 62.2378 249.871 62.4763C250.273 62.7148 250.606 63.0748 250.871 63.5562C251.136 64.0376 251.269 64.6825 251.269 65.4907V72.1953H249.705V70.8173H249.626C249.52 71.0381 249.343 71.2744 249.096 71.5262C248.848 71.7779 248.519 71.9921 248.108 72.1688C247.698 72.3455 247.196 72.4338 246.605 72.4338ZM246.843 71.0293C247.461 71.0293 247.983 70.9078 248.407 70.6649C248.835 70.422 249.157 70.1084 249.374 69.7242C249.595 69.3399 249.705 68.9358 249.705 68.5118V67.0807C249.639 67.1602 249.493 67.2331 249.268 67.2994C249.047 67.3612 248.791 67.4164 248.499 67.465C248.212 67.5092 247.932 67.5489 247.658 67.5843C247.389 67.6152 247.17 67.6417 247.002 67.6638C246.596 67.7168 246.216 67.8029 245.863 67.9221C245.514 68.037 245.231 68.2114 245.015 68.4455C244.803 68.6752 244.697 68.9888 244.697 69.3863C244.697 69.9295 244.898 70.3403 245.299 70.6185C245.706 70.8924 246.22 71.0293 246.843 71.0293ZM258.548 62.0192V63.3442H253.274V62.0192H258.548ZM254.811 59.5811H256.375V69.2803C256.375 69.7219 256.439 70.0532 256.567 70.274C256.7 70.4905 256.867 70.6362 257.071 70.7113C257.278 70.782 257.497 70.8173 257.726 70.8173C257.899 70.8173 258.04 70.8085 258.15 70.7908C258.261 70.7687 258.349 70.751 258.415 70.7378L258.733 72.1423C258.627 72.1821 258.479 72.2218 258.29 72.2616C258.1 72.3057 257.859 72.3278 257.567 72.3278C257.126 72.3278 256.693 72.2329 256.269 72.0429C255.849 71.853 255.5 71.5637 255.222 71.175C254.948 70.7864 254.811 70.2961 254.811 69.7043V59.5811ZM260.9 72.1953V62.0192H262.463V72.1953H260.9ZM261.695 60.3232C261.39 60.3232 261.127 60.2194 260.906 60.0118C260.69 59.8042 260.582 59.5546 260.582 59.2631C260.582 58.9716 260.69 58.7221 260.906 58.5145C261.127 58.3069 261.39 58.2031 261.695 58.2031C262 58.2031 262.26 58.3069 262.477 58.5145C262.697 58.7221 262.808 58.9716 262.808 59.2631C262.808 59.5546 262.697 59.8042 262.477 60.0118C262.26 60.2194 262 60.3232 261.695 60.3232ZM269.461 72.4073C268.542 72.4073 267.736 72.1887 267.043 71.7514C266.354 71.3142 265.815 70.7025 265.426 69.9163C265.042 69.1301 264.85 68.2114 264.85 67.1602C264.85 66.1002 265.042 65.1749 265.426 64.3843C265.815 63.5937 266.354 62.9798 267.043 62.5426C267.736 62.1053 268.542 61.8867 269.461 61.8867C270.38 61.8867 271.184 62.1053 271.873 62.5426C272.566 62.9798 273.105 63.5937 273.489 64.3843C273.878 65.1749 274.072 66.1002 274.072 67.1602C274.072 68.2114 273.878 69.1301 273.489 69.9163C273.105 70.7025 272.566 71.3142 271.873 71.7514C271.184 72.1887 270.38 72.4073 269.461 72.4073ZM269.461 71.0028C270.159 71.0028 270.733 70.8239 271.184 70.4662C271.634 70.1084 271.968 69.638 272.184 69.055C272.4 68.472 272.509 67.8404 272.509 67.1602C272.509 66.4801 272.4 65.8463 272.184 65.2588C271.968 64.6714 271.634 64.1966 271.184 63.8344C270.733 63.4723 270.159 63.2912 269.461 63.2912C268.763 63.2912 268.189 63.4723 267.739 63.8344C267.288 64.1966 266.955 64.6714 266.738 65.2588C266.522 65.8463 266.414 66.4801 266.414 67.1602C266.414 67.8404 266.522 68.472 266.738 69.055C266.955 69.638 267.288 70.1084 267.739 70.4662C268.189 70.8239 268.763 71.0028 269.461 71.0028ZM278.022 66.0737V72.1953H276.459V62.0192H277.969V63.6092H278.102C278.34 63.0924 278.703 62.6773 279.188 62.3637C279.674 62.0457 280.301 61.8867 281.07 61.8867C281.759 61.8867 282.362 62.028 282.879 62.3107C283.395 62.5889 283.797 63.0129 284.084 63.5827C284.371 64.148 284.515 64.8635 284.515 65.7292V72.1953H282.951V65.8352C282.951 65.0358 282.744 64.413 282.329 63.967C281.914 63.5164 281.344 63.2912 280.619 63.2912C280.12 63.2912 279.674 63.3994 279.281 63.6158C278.892 63.8322 278.586 64.148 278.36 64.5632C278.135 64.9784 278.022 65.4819 278.022 66.0737ZM293.388 72.1953H291.665L296.647 58.6271H298.343L303.325 72.1953H301.603L297.548 60.7737H297.442L293.388 72.1953ZM294.024 66.8952H300.967V68.3528H294.024V66.8952ZM312.435 64.2982L311.03 64.6957C310.942 64.4616 310.812 64.2342 310.639 64.0133C310.472 63.7881 310.242 63.6026 309.95 63.4568C309.659 63.3111 309.286 63.2382 308.831 63.2382C308.208 63.2382 307.689 63.3817 307.274 63.6688C306.863 63.9515 306.658 64.3115 306.658 64.7487C306.658 65.1374 306.799 65.4443 307.082 65.6696C307.364 65.8949 307.806 66.0826 308.407 66.2327L309.917 66.6037C310.827 66.8246 311.505 67.1625 311.951 67.6174C312.397 68.0679 312.62 68.6487 312.62 69.3598C312.62 69.9428 312.452 70.464 312.117 70.9233C311.786 71.3826 311.322 71.7448 310.725 72.0098C310.129 72.2748 309.436 72.4073 308.645 72.4073C307.607 72.4073 306.748 72.1821 306.068 71.7316C305.388 71.2811 304.957 70.623 304.776 69.7573L306.26 69.3863C306.402 69.9339 306.669 70.3447 307.062 70.6185C307.459 70.8924 307.978 71.0293 308.619 71.0293C309.347 71.0293 309.926 70.8747 310.354 70.5655C310.787 70.252 311.004 69.8765 311.004 69.4393C311.004 69.0859 310.88 68.79 310.633 68.5515C310.385 68.3086 310.006 68.1275 309.493 68.0083L307.797 67.6108C306.865 67.3899 306.181 67.0476 305.743 66.5839C305.311 66.1157 305.094 65.5305 305.094 64.8282C305.094 64.254 305.255 63.7461 305.578 63.3044C305.905 62.8628 306.349 62.5161 306.909 62.2643C307.475 62.0126 308.115 61.8867 308.831 61.8867C309.838 61.8867 310.628 62.1075 311.203 62.5492C311.781 62.9909 312.192 63.5739 312.435 64.2982ZM322.182 64.2982L320.777 64.6957C320.689 64.4616 320.559 64.2342 320.387 64.0133C320.219 63.7881 319.989 63.6026 319.698 63.4568C319.406 63.3111 319.033 63.2382 318.578 63.2382C317.955 63.2382 317.436 63.3817 317.021 63.6688C316.61 63.9515 316.405 64.3115 316.405 64.7487C316.405 65.1374 316.546 65.4443 316.829 65.6696C317.112 65.8949 317.553 66.0826 318.154 66.2327L319.664 66.6037C320.574 66.8246 321.252 67.1625 321.698 67.6174C322.144 68.0679 322.367 68.6487 322.367 69.3598C322.367 69.9428 322.2 70.464 321.864 70.9233C321.533 71.3826 321.069 71.7448 320.473 72.0098C319.876 72.2748 319.183 72.4073 318.392 72.4073C317.354 72.4073 316.495 72.1821 315.815 71.7316C315.135 71.2811 314.704 70.623 314.523 69.7573L316.007 69.3863C316.149 69.9339 316.416 70.3447 316.809 70.6185C317.206 70.8924 317.725 71.0293 318.366 71.0293C319.095 71.0293 319.673 70.8747 320.102 70.5655C320.534 70.252 320.751 69.8765 320.751 69.4393C320.751 69.0859 320.627 68.79 320.38 68.5515C320.133 68.3086 319.753 68.1275 319.24 68.0083L317.544 67.6108C316.612 67.3899 315.928 67.0476 315.491 66.5839C315.058 66.1157 314.841 65.5305 314.841 64.8282C314.841 64.254 315.003 63.7461 315.325 63.3044C315.652 62.8628 316.096 62.5161 316.657 62.2643C317.222 62.0126 317.862 61.8867 318.578 61.8867C319.585 61.8867 320.375 62.1075 320.95 62.5492C321.528 62.9909 321.939 63.5739 322.182 64.2982ZM324.721 72.1953V62.0192H326.285V72.1953H324.721ZM325.516 60.3232C325.211 60.3232 324.948 60.2194 324.728 60.0118C324.511 59.8042 324.403 59.5546 324.403 59.2631C324.403 58.9716 324.511 58.7221 324.728 58.5145C324.948 58.3069 325.211 58.2031 325.516 58.2031C325.821 58.2031 326.081 58.3069 326.298 58.5145C326.519 58.7221 326.629 58.9716 326.629 59.2631C326.629 59.5546 326.519 59.8042 326.298 60.0118C326.081 60.2194 325.821 60.3232 325.516 60.3232ZM336.356 64.2982L334.952 64.6957C334.863 64.4616 334.733 64.2342 334.561 64.0133C334.393 63.7881 334.163 63.6026 333.872 63.4568C333.58 63.3111 333.207 63.2382 332.752 63.2382C332.13 63.2382 331.611 63.3817 331.195 63.6688C330.785 63.9515 330.579 64.3115 330.579 64.7487C330.579 65.1374 330.721 65.4443 331.003 65.6696C331.286 65.8949 331.728 66.0826 332.328 66.2327L333.839 66.6037C334.749 66.8246 335.427 67.1625 335.873 67.6174C336.319 68.0679 336.542 68.6487 336.542 69.3598C336.542 69.9428 336.374 70.464 336.038 70.9233C335.707 71.3826 335.243 71.7448 334.647 72.0098C334.051 72.2748 333.357 72.4073 332.567 72.4073C331.529 72.4073 330.67 72.1821 329.99 71.7316C329.309 71.2811 328.879 70.623 328.698 69.7573L330.182 69.3863C330.323 69.9339 330.59 70.3447 330.983 70.6185C331.381 70.8924 331.9 71.0293 332.54 71.0293C333.269 71.0293 333.848 70.8747 334.276 70.5655C334.709 70.252 334.925 69.8765 334.925 69.4393C334.925 69.0859 334.802 68.79 334.554 68.5515C334.307 68.3086 333.927 68.1275 333.415 68.0083L331.719 67.6108C330.787 67.3899 330.102 67.0476 329.665 66.5839C329.232 66.1157 329.016 65.5305 329.016 64.8282C329.016 64.254 329.177 63.7461 329.499 63.3044C329.826 62.8628 330.27 62.5161 330.831 62.2643C331.396 62.0126 332.037 61.8867 332.752 61.8867C333.759 61.8867 334.55 62.1075 335.124 62.5492C335.703 62.9909 336.113 63.5739 336.356 64.2982ZM343.321 62.0192V63.3442H338.047V62.0192H343.321ZM339.584 59.5811H341.148V69.2803C341.148 69.7219 341.212 70.0532 341.34 70.274C341.473 70.4905 341.64 70.6362 341.844 70.7113C342.051 70.782 342.27 70.8173 342.499 70.8173C342.672 70.8173 342.813 70.8085 342.923 70.7908C343.034 70.7687 343.122 70.751 343.188 70.7378L343.506 72.1423C343.4 72.1821 343.252 72.2218 343.063 72.2616C342.873 72.3057 342.632 72.3278 342.34 72.3278C341.899 72.3278 341.466 72.2329 341.042 72.0429C340.622 71.853 340.273 71.5637 339.995 71.175C339.721 70.7864 339.584 70.2961 339.584 69.7043V59.5811ZM348.667 72.4338C348.023 72.4338 347.437 72.3124 346.912 72.0694C346.386 71.8221 345.969 71.4666 345.66 71.0028C345.35 70.5346 345.196 69.9693 345.196 69.3068C345.196 68.7238 345.311 68.2512 345.54 67.889C345.77 67.5224 346.077 67.2353 346.461 67.0277C346.845 66.8202 347.269 66.6656 347.733 66.564C348.201 66.458 348.672 66.3741 349.144 66.3122C349.763 66.2327 350.264 66.1731 350.648 66.1334C351.037 66.0892 351.32 66.0163 351.496 65.9147C351.677 65.8131 351.768 65.6365 351.768 65.3847V65.3317C351.768 64.678 351.589 64.1701 351.231 63.8079C350.878 63.4458 350.341 63.2647 349.621 63.2647C348.875 63.2647 348.29 63.4281 347.866 63.7549C347.442 64.0818 347.144 64.4307 346.971 64.8017L345.487 64.2717C345.752 63.6534 346.106 63.1719 346.547 62.8274C346.993 62.4785 347.479 62.2356 348.005 62.0987C348.535 61.9573 349.056 61.8867 349.568 61.8867C349.895 61.8867 350.271 61.9264 350.695 62.0059C351.123 62.081 351.536 62.2378 351.934 62.4763C352.335 62.7148 352.669 63.0748 352.934 63.5562C353.199 64.0376 353.331 64.6825 353.331 65.4907V72.1953H351.768V70.8173H351.688C351.582 71.0381 351.406 71.2744 351.158 71.5262C350.911 71.7779 350.582 71.9921 350.171 72.1688C349.761 72.3455 349.259 72.4338 348.667 72.4338ZM348.906 71.0293C349.524 71.0293 350.045 70.9078 350.469 70.6649C350.898 70.422 351.22 70.1084 351.437 69.7242C351.658 69.3399 351.768 68.9358 351.768 68.5118V67.0807C351.702 67.1602 351.556 67.2331 351.331 67.2994C351.11 67.3612 350.854 67.4164 350.562 67.465C350.275 67.5092 349.995 67.5489 349.721 67.5843C349.451 67.6152 349.233 67.6417 349.065 67.6638C348.659 67.7168 348.279 67.8029 347.925 67.9221C347.576 68.037 347.294 68.2114 347.077 68.4455C346.865 68.6752 346.759 68.9888 346.759 69.3863C346.759 69.9295 346.96 70.3403 347.362 70.6185C347.769 70.8924 348.283 71.0293 348.906 71.0293ZM357.749 66.0737V72.1953H356.185V62.0192H357.696V63.6092H357.828C358.067 63.0924 358.429 62.6773 358.915 62.3637C359.401 62.0457 360.028 61.8867 360.796 61.8867C361.485 61.8867 362.088 62.028 362.605 62.3107C363.122 62.5889 363.524 63.0129 363.811 63.5827C364.098 64.148 364.241 64.8635 364.241 65.7292V72.1953H362.678V65.8352C362.678 65.0358 362.47 64.413 362.055 63.967C361.64 63.5164 361.07 63.2912 360.346 63.2912C359.847 63.2912 359.401 63.3994 359.007 63.6158C358.619 63.8322 358.312 64.148 358.087 64.5632C357.861 64.9784 357.749 65.4819 357.749 66.0737ZM371.524 62.0192V63.3442H366.25V62.0192H371.524ZM367.787 59.5811H369.351V69.2803C369.351 69.7219 369.415 70.0532 369.543 70.274C369.676 70.4905 369.843 70.6362 370.047 70.7113C370.254 70.782 370.473 70.8173 370.702 70.8173C370.875 70.8173 371.016 70.8085 371.126 70.7908C371.237 70.7687 371.325 70.751 371.391 70.7378L371.709 72.1423C371.603 72.1821 371.455 72.2218 371.266 72.2616C371.076 72.3057 370.835 72.3278 370.543 72.3278C370.102 72.3278 369.669 72.2329 369.245 72.0429C368.825 71.853 368.476 71.5637 368.198 71.175C367.924 70.7864 367.787 70.2961 367.787 69.7043V59.5811Z" fill="white"/>
<defs>
<clipPath id="clip0_4387_82924">
<rect width="74.625" height="81.9652" fill="white" transform="translate(9.32812 6.21875)"/>
</clipPath>
</defs>
</svg>
