<svg width="49" height="49" viewBox="0 0 49 49" fill="none" xmlns="http://www.w3.org/2000/svg">
<g clip-path="url(#clip0_4385_82381)">
<path d="M8.36968 15.3795C9.14275 15.9791 9.42653 17.0626 9.55369 17.9895C9.57379 18.1506 9.59119 18.3117 9.60661 18.4732C9.61669 18.5742 9.62864 18.6751 9.64382 18.7755C9.67293 18.9903 9.68671 19.2055 9.70143 19.4218C9.70499 19.4719 9.70856 19.5221 9.71223 19.5737C9.73196 19.8532 9.75056 20.1327 9.76768 20.4124C9.87177 22.1063 10.0471 23.776 10.5423 25.4068C10.5559 25.4523 10.5695 25.4978 10.5835 25.5447C10.6732 25.8292 10.7893 26.0959 10.9188 26.3644C10.9667 26.4653 11.013 26.5669 11.0593 26.6685C11.4081 27.426 11.8176 28.1383 12.3388 28.791C12.3666 28.8267 12.3943 28.8624 12.4229 28.8992C12.5949 29.1186 12.7765 29.3271 12.9645 29.5328C13.0313 29.6069 13.0944 29.6816 13.1561 29.7598C13.262 29.8819 13.3739 29.9829 13.4968 30.0874C13.6033 30.1793 13.7059 30.275 13.809 30.3708C14.0595 30.5987 14.3213 30.8065 14.595 31.0054C14.6295 31.0306 14.6295 31.0306 14.6647 31.0563C15.3024 31.5156 16.0155 31.9018 16.7675 32.1335C16.8274 32.1542 16.8873 32.1749 16.9472 32.1956C17.14 32.26 17.3338 32.3066 17.5326 32.3476C17.5674 32.3548 17.6022 32.3619 17.638 32.3693C17.9049 32.4227 18.1664 32.4592 18.4388 32.4677C18.4881 32.4699 18.5375 32.472 18.5884 32.4742C18.9184 32.4821 19.2349 32.458 19.5616 32.4102C19.5981 32.405 19.6347 32.3997 19.6723 32.3943C19.8698 32.3704 19.8698 32.3704 20.0264 32.2588C20.0554 32.1585 20.0554 32.1585 20.0264 32.0499C19.9386 31.9772 19.8609 31.9254 19.7627 31.8697C19.7188 31.8436 19.7188 31.8436 19.6739 31.8169C19.6069 31.777 19.5396 31.7376 19.4722 31.6985C19.3479 31.6263 19.2242 31.5531 19.1005 31.4798C18.8868 31.3531 18.8868 31.3531 18.673 31.2266C17.7701 30.6924 16.8889 30.1321 16.0187 29.5465C15.8306 29.4199 15.6419 29.2942 15.4528 29.1692C14.9488 28.8359 14.4483 28.4996 13.9633 28.139C13.8894 28.0842 13.8149 28.0304 13.7403 27.9766C12.9585 27.4056 12.0999 26.5489 11.8954 25.5703C11.8214 25.0127 11.8463 24.4544 12.1857 23.9863C12.4089 23.718 12.6778 23.553 13.0073 23.4431C13.8033 23.388 14.2884 23.6503 14.8949 24.1247C15.0645 24.2567 15.2385 24.3742 15.4211 24.4872C15.5603 24.574 15.6976 24.6633 15.8349 24.7532C16.6954 25.3164 17.5713 25.8503 18.4604 26.3668C18.5962 26.4457 18.7319 26.5249 18.8675 26.6042C19.2014 26.7995 19.5355 26.9946 19.8712 27.1869C20.5425 27.5716 21.2054 27.9684 21.8647 28.3732C21.917 28.4051 21.917 28.4051 21.9702 28.4377C22.9067 29.0108 23.7957 29.6553 24.6223 30.3787C24.6542 30.4065 24.6861 30.4343 24.719 30.4629C24.7738 30.5107 24.8284 30.5587 24.8829 30.6068C24.9318 30.6495 24.9813 30.6916 25.0314 30.7328C25.1934 30.8666 25.3299 31.0099 25.4659 31.1701C25.5415 31.2562 25.621 31.3356 25.7033 31.4154C25.8815 31.5919 26.0392 31.7812 26.1947 31.9779C26.2354 32.0293 26.2763 32.0807 26.3174 32.1319C26.6838 32.5898 27.023 33.0592 27.338 33.554C27.354 33.579 27.3701 33.6039 27.3866 33.6296C27.862 34.3738 28.2884 35.1869 28.5914 36.0164C28.6584 36.1984 28.7266 36.3787 28.8029 36.557C28.9176 36.8396 28.9885 37.1368 29.0674 37.4309C29.1038 37.5634 29.1443 37.6946 29.1842 37.826C29.2534 38.0668 29.294 38.3043 29.3255 38.5526C29.342 38.6821 29.3626 38.8099 29.3852 38.9384C29.3994 39.0237 29.4133 39.109 29.427 39.1943C29.4342 39.2388 29.4413 39.2832 29.4487 39.329C29.5171 39.8073 29.5275 40.2823 29.5283 40.765C29.5288 40.9028 29.5309 41.0405 29.533 41.1783C29.5334 41.2672 29.5337 41.356 29.5339 41.4449C29.5347 41.4855 29.5355 41.526 29.5364 41.5677C29.5342 41.8928 29.4469 42.1658 29.2269 42.4112C28.9936 42.6341 28.7047 42.7892 28.4269 42.9494C28.4008 42.9645 28.3748 42.9796 28.348 42.9952C27.1511 43.6902 25.8967 44.3206 24.6236 44.8633C24.5189 44.9087 24.4179 44.9569 24.3167 45.0097C24.1564 45.0925 23.9891 45.1509 23.8191 45.2109C23.7122 45.2492 23.6072 45.2905 23.502 45.3335C23.2847 45.4216 23.064 45.499 22.8428 45.577C22.6845 45.6343 22.5289 45.6968 22.3738 45.7624C22.04 45.8842 21.5808 45.9106 21.2407 45.7961C20.995 45.6488 20.8601 45.4402 20.7785 45.1689C20.7588 45.0352 20.7439 44.9019 20.7312 44.7674C20.632 43.8407 20.064 43.0689 19.4415 42.4114C19.4098 42.3776 19.3781 42.3437 19.3455 42.3088C18.8665 41.8118 18.2951 41.4223 17.7285 41.0327C17.7033 41.0153 17.6781 40.9979 17.6521 40.98C16.9973 40.5313 16.3186 40.1166 15.6369 39.7104C14.0228 38.7482 12.455 37.7386 11.0728 36.4569C10.981 36.3725 10.8879 36.2905 10.7929 36.2097C10.4765 35.9348 10.1795 35.6323 9.90821 35.313C9.83133 35.2244 9.75171 35.1388 9.67152 35.0533C9.39981 34.7622 9.15314 34.4562 8.91282 34.1389C8.89003 34.109 8.86723 34.0791 8.84375 34.0483C7.04411 31.6796 5.99338 28.9411 5.45093 26.035C5.44588 26.0079 5.44083 25.9809 5.43562 25.9531C5.43053 25.9258 5.42544 25.8985 5.4202 25.8704C5.40812 25.8079 5.39542 25.7456 5.38231 25.6833C5.33173 25.4419 5.29756 25.2033 5.27499 24.9578C5.27139 24.9197 5.26778 24.8816 5.26407 24.8424C5.25259 24.7181 5.24164 24.5937 5.23092 24.4694C5.2272 24.4263 5.22348 24.3831 5.21965 24.3387C5.14275 23.4259 5.12797 22.5201 5.15259 21.6048C5.15349 21.5693 5.1544 21.5337 5.15533 21.4971C5.1987 19.85 5.35054 18.1574 5.86285 16.5833C5.87572 16.5436 5.88858 16.5039 5.90183 16.463C6.09055 15.9168 6.38896 15.4676 6.89349 15.176C7.39408 14.9337 7.93277 15.0881 8.36968 15.3795Z" fill="#7A40F1"/>
<path d="M32.1845 5.26869C32.2218 5.28027 32.2591 5.29185 32.2975 5.30378C33.0692 5.57391 33.7451 6.1998 34.1049 6.92456C34.4118 7.57436 34.5827 8.34136 34.356 9.04362C34.3425 9.08013 34.3291 9.11665 34.3153 9.15427C34.3006 9.19596 34.2859 9.23764 34.2708 9.28059C34.1097 9.70258 33.8548 10.0232 33.5215 10.3241C33.4998 10.3439 33.4781 10.3638 33.4557 10.3842C33.1395 10.6415 32.7041 10.6874 32.3087 10.6789C32.1406 10.6511 32.0514 10.582 31.9253 10.4718C31.67 10.2537 31.3609 10.2605 31.0382 10.2678C30.8424 10.2869 30.7119 10.3329 30.5551 10.4495C30.529 10.4686 30.5029 10.4878 30.4761 10.5076C30.1944 10.7325 30.0357 10.9925 29.9946 11.3539C29.9917 11.4053 29.9888 11.4567 29.9858 11.5096C29.9827 11.5617 29.9796 11.6137 29.9764 11.6673C29.9743 11.7066 29.9723 11.7459 29.9702 11.7864C29.9977 11.7864 30.0253 11.7864 30.0537 11.7864C30.0744 11.8575 30.0744 11.8575 30.0955 11.9301C30.2032 12.2135 30.4109 12.4571 30.6778 12.6038C30.9976 12.7237 31.4021 12.7205 31.728 12.6269C32.0138 12.4948 32.2262 12.2918 32.396 12.0293C32.5108 11.8627 32.6315 11.7697 32.8261 11.719C32.941 11.6981 33.056 11.6805 33.1716 11.6637C33.7962 11.5602 34.265 11.3882 34.66 10.8699C35.0291 10.2748 35.1174 9.43889 35.134 8.75426C35.158 8.5515 35.2452 8.40726 35.4016 8.27688C35.9625 8.08992 36.5953 8.3038 37.1015 8.55107C37.8498 8.99213 38.3265 9.72815 38.5624 10.5518C38.6374 10.8616 38.6326 11.1668 38.6265 11.4835C38.6259 11.5416 38.6253 11.5997 38.6248 11.6578C38.6234 11.7982 38.6213 11.9385 38.6187 12.0789C38.6742 12.0912 38.6742 12.0912 38.7309 12.1037C38.7796 12.1147 38.8283 12.1257 38.8785 12.137C38.9268 12.1478 38.975 12.1586 39.0247 12.1697C39.2091 12.2161 39.3693 12.2847 39.5379 12.3714C39.6003 12.4023 39.6003 12.4023 39.664 12.4339C40.8213 13.0283 41.5882 13.9902 41.9951 15.215C42.2995 16.3444 42.1192 17.4856 41.5851 18.5131C41.5298 18.6026 41.4732 18.6904 41.4137 18.7771C41.3652 18.8516 41.3652 18.8516 41.3919 18.9648C41.43 19.0397 41.4683 19.1145 41.5068 19.1892C41.9025 20.0018 41.989 21.0337 41.7104 21.8973C41.5275 22.4156 41.2702 22.8571 40.9166 23.276C40.8847 23.3183 40.8529 23.3605 40.82 23.404C40.2596 24.0165 39.5059 24.33 38.744 24.613C38.7413 24.6361 38.7386 24.6592 38.7358 24.683C38.611 25.7174 38.3532 26.6659 37.5039 27.343C36.9522 27.75 36.3895 27.9513 35.7035 27.9628C35.6745 27.9633 35.6454 27.9638 35.6155 27.9643C35.4941 27.9663 35.3728 27.9683 35.2514 27.9691C35.1618 27.9697 35.0723 27.9714 34.9828 27.9732C34.9034 27.9742 34.9034 27.9742 34.8223 27.9751C34.6911 27.9858 34.6911 27.9858 34.6114 28.0648C34.5513 28.1966 34.5506 28.3001 34.5505 28.4449C34.5498 28.5009 34.549 28.5569 34.5483 28.6129C34.5479 28.7001 34.5477 28.7872 34.5478 28.8744C34.5466 29.5119 34.4191 30.0935 33.9732 30.5746C33.4394 31.0721 32.6581 31.3795 31.9312 31.3945C31.8816 31.3961 31.832 31.3976 31.7809 31.3992C31.6148 31.3781 31.5487 31.3327 31.4325 31.2143C31.3877 31.0801 31.3852 30.9836 31.3848 30.8425C31.3846 30.7911 31.3843 30.7396 31.3841 30.6865C31.384 30.6294 31.384 30.5722 31.384 30.5151C31.3838 30.455 31.3836 30.3948 31.3833 30.3347C31.3828 30.1712 31.3825 30.0077 31.3823 29.8442C31.3822 29.7419 31.382 29.6395 31.3818 29.5372C31.3813 29.2168 31.3809 28.8963 31.3807 28.5758C31.3805 28.2067 31.3798 27.8375 31.3786 27.4684C31.3777 27.1826 31.3773 26.8969 31.3772 26.6111C31.3772 26.4407 31.3769 26.2703 31.3762 26.0998C31.3755 25.9392 31.3754 25.7785 31.3757 25.6178C31.3758 25.5592 31.3756 25.5006 31.3752 25.442C31.3719 24.9535 31.437 24.5111 31.6649 24.0751C31.6792 24.0471 31.6936 24.0191 31.7084 23.9902C31.867 23.69 32.0617 23.4195 32.2681 23.1507C32.3012 23.1076 32.3343 23.0644 32.3684 23.02C32.4189 22.9546 32.4694 22.8892 32.5202 22.8241C32.6727 22.6275 32.8178 22.4259 32.9627 22.2237C33.9214 20.8919 33.9214 20.8919 34.6496 20.7692C34.7159 20.7647 34.7824 20.7618 34.8489 20.7605C34.8872 20.7597 34.9256 20.7589 34.9651 20.7581C35.1395 20.7556 35.3138 20.7536 35.4882 20.7523C35.5801 20.7514 35.6719 20.75 35.7637 20.748C35.8966 20.7452 36.0295 20.7441 36.1625 20.7433C36.2237 20.7415 36.2237 20.7415 36.2861 20.7397C36.5357 20.7405 36.6703 20.7789 36.8502 20.9555C36.9057 21.0199 36.9057 21.0199 36.9814 21.127C37.1629 21.3292 37.374 21.4232 37.6426 21.4566C38.033 21.4677 38.3169 21.3995 38.65 21.2027C38.9558 20.88 39.0518 20.5606 39.0483 20.1254C39.0275 19.8601 38.9401 19.681 38.7675 19.4819C38.7322 19.4517 38.6969 19.4215 38.6605 19.3905C38.6277 19.3612 38.595 19.3319 38.5613 19.3017C38.3256 19.1334 38.1153 19.0754 37.8275 19.0797C37.7981 19.08 37.7687 19.0803 37.7384 19.0806C37.5068 19.0878 37.341 19.1263 37.1564 19.2651C37.133 19.2822 37.1095 19.2993 37.0854 19.3169C36.9898 19.3916 36.9118 19.4652 36.843 19.5654C36.7494 19.6785 36.6736 19.6893 36.5297 19.7247C36.3622 19.7358 36.1952 19.7343 36.0275 19.7332C35.9268 19.7336 35.8262 19.7341 35.7255 19.7347C35.5681 19.7351 35.4107 19.7352 35.2533 19.7343C34.2835 19.7304 33.5994 19.844 32.8838 20.5249C32.5929 20.8319 32.3833 21.2063 32.1646 21.566C31.8967 22.0046 31.6002 22.3896 31.2497 22.7668C30.2818 23.8114 30.063 24.7833 30.0686 26.1762C30.0691 26.3463 30.0683 26.5164 30.0676 26.6865C30.0665 27.0079 30.0663 27.3293 30.0666 27.6506C30.067 28.2267 30.066 28.8028 30.0643 29.3788C30.0638 29.5806 30.0637 29.7823 30.0641 29.984C30.0642 30.1095 30.064 30.235 30.0638 30.3605C30.0637 30.4183 30.0638 30.4762 30.0641 30.534C30.0662 31.0236 30.0575 31.3849 29.6996 31.7473C29.3542 32.0543 29.02 32.0904 28.571 32.07C28.3335 32.0506 28.156 31.9836 27.9647 31.841C27.9344 31.8193 27.9042 31.7976 27.873 31.7753C27.6207 31.5756 27.4473 31.3222 27.3798 31.0054C27.3757 30.881 27.3739 30.7575 27.3742 30.6331C27.374 30.5757 27.374 30.5757 27.3739 30.5172C27.3736 30.3882 27.3736 30.2592 27.3736 30.1301C27.3735 30.0371 27.3733 29.944 27.3732 29.8509C27.3727 29.5944 27.3726 29.3379 27.3725 29.0813C27.3723 28.8333 27.372 28.5853 27.3717 28.3373C27.3708 27.6726 27.3703 27.0079 27.37 26.3431C27.3698 26.0286 27.3696 25.7141 27.3694 25.3995C27.3686 24.3226 27.368 23.2457 27.3677 22.1687C27.3677 22.1011 27.3676 22.0335 27.3676 21.9659C27.3676 21.9323 27.3676 21.8988 27.3676 21.8642C27.3675 21.6943 27.3675 21.5245 27.3674 21.3546C27.3674 21.3208 27.3674 21.2871 27.3674 21.2524C27.3671 20.1599 27.3661 19.0673 27.3647 17.9748C27.3633 16.8195 27.3625 15.6641 27.3623 14.5088C27.3623 14.3819 27.3623 14.2549 27.3623 14.128C27.3623 14.0968 27.3623 14.0655 27.3623 14.0333C27.3622 13.5311 27.3615 13.0288 27.3607 12.5266C27.3598 12.0213 27.3596 11.516 27.36 11.0107C27.3602 10.7372 27.3601 10.4636 27.3593 10.19C27.3586 9.93932 27.3586 9.6886 27.3592 9.43787C27.3593 9.34745 27.3592 9.25702 27.3587 9.16659C27.3527 8.01387 27.6684 7.01035 28.4822 6.1717C28.9099 5.744 29.3953 5.42555 29.9702 5.22691C30.0087 5.21356 30.0473 5.2002 30.087 5.18644C30.761 4.99388 31.5261 5.0469 32.1845 5.26869Z" fill="#6533DD"/>
<path d="M42.3033 24.5477C42.3415 24.5471 42.3797 24.5465 42.4191 24.5458C42.8412 24.5522 43.1636 24.6934 43.4689 24.9825C43.8573 25.42 43.7898 26.0306 43.7578 26.5767C43.7278 26.8339 43.6635 27.0807 43.5907 27.3287C43.5776 27.3744 43.5776 27.3744 43.5642 27.421C43.4957 27.657 43.4192 27.89 43.34 28.1225C43.3266 28.1621 43.3132 28.2017 43.2993 28.2425C42.4869 30.6207 41.2059 32.8872 39.5797 34.8074C39.543 34.8515 39.5062 34.8955 39.4694 34.9396C39.2539 35.1972 39.0338 35.4492 38.8062 35.6961C38.7258 35.7844 38.6475 35.8737 38.5695 35.9641C38.4167 36.139 38.2559 36.3044 38.0915 36.4683C38.0474 36.5125 38.0474 36.5125 38.0024 36.5575C37.9407 36.6193 37.8789 36.681 37.8171 36.7426C37.7234 36.8361 37.6299 36.9299 37.5363 37.0237C37.4759 37.084 37.4155 37.1444 37.3551 37.2047C37.3276 37.2323 37.3001 37.2599 37.2717 37.2884C37.1094 37.4499 36.9426 37.6038 36.7692 37.7533C36.6764 37.8332 36.5862 37.9158 36.4958 37.9984C36.2765 38.1961 36.0491 38.3821 35.8195 38.5677C35.7681 38.6099 35.7167 38.6522 35.6653 38.6945C35.2792 39.0117 34.8862 39.3176 34.4825 39.6122C34.4558 39.6317 34.4291 39.6512 34.4016 39.6713C33.6118 40.2451 32.7886 40.7783 31.9453 41.2698C31.8501 41.3253 31.7553 41.3816 31.6606 41.4379C31.6011 41.4726 31.5417 41.5073 31.4822 41.5419C31.4428 41.5654 31.4428 41.5654 31.4027 41.5894C31.2326 41.6866 31.0861 41.7385 30.8894 41.743C30.8191 41.6934 30.8191 41.6934 30.7641 41.6176C30.7496 41.5229 30.7496 41.5229 30.7512 41.4103C30.7515 41.368 30.7517 41.3256 30.752 41.282C30.7529 41.2359 30.7538 41.1898 30.7548 41.1424C30.7552 41.0942 30.7555 41.0461 30.7559 40.9965C30.7572 40.8414 30.7592 40.6864 30.7615 40.5313C30.7755 39.4864 30.7472 38.4573 30.563 37.4265C30.5519 37.3621 30.5407 37.2976 30.5296 37.2332C30.3928 36.4511 30.2131 35.689 29.9703 34.9328C29.9596 34.8995 29.949 34.8663 29.9381 34.832C29.8856 34.6707 29.8309 34.5175 29.7535 34.3661C29.6694 34.1795 29.6467 34.0503 29.6778 33.8465C29.825 33.6976 29.9302 33.6579 30.1369 33.6492C30.2102 33.6453 30.2102 33.6453 30.285 33.6413C30.3632 33.6382 30.3632 33.6382 30.4429 33.635C30.5523 33.629 30.6617 33.6228 30.7711 33.6163C30.826 33.6132 30.8808 33.61 30.9373 33.6067C31.1748 33.5906 31.4105 33.5651 31.6467 33.5357C31.6859 33.5311 31.7251 33.5265 31.7656 33.5218C31.9974 33.492 32.2164 33.4431 32.4408 33.3781C32.5662 33.3436 32.6919 33.3169 32.8192 33.2903C33.1493 33.215 33.4589 33.0947 33.7723 32.9691C33.8024 32.9571 33.8326 32.9451 33.8637 32.9327C35.0168 32.4723 36.0552 31.8515 36.974 31.0114C37.0612 30.9325 37.1501 30.8565 37.24 30.7808C38.5496 29.634 39.4216 27.9164 40.1195 26.3611C40.4379 25.654 40.7999 24.996 41.533 24.6548C41.7886 24.5651 42.0334 24.5508 42.3033 24.5477Z" fill="#A381FB"/>
<path d="M26.5438 3.99794C26.8865 4.31016 27.1213 4.75726 27.1431 5.22083C27.1527 5.78738 27.1023 6.26435 26.7531 6.73096C26.7325 6.75881 26.712 6.78665 26.6909 6.81534C26.4423 7.12558 26.1261 7.32038 25.7503 7.44123C25.7507 7.46906 25.7511 7.49689 25.7515 7.52556C25.7552 7.81841 25.7577 8.11126 25.7595 8.40414C25.7603 8.51305 25.7615 8.62197 25.7629 8.73088C25.778 9.8872 25.6123 10.9308 24.7773 11.8034C24.4833 12.0846 24.1744 12.294 23.8102 12.4705C23.7828 12.484 23.7554 12.4974 23.7272 12.5113C23.2983 12.7082 22.8485 12.7659 22.381 12.7687C22.3335 12.7695 22.2861 12.7702 22.2372 12.771C22.0878 12.7732 21.9384 12.7747 21.789 12.7761C21.6868 12.7775 21.5846 12.7789 21.4824 12.7804C21.2339 12.7839 20.9853 12.7868 20.7367 12.7891C20.7284 12.8149 20.7202 12.8407 20.7117 12.8673C20.6952 12.9181 20.6952 12.9181 20.6783 12.9699C20.6675 13.0034 20.6567 13.037 20.6455 13.0715C20.5086 13.4465 20.1503 13.7214 19.8175 13.9172C19.2864 14.1609 18.7142 14.211 18.1577 14.0197C17.5885 13.767 17.2168 13.3608 16.9764 12.7891C16.8198 12.3566 16.8283 11.7885 17.0182 11.3686C17.2854 10.8407 17.6762 10.4189 18.2426 10.2111C18.4383 10.15 18.6211 10.136 18.8252 10.1387C18.8597 10.139 18.8942 10.1394 18.9297 10.1397C19.4164 10.153 19.7935 10.2835 20.1518 10.6165C20.1809 10.6424 20.2101 10.6684 20.2402 10.695C20.5 10.9377 20.6632 11.2201 20.8202 11.5357C21.093 11.5389 21.3658 11.5411 21.6386 11.5426C21.7312 11.5432 21.8239 11.5441 21.9166 11.5452C22.0503 11.5467 22.1839 11.5474 22.3176 11.548C22.3587 11.5486 22.3997 11.5492 22.4419 11.5499C23.004 11.55 23.5493 11.3013 23.9552 10.9144C24.1949 10.6547 24.343 10.3649 24.4551 10.0316C24.4693 9.99212 24.4835 9.95261 24.4981 9.91192C24.5629 9.68204 24.5537 9.445 24.556 9.20792C24.5568 9.15733 24.5576 9.10674 24.5585 9.05462C24.5609 8.89372 24.5629 8.73282 24.5648 8.57191C24.5664 8.46254 24.568 8.35316 24.5697 8.24379C24.5737 7.97628 24.5773 7.70876 24.5805 7.44123C24.5478 7.43509 24.5152 7.42895 24.4815 7.42263C24.0909 7.34028 23.7337 7.02428 23.5015 6.71203C23.1587 6.16289 23.0351 5.63231 23.1652 4.99186C23.3117 4.43071 23.6386 4.00837 24.1313 3.70189C24.9327 3.2581 25.8505 3.44602 26.5438 3.99794Z" fill="#7139EB"/>
<path d="M21.3634 6.31314C21.5101 6.43145 21.646 6.55804 21.7812 6.68916C21.8243 6.72689 21.8243 6.72689 21.8682 6.76538C22.4268 7.27328 22.7839 8.12404 22.8349 8.87067C22.8399 9.01664 22.8412 9.16222 22.8414 9.30827C22.8424 9.35774 22.8434 9.40721 22.8445 9.45817C22.8455 9.74256 22.8321 9.92752 22.6586 10.1569C22.4996 10.302 22.3372 10.3012 22.1308 10.2942C21.9476 10.2721 21.8581 10.1943 21.7351 10.0633C21.6425 9.9286 21.6356 9.86154 21.6363 9.69996C21.6356 9.62875 21.6356 9.62875 21.6349 9.5561C21.6349 9.48125 21.6349 9.48125 21.635 9.40489C21.6274 9.00024 21.619 8.64898 21.447 8.27682C21.4293 8.23745 21.4116 8.19808 21.3934 8.15751C21.0974 7.56137 20.6298 7.1844 20.0059 6.9702C19.4354 6.80493 18.7952 6.8508 18.2718 7.13259C18.1564 7.2032 18.0468 7.27809 17.9374 7.35765C17.8977 7.38439 17.8977 7.38439 17.8571 7.41167C17.3748 7.77118 17.165 8.38766 17.06 8.95314C16.9648 9.45596 16.7267 9.84753 16.3077 10.1449C16.2802 10.1626 16.2527 10.1804 16.2244 10.1987C16.193 10.2201 16.1615 10.2415 16.1291 10.2635C15.9928 10.3362 15.8569 10.3675 15.7074 10.3998C14.9337 10.5835 14.3171 10.8852 13.8767 11.5695C13.6974 11.886 13.5878 12.1825 13.5857 12.5469C13.585 12.6255 13.585 12.6255 13.5844 12.7058C13.5842 12.7477 13.5842 12.7477 13.5839 12.7904C13.5834 12.8783 13.5826 12.9661 13.5817 13.054C13.5792 13.3037 13.5769 13.5535 13.5755 13.8032C13.5746 13.9562 13.5731 14.1092 13.5713 14.2622C13.5707 14.3202 13.5703 14.3782 13.5702 14.4362C13.5691 14.8591 13.5566 15.1861 13.2476 15.5022C12.7417 16.0392 12.3865 16.5927 12.3571 17.3536C12.3832 18.1626 12.7281 18.8252 13.2998 19.3904C13.4089 19.4896 13.5188 19.5872 13.6313 19.6825C13.7416 19.7898 13.7966 19.8686 13.8075 20.0233C13.7838 20.2689 13.7276 20.3874 13.5505 20.5603C13.3612 20.6865 13.187 20.6812 12.9656 20.6438C12.817 20.5699 12.7082 20.4663 12.5895 20.3514C12.5494 20.3144 12.5093 20.2775 12.4679 20.2394C12.1679 19.957 11.9302 19.6566 11.7121 19.3068C11.6768 19.2502 11.6768 19.2502 11.6407 19.1924C11.1786 18.4008 11.0834 17.4085 11.2604 16.5154C11.4248 15.8922 11.7324 15.3907 12.1766 14.9264C12.3141 14.769 12.3492 14.6534 12.3489 14.4449C12.3491 14.3774 12.3491 14.3774 12.3493 14.3086C12.3492 14.26 12.349 14.2114 12.3488 14.1613C12.3495 14.0571 12.3501 13.953 12.3508 13.8488C12.3515 13.6855 12.3519 13.5223 12.3516 13.3591C12.3509 12.2775 12.4539 11.3815 13.1745 10.533C13.1971 10.5047 13.2198 10.4765 13.2432 10.4474C13.8041 9.76959 14.6213 9.39759 15.4644 9.21198C15.6466 9.13305 15.7459 9.03077 15.8484 8.86174C15.8989 8.72926 15.9278 8.59581 15.9555 8.45699C16.1681 7.51876 16.682 6.70645 17.5089 6.18349C18.7211 5.45895 20.1999 5.51126 21.3634 6.31314Z" fill="#6E37EA"/>
<path d="M19.0237 19.3487C19.37 19.6103 19.6776 19.9318 19.8175 20.3514C19.8518 20.3516 19.8861 20.3519 19.9214 20.3521C20.2471 20.3546 20.5728 20.3576 20.8985 20.3612C21.0659 20.3631 21.2332 20.3647 21.4006 20.3659C21.5626 20.367 21.7246 20.3687 21.8866 20.3707C21.9479 20.3714 22.0092 20.3719 22.0706 20.3722C22.6083 20.3747 23.1304 20.4204 23.6065 20.6909C23.6362 20.7073 23.666 20.7237 23.6967 20.7406C24.4274 21.1554 24.8901 21.7655 25.1442 22.5631C25.2089 22.826 25.2103 23.0749 25.2072 23.3438C25.2071 23.4311 25.2072 23.5184 25.2073 23.6058C25.2075 23.7427 25.2072 23.8795 25.205 24.0164C25.2031 24.1491 25.2036 24.2817 25.2046 24.4144C25.2028 24.4754 25.2028 24.4754 25.201 24.5376C25.2041 24.7135 25.2085 24.8206 25.3321 24.9522C25.4316 25.0308 25.4316 25.0308 25.5346 25.0958C25.6556 25.1766 25.719 25.272 25.7921 25.3964C25.8154 25.4349 25.8386 25.4735 25.8626 25.5132C26.028 25.8224 26.0152 26.2897 25.9228 26.6253C25.7535 26.984 25.4885 27.2229 25.1236 27.3705C24.9661 27.423 24.8177 27.4216 24.6536 27.4227C24.6073 27.424 24.6073 27.424 24.5601 27.4253C24.2008 27.4279 23.9218 27.2809 23.6613 27.0363C23.3555 26.6535 23.2872 26.307 23.3165 25.8263C23.3404 25.6329 23.4264 25.4807 23.536 25.3233C23.5747 25.2651 23.5747 25.2651 23.6143 25.2058C23.7031 25.1144 23.7031 25.1144 23.7745 25.0749C23.8979 25.0058 23.981 24.954 24.0228 24.8146C24.0329 24.7003 24.0339 24.5893 24.0314 24.4746C24.0315 24.4326 24.0316 24.3906 24.0317 24.3473C24.0315 24.2584 24.0306 24.1695 24.0291 24.0806C24.0269 23.9461 24.0274 23.8118 24.0282 23.6773C24.0267 23.0465 23.9758 22.5428 23.5131 22.0709C23.0455 21.6599 22.5596 21.5853 21.9537 21.5911C21.8946 21.5912 21.8356 21.5913 21.7765 21.5913C21.6537 21.5915 21.5308 21.5921 21.4079 21.5931C21.2505 21.5942 21.0931 21.5947 20.9356 21.5949C20.8141 21.5951 20.6925 21.5955 20.571 21.596C20.5129 21.5962 20.4548 21.5964 20.3967 21.5966C20.3159 21.5968 20.235 21.5975 20.1541 21.5981C20.1082 21.5984 20.0622 21.5986 20.0148 21.5989C19.8971 21.5999 19.8971 21.5999 19.7757 21.6466C19.7419 21.7232 19.7419 21.7232 19.7209 21.8163C19.5846 22.2652 19.2126 22.5909 18.8148 22.8164C18.3786 23.0374 17.8794 23.1256 17.4011 22.9792C16.7628 22.7153 16.3388 22.4028 16.0591 21.7584C16.0447 21.7215 16.0303 21.6846 16.0155 21.6466C16.0001 21.6076 15.9848 21.5687 15.969 21.5286C15.8188 20.9908 15.9494 20.4413 16.2139 19.9649C16.4811 19.5496 16.8744 19.2107 17.3626 19.0913C17.957 18.9728 18.519 18.9918 19.0237 19.3487Z" fill="#6232D8"/>
<path d="M24.9878 15.0531C25.4237 15.3491 25.7609 15.8055 25.8652 16.3305C25.9351 16.9557 25.8038 17.5055 25.436 18.0166C25.254 18.2431 25.0439 18.3775 24.7894 18.5131C24.748 18.5372 24.7067 18.5613 24.6641 18.5862C24.1654 18.794 23.6251 18.7578 23.1182 18.5966C22.5127 18.3044 22.1897 17.8306 21.9483 17.2179C21.3418 17.213 20.7353 17.2093 20.1288 17.2071C19.8472 17.206 19.5656 17.2045 19.2839 17.2021C19.0122 17.1998 18.7405 17.1986 18.4688 17.1981C18.3651 17.1977 18.2613 17.1969 18.1576 17.1958C18.0125 17.1943 17.8674 17.1941 17.7222 17.1942C17.6792 17.1934 17.6362 17.1927 17.5919 17.1919C17.3471 17.1931 17.3471 17.1931 17.1407 17.3183C17.1141 17.3541 17.0874 17.3899 17.06 17.4268C17.0241 17.4702 17.0241 17.4702 16.9874 17.5144C16.9657 17.5415 16.944 17.5686 16.9216 17.5965C16.7109 17.8392 16.4526 17.9449 16.1408 18.0117C15.6972 18.0403 15.3602 17.9352 15.0164 17.6538C14.7636 17.422 14.6183 17.1235 14.585 16.7815C14.5737 16.3745 14.6735 16.0958 14.9371 15.7843C15.2166 15.4909 15.5084 15.335 15.9137 15.3247C16.4145 15.332 16.7152 15.5316 17.06 15.8809C17.0785 15.9031 17.0969 15.9253 17.116 15.9481C17.2079 16.0252 17.2614 16.0219 17.3804 16.0219C17.4205 16.0222 17.4605 16.0225 17.5018 16.0228C17.5457 16.0225 17.5896 16.0221 17.6348 16.0218C17.6811 16.022 17.7274 16.0221 17.775 16.0223C17.9284 16.0226 18.0817 16.022 18.2351 16.0214C18.3414 16.0214 18.4477 16.0214 18.554 16.0215C18.777 16.0215 18.9999 16.0211 19.2229 16.0203C19.4807 16.0194 19.7385 16.0193 19.9963 16.0195C20.2443 16.0198 20.4922 16.0195 20.7402 16.0191C20.8457 16.0189 20.9513 16.0189 21.0568 16.0189C21.2042 16.0189 21.3515 16.0184 21.4989 16.0177C21.5427 16.0178 21.5866 16.0179 21.6319 16.018C21.6719 16.0177 21.712 16.0175 21.7533 16.0171C21.7881 16.0171 21.823 16.017 21.8589 16.0169C21.9608 16.0116 21.9608 16.0116 22.0737 15.9227C22.1265 15.8401 22.1265 15.8401 22.1729 15.7451C22.4237 15.2827 22.8296 14.969 23.3271 14.7946C23.8961 14.6347 24.49 14.7603 24.9878 15.0531Z" fill="#6734E0"/>
<path d="M37.8823 14.5805C38.0211 14.6918 38.1144 14.8046 38.2009 14.9617C38.225 15.0039 38.2492 15.0462 38.274 15.0897C38.3734 15.3366 38.3702 15.641 38.2988 15.8949C38.1484 16.223 37.8985 16.48 37.5742 16.6329C37.2977 16.7224 36.9289 16.7338 36.6581 16.6261C36.555 16.5635 36.4588 16.4968 36.3626 16.424C35.6753 15.9482 34.8207 15.8069 34.0021 15.9514C33.108 16.142 32.4977 16.6837 32.0085 17.4296C31.9554 17.512 31.9027 17.5946 31.8503 17.6774C31.8336 17.7036 31.817 17.7299 31.7998 17.7569C31.4666 18.2847 31.2119 18.8087 31.0382 19.4087C30.8756 19.9677 30.6622 20.6544 30.1427 20.9862C29.9523 21.0582 29.7512 21.0498 29.5524 21.0199C29.429 20.9554 29.3477 20.8762 29.2599 20.7692C29.2198 20.7227 29.2198 20.7227 29.179 20.6752C29.1009 20.4732 29.0918 20.2577 29.1679 20.0529C29.1964 19.9973 29.2263 19.9424 29.2575 19.8882C29.3102 19.7986 29.3102 19.7986 29.3539 19.6516C29.4899 19.2816 29.7521 18.9772 30.0093 18.6854C30.4301 18.205 30.704 17.6856 30.9693 17.1074C31.3471 16.2875 31.3471 16.2875 31.6414 15.9644C31.6697 15.9328 31.6979 15.9012 31.7271 15.8686C32.149 15.4212 32.7108 15.1062 33.31 14.9695C33.3486 14.9607 33.3873 14.9519 33.4271 14.9428C34.0153 14.8223 34.6397 14.8371 35.234 14.9104C35.363 14.925 35.4912 14.9286 35.621 14.9304C35.6694 14.9314 35.7179 14.9325 35.7679 14.9336C35.9159 14.9186 35.9901 14.8766 36.1119 14.7946C36.1395 14.7946 36.167 14.7946 36.1955 14.7946C36.2092 14.7532 36.223 14.7119 36.2372 14.6692C36.7552 14.2159 37.3193 14.182 37.8823 14.5805Z" fill="#160D2D"/>
<path d="M25.5362 4.68371C25.7433 4.81623 25.9223 4.99054 26.001 5.22686C26.0291 5.53769 26.026 5.80616 25.8339 6.06247C25.6549 6.26422 25.4549 6.33506 25.1911 6.36701C24.9189 6.38285 24.7468 6.32126 24.5387 6.14603C24.3597 5.96219 24.2585 5.75704 24.2306 5.50104C24.2633 5.19054 24.3634 5.00211 24.5882 4.78588C24.845 4.58153 25.2305 4.57578 25.5362 4.68371Z" fill="#160D2D"/>
<path d="M18.4749 20.363C18.6516 20.5055 18.7528 20.6715 18.7859 20.8999C18.8021 21.2041 18.7182 21.4132 18.5224 21.6466C18.4262 21.7221 18.3432 21.7636 18.2299 21.8137C18.1885 21.8344 18.1885 21.8344 18.1463 21.8555C17.8618 21.8861 17.6181 21.8875 17.3812 21.7148C17.183 21.523 17.0562 21.2868 17.047 21.0094C17.0514 20.7642 17.1392 20.6086 17.3068 20.4369C17.6687 20.1048 18.0621 20.0889 18.4749 20.363Z" fill="#160D2D"/>
<path d="M24.2899 15.957C24.4817 16.0726 24.614 16.2533 24.7242 16.445C24.7849 16.7149 24.7585 16.9241 24.6396 17.1712C24.5227 17.3463 24.349 17.459 24.1628 17.5521C23.8423 17.5885 23.5822 17.5845 23.3221 17.3809C23.1471 17.2037 23.0261 17.0061 23.0138 16.7531C23.0534 16.4458 23.1832 16.2129 23.4107 16.0063C23.6984 15.8411 23.9873 15.8316 24.2899 15.957Z" fill="#160D2D"/>
<path d="M19.2053 11.3529C19.4278 11.4488 19.5978 11.6037 19.6923 11.8282C19.73 12.0802 19.7445 12.3507 19.6244 12.5829C19.4876 12.752 19.3603 12.8859 19.1491 12.9563C18.6461 12.9944 18.6461 12.9944 18.4127 12.8858C18.1893 12.6682 18.0189 12.4409 18.0054 12.118C18.0322 11.8363 18.1462 11.6787 18.3553 11.494C18.3906 11.4621 18.4259 11.4302 18.4623 11.3973C18.6999 11.2807 18.9506 11.285 19.2053 11.3529Z" fill="#160D2D"/>
<path d="M5.65394 17.3014C5.66773 17.3014 5.68152 17.3014 5.69572 17.3014C5.69685 17.3754 5.69766 17.4494 5.69833 17.5234C5.69882 17.5646 5.6993 17.6058 5.6998 17.6482C5.69572 17.761 5.69572 17.761 5.65394 17.8864C5.6434 17.9694 5.63289 18.0524 5.62391 18.1356C5.61197 18.222 5.59157 18.3031 5.57038 18.3877C5.41378 19.2542 5.41378 19.2542 5.36311 20.1303C5.36148 20.2261 5.36148 20.2261 5.3197 20.2678C5.31665 20.3923 5.31986 20.5162 5.32231 20.6406C5.3197 20.7692 5.3197 20.7692 5.29881 20.8717C5.27234 21.0065 5.27555 21.1333 5.27792 21.2706C5.2826 21.5423 5.2826 21.5423 5.25769 21.6528C5.2278 21.818 5.22631 21.9811 5.22292 22.1488C5.22205 22.1847 5.22118 22.2205 5.22029 22.2575C5.21757 22.3716 5.2151 22.4856 5.21264 22.5997C5.21083 22.6773 5.20901 22.7548 5.20717 22.8324C5.20271 23.022 5.19847 23.2117 5.19436 23.4014C5.18057 23.4014 5.16678 23.4014 5.15258 23.4014C5.13285 21.342 5.20139 19.3183 5.65394 17.3014Z" fill="#9D66FA"/>
<path d="M27.5052 7.85905C27.5887 7.9844 27.5887 7.9844 27.5787 8.08479C27.57 8.12587 27.5613 8.16696 27.5523 8.20929C27.4911 8.56556 27.4973 8.91615 27.5012 9.27675C27.5035 9.49133 27.5043 9.70591 27.505 9.92049C27.5052 9.96581 27.5053 10.0111 27.5055 10.0578C27.5067 10.6263 27.4955 11.1946 27.4843 11.7629C27.4833 11.8144 27.4823 11.866 27.4812 11.9191C27.4755 12.2091 27.4696 12.4991 27.4634 12.7891C27.4496 12.7891 27.4358 12.7891 27.4216 12.7891C27.4206 12.2313 27.4199 11.6734 27.4194 11.1155C27.4192 10.8564 27.4189 10.5973 27.4185 10.3383C27.418 10.0879 27.4177 9.83763 27.4176 9.58732C27.4176 9.49211 27.4174 9.3969 27.4172 9.3017C27.4143 8.04077 27.4143 8.04077 27.5052 7.85905Z" fill="#6628E8"/>
<path d="M17.2689 17.176C17.8776 17.1741 18.4863 17.1726 19.0949 17.1717C19.3776 17.1713 19.6602 17.1707 19.9428 17.1697C20.2153 17.1688 20.4878 17.1683 20.7603 17.1681C20.8645 17.168 20.9687 17.1677 21.0729 17.1672C21.2184 17.1666 21.3638 17.1665 21.5093 17.1666C21.5527 17.1663 21.5962 17.166 21.641 17.1656C21.7002 17.1658 21.7002 17.1658 21.7606 17.166C21.7951 17.1659 21.8295 17.1658 21.865 17.1658C21.9483 17.176 21.9483 17.176 22.0319 17.2596C22.0162 17.3484 22.0162 17.3484 21.9901 17.4267C21.9487 17.3233 21.9487 17.3233 21.9065 17.2178C20.3761 17.2178 18.8457 17.2178 17.2689 17.2178C17.2689 17.204 17.2689 17.1903 17.2689 17.176Z" fill="#E2D8F9"/>
<path d="M5.65397 17.3014C5.66776 17.3014 5.68155 17.3014 5.69575 17.3014C5.69688 17.3754 5.69769 17.4494 5.69837 17.5234C5.69885 17.5646 5.69934 17.6058 5.69983 17.6482C5.69575 17.761 5.69575 17.761 5.65397 17.8864C5.64343 17.9694 5.63292 18.0524 5.62394 18.1356C5.61219 18.2206 5.61219 18.2206 5.59261 18.2978C5.56311 18.4173 5.54651 18.5375 5.52863 18.6593C5.50684 18.8078 5.48482 18.9532 5.44507 19.098C5.4175 19.098 5.38992 19.098 5.36151 19.098C5.41359 18.4894 5.52702 17.8985 5.65397 17.3014Z" fill="#A06DFA"/>
<path d="M27.338 43.4559C27.3656 43.4697 27.3932 43.4835 27.4216 43.4977C27.1576 43.6381 26.8929 43.7773 26.6278 43.9155C26.589 43.9358 26.5501 43.9561 26.5102 43.977C26.3964 44.0362 26.2824 44.0948 26.1682 44.1532C26.1325 44.1718 26.0968 44.1904 26.0601 44.2096C26.0268 44.2265 25.9936 44.2433 25.9593 44.2607C25.93 44.2758 25.9007 44.2908 25.8705 44.3064C25.7922 44.3333 25.7922 44.3333 25.6668 44.2916C25.7326 44.259 25.7326 44.259 25.7998 44.2258C25.8591 44.1964 25.9183 44.1669 25.9776 44.1375C26.0081 44.1223 26.0386 44.1072 26.07 44.0915C26.264 43.9946 26.4541 43.8936 26.6403 43.7824C26.7113 43.7484 26.7113 43.7484 26.8367 43.7484C26.8367 43.7208 26.8367 43.6933 26.8367 43.6648C26.9183 43.6288 27.0002 43.5932 27.0821 43.5578C27.1277 43.5379 27.1732 43.518 27.2202 43.4976C27.2591 43.4838 27.298 43.4701 27.338 43.4559Z" fill="#622BDD"/>
<path d="M29.4688 5.47755C29.4173 5.63198 29.3813 5.63804 29.2416 5.71257C28.9122 5.90183 28.6454 6.16685 28.3825 6.4385C28.3411 6.42472 28.2998 6.41093 28.2571 6.39672C29.1052 5.47755 29.1052 5.47755 29.4688 5.47755Z" fill="#793FF3"/>
<path d="M8.82935 15.9645C9.1027 16.2079 9.21903 16.6063 9.3281 16.9463C9.34211 16.9891 9.34211 16.9891 9.35639 17.0327C9.40041 17.1767 9.43117 17.2839 9.37249 17.4268C9.34492 17.413 9.31734 17.3992 9.28893 17.385C9.27375 17.2877 9.26008 17.1902 9.24715 17.0925C9.15209 16.7543 9.03585 16.4344 8.8677 16.1255C8.82935 16.048 8.82935 16.048 8.82935 15.9645Z" fill="#A474F9"/>
<path d="M12.0464 24.1952C12.0602 24.1952 12.074 24.1952 12.0882 24.1952C12.0963 24.3983 12.0749 24.5482 12.0046 24.7383C11.948 24.9593 11.9344 25.1873 12.0046 25.4068C11.9633 25.4206 11.9219 25.4344 11.8793 25.4486C11.8519 24.5841 11.8519 24.5841 12.0464 24.1952Z" fill="#9052FA"/>
<path d="M27.5051 7.85905C27.5887 7.9844 27.5887 7.9844 27.5786 8.08313C27.5655 8.14413 27.5655 8.14413 27.5521 8.20635C27.4794 8.6168 27.4979 9.03132 27.5051 9.44671C27.4776 9.44671 27.45 9.44671 27.4216 9.44671C27.4106 8.04823 27.4106 8.04823 27.5051 7.85905Z" fill="#6D2FEC"/>
<path d="M22.2408 45.6285C22.2822 45.6423 22.3235 45.6561 22.3661 45.6703C22.3386 45.6703 22.311 45.6703 22.2826 45.6703C22.2826 45.7116 22.2826 45.753 22.2826 45.7956C22.0929 45.8427 21.9101 45.845 21.7159 45.8452C21.6686 45.846 21.6686 45.846 21.6204 45.8468C21.459 45.8472 21.3329 45.8455 21.1963 45.7538C21.1963 45.7262 21.1963 45.6987 21.1963 45.6703C21.2514 45.6703 21.3066 45.6703 21.3634 45.6703C21.3634 45.6978 21.3634 45.7254 21.3634 45.7538C21.4505 45.755 21.5375 45.7558 21.6245 45.7564C21.6972 45.7572 21.6972 45.7572 21.7714 45.7579C21.8828 45.7545 21.9674 45.7391 22.0737 45.712C22.1013 45.7258 22.1288 45.7396 22.1572 45.7538C22.1572 45.7262 22.1572 45.6987 22.1572 45.6703C22.1848 45.6565 22.2124 45.6427 22.2408 45.6285Z" fill="#6532DB"/>
<path d="M9.66488 19.9336C9.74589 20.0706 9.7607 20.1782 9.76574 20.3364C9.76736 20.3811 9.76898 20.4258 9.77064 20.4719C9.77258 20.5415 9.77258 20.5415 9.77456 20.6125C9.77617 20.6596 9.77779 20.7067 9.77945 20.7552C9.78339 20.8713 9.78697 20.9874 9.79022 21.1035C9.76265 21.1035 9.73507 21.1035 9.70666 21.1035C9.65945 20.7131 9.66074 20.326 9.66488 19.9336Z" fill="#9B61FA"/>
<path d="M35.8689 8.23241C35.9002 8.2326 35.9316 8.23279 35.9638 8.23299C36.041 8.23348 36.1182 8.23423 36.1953 8.23503C36.1953 8.24881 36.1953 8.2626 36.1953 8.27681C36.1555 8.27934 36.1157 8.28187 36.0747 8.28448C36.0223 8.28798 35.9699 8.29148 35.9159 8.29509C35.8641 8.29848 35.8122 8.30187 35.7588 8.30537C35.6355 8.31635 35.5206 8.3271 35.4015 8.36037C35.3447 8.44257 35.3447 8.44257 35.3179 8.52749C35.2904 8.52749 35.2628 8.52749 35.2344 8.52749C35.2206 8.67915 35.2068 8.83081 35.1926 8.98707C35.1788 8.98707 35.165 8.98707 35.1508 8.98707C35.1344 8.70739 35.1515 8.54763 35.3388 8.32903C35.4922 8.20126 35.6812 8.23028 35.8689 8.23241Z" fill="#9C72F3"/>
<path d="M19.9847 42.871C20.0682 42.9546 20.0682 42.9546 20.1074 43.0356C20.1473 43.1245 20.1473 43.1245 20.2197 43.187C20.2771 43.2471 20.2771 43.2471 20.2771 43.3724C20.3047 43.3724 20.3323 43.3724 20.3607 43.3724C20.4742 43.5285 20.5223 43.6881 20.5696 43.8738C20.542 43.8738 20.5145 43.8738 20.486 43.8738C20.4674 43.838 20.4487 43.8021 20.4294 43.7652C20.2668 43.4529 20.2668 43.4529 20.0709 43.1609C19.9847 43.0382 19.9847 43.0382 19.9847 42.871Z" fill="#6D36E2"/>
<path d="M5.3197 25.0308C5.33349 25.0308 5.34728 25.0308 5.36148 25.0308C5.36148 25.1135 5.36148 25.1963 5.36148 25.2815C5.40285 25.2953 5.44421 25.3091 5.48682 25.3233C5.48596 25.3638 5.4851 25.4043 5.48421 25.446C5.47194 25.5687 5.47194 25.5687 5.5286 25.6157C5.52486 25.6864 5.51834 25.7569 5.51033 25.8272C5.50607 25.8656 5.50182 25.904 5.49743 25.9436C5.49218 25.9881 5.49218 25.9881 5.48682 26.0335C5.47304 26.0335 5.45925 26.0335 5.44504 26.0335C5.42376 25.9292 5.40294 25.8247 5.38237 25.7202C5.37639 25.6911 5.37042 25.662 5.36426 25.6321C5.3246 25.4281 5.31409 25.2386 5.3197 25.0308Z" fill="#9D68FB"/>
<path d="M11.921 19.5158C12.0428 19.6339 12.1561 19.7545 12.2657 19.884C12.4277 20.0717 12.61 20.2325 12.7984 20.3932C12.7708 20.4208 12.7433 20.4483 12.7148 20.4767C12.6135 20.3779 12.5127 20.2785 12.4119 20.1791C12.3834 20.1513 12.355 20.1235 12.3256 20.0948C12.1686 19.9394 12.0315 19.7913 11.921 19.5994C11.921 19.5718 11.921 19.5442 11.921 19.5158Z" fill="#6B39DE"/>
<path d="M16.7676 19.4322C16.746 19.6037 16.657 19.6811 16.5352 19.7978C16.4834 19.8478 16.4834 19.8478 16.4306 19.8989C16.4039 19.9241 16.3773 19.9494 16.3498 19.9753C16.3222 19.9477 16.2946 19.9202 16.2662 19.8918C16.3123 19.8386 16.3585 19.7855 16.4046 19.7325C16.4303 19.7029 16.456 19.6733 16.4825 19.6429C16.6706 19.4322 16.6706 19.4322 16.7676 19.4322Z" fill="#6939E0"/>
<path d="M6.57317 15.3795C6.60075 15.3933 6.62832 15.4071 6.65674 15.4213C6.62803 15.4576 6.59932 15.4939 6.56975 15.5313C6.53171 15.5799 6.49368 15.6285 6.45567 15.6772C6.43679 15.701 6.41791 15.7248 6.39846 15.7493C6.28306 15.8976 6.19224 16.0432 6.11359 16.2151C6.08602 16.2151 6.05844 16.2151 6.03003 16.2151C6.08456 16.0238 6.15909 15.8857 6.2781 15.7268C6.30691 15.6878 6.33573 15.6489 6.36541 15.6088C6.43111 15.5259 6.49621 15.4516 6.57317 15.3795Z" fill="#A271FA"/>
<path d="M5.36152 19.098C5.37531 19.098 5.38909 19.098 5.4033 19.098C5.40444 19.1963 5.40526 19.2947 5.40591 19.393C5.40639 19.4478 5.40688 19.5026 5.40738 19.559C5.40353 19.7154 5.38573 19.8628 5.36152 20.0171C5.36004 20.0867 5.35941 20.1564 5.36152 20.226C5.33394 20.2398 5.30637 20.2536 5.27796 20.2678C5.26695 19.8654 5.29396 19.4949 5.36152 19.098Z" fill="#9258FA"/>
<path d="M5.98823 16.2569C6.03474 16.3292 6.03474 16.3292 6.07179 16.424C6.04486 16.5123 6.04486 16.5123 5.99607 16.6042C5.91365 16.7718 5.87867 16.9071 5.86289 17.0925C5.82153 17.1063 5.78016 17.1201 5.73755 17.1343C5.76162 16.9193 5.81056 16.7353 5.88639 16.5311C5.9054 16.4795 5.92441 16.4278 5.944 16.3746C5.9586 16.3358 5.97319 16.2969 5.98823 16.2569Z" fill="#A16DFA"/>
<path d="M34.1901 15.8809C34.3276 15.8784 34.4651 15.877 34.6026 15.8757C34.641 15.875 34.6793 15.8743 34.7188 15.8736C34.9842 15.8717 35.2273 15.9023 35.4853 15.9645C35.3452 16.0579 35.322 16.0553 35.1641 16.0324C35.1303 16.0277 35.0965 16.0231 35.0617 16.0183C35.036 16.0143 35.0104 16.0104 34.9839 16.0063C34.9839 15.9787 34.9839 15.9511 34.9839 15.9227C34.7219 15.9227 34.46 15.9227 34.1901 15.9227C34.1901 15.9089 34.1901 15.8951 34.1901 15.8809Z" fill="#966DEC"/>
<path d="M34.6079 10.909C34.6217 10.9504 34.6355 10.9918 34.6497 11.0344C34.5044 11.2672 34.3075 11.4169 34.0648 11.5357C34.0372 11.5082 34.0096 11.4806 33.9812 11.4522C34.0054 11.4375 34.0297 11.4228 34.0546 11.4076C34.2814 11.2643 34.4429 11.1206 34.6079 10.909Z" fill="#7540EC"/>
<path d="M35.0674 9.53026C35.095 9.54405 35.1225 9.55783 35.151 9.57204C35.1322 9.76867 35.11 9.96293 35.0726 10.157C35.0667 10.188 35.0608 10.219 35.0547 10.251C35.0451 10.2751 35.0355 10.2992 35.0256 10.3241C34.9842 10.3379 34.9429 10.3517 34.9003 10.3659C34.9554 10.0901 35.0106 9.81436 35.0674 9.53026Z" fill="#8352EC"/>
<path d="M9.53961 18.4295C9.55339 18.4295 9.56718 18.4295 9.58139 18.4295C9.63397 18.7112 9.67598 18.9783 9.66495 19.2651C9.63737 19.2651 9.6098 19.2651 9.58139 19.2651C9.54956 19.0848 9.5329 18.9415 9.58139 18.7637C9.55381 18.7637 9.52624 18.7637 9.49783 18.7637C9.49605 18.6663 9.49612 18.5687 9.49783 18.4713C9.51161 18.4575 9.5254 18.4437 9.53961 18.4295Z" fill="#9C69FA"/>
<path d="M39.4126 12.3296C39.5233 12.3833 39.6338 12.4373 39.7442 12.4915C39.7758 12.5067 39.8073 12.522 39.8398 12.5377C39.8848 12.5599 39.8848 12.5599 39.9308 12.5826C39.9586 12.5961 39.9863 12.6097 40.015 12.6237C40.0811 12.6638 40.0811 12.6638 40.1229 12.7474C39.946 12.7215 39.8086 12.6594 39.6502 12.5777C39.6056 12.5548 39.5609 12.5319 39.5149 12.5083C39.4812 12.4907 39.4474 12.4731 39.4126 12.4549C39.4126 12.4136 39.4126 12.3722 39.4126 12.3296Z" fill="#6B33E9"/>
<path d="M19.0237 19.4322C19.2028 19.4892 19.2925 19.5662 19.4128 19.709C19.442 19.7431 19.4711 19.7773 19.5011 19.8124C19.5228 19.8386 19.5445 19.8648 19.5669 19.8918C19.5255 19.9538 19.5255 19.9538 19.4833 20.0171C19.4607 19.9854 19.438 19.9537 19.4146 19.921C19.3847 19.8794 19.3548 19.8379 19.324 19.7951C19.2945 19.7539 19.2649 19.7127 19.2344 19.6703C19.168 19.5826 19.1042 19.5065 19.0237 19.4322Z" fill="#6B39E0"/>
<path d="M5.19439 23.5685C5.22197 23.5685 5.24954 23.5685 5.27795 23.5685C5.32939 23.7224 5.31588 23.8574 5.30145 24.0176C5.2972 24.0665 5.29294 24.1154 5.28856 24.1658C5.28506 24.2031 5.28156 24.2403 5.27795 24.2787C5.26417 24.2787 5.25038 24.2787 5.23617 24.2787C5.20141 24.0397 5.18936 23.8099 5.19439 23.5685Z" fill="#975BF9"/>
<path d="M12.9238 27.1198C13.0966 27.2611 13.2502 27.3983 13.3834 27.5794C13.258 27.5794 13.258 27.5794 13.1635 27.4972C13.1301 27.4623 13.0967 27.4274 13.0622 27.3914C13.0284 27.3565 12.9947 27.3216 12.9599 27.2856C12.9342 27.2585 12.9085 27.2314 12.882 27.2034C12.8958 27.1758 12.9096 27.1482 12.9238 27.1198Z" fill="#8949F6"/>
<path d="M13.5505 19.6829C13.6502 19.7228 13.7068 19.7497 13.766 19.8409C13.8076 19.9504 13.8025 20.0169 13.7856 20.1321C13.7809 20.1655 13.7763 20.1989 13.7715 20.2333C13.7675 20.2585 13.7635 20.2837 13.7594 20.3096C13.6705 20.1763 13.6619 20.0876 13.646 19.9312C13.6321 19.8363 13.6013 19.7641 13.5505 19.6829Z" fill="#7A4BE0"/>
<path d="M30.8893 5.10152C30.7773 5.21349 30.692 5.21307 30.5367 5.23731C30.4885 5.24528 30.4403 5.25325 30.3907 5.26146C30.2625 5.26864 30.2625 5.26864 30.1372 5.18508C30.3941 5.11707 30.6235 5.09309 30.8893 5.10152Z" fill="#8B59F6"/>
<path d="M27.338 43.4559C27.3656 43.4697 27.3932 43.4835 27.4216 43.4977C27.0907 43.6632 27.0907 43.6632 26.7531 43.832C26.7393 43.8044 26.7255 43.7768 26.7113 43.7484C26.7527 43.7484 26.794 43.7484 26.8366 43.7484C26.8366 43.7208 26.8366 43.6933 26.8366 43.6648C26.9183 43.6288 27.0002 43.5932 27.0821 43.5578C27.1277 43.5379 27.1732 43.518 27.2202 43.4976C27.2591 43.4838 27.2979 43.4701 27.338 43.4559Z" fill="#6933E1"/>
<path d="M38.6187 11.1179C38.6325 11.1179 38.6463 11.1179 38.6605 11.1179C38.6743 11.3109 38.6881 11.504 38.7023 11.7028C38.7161 11.7028 38.7299 11.7028 38.7441 11.7028C38.7441 11.7993 38.7441 11.8959 38.7441 11.9953C38.7165 11.9953 38.6889 11.9953 38.6605 11.9953C38.6114 11.8972 38.6139 11.8391 38.6146 11.7299C38.6148 11.6944 38.6149 11.6588 38.6151 11.6222C38.6154 11.585 38.6158 11.5479 38.6161 11.5096C38.6163 11.4721 38.6165 11.4346 38.6167 11.396C38.6172 11.3033 38.6179 11.2106 38.6187 11.1179Z" fill="#E8DDF9"/>
<path d="M23.912 3.84808C23.9534 3.86187 23.9948 3.87566 24.0374 3.88986C23.9695 3.96126 23.8998 4.03085 23.8285 4.09877C23.8009 4.09877 23.7733 4.09877 23.7449 4.09877C23.7173 4.15392 23.6898 4.20907 23.6614 4.26589C23.62 4.26589 23.5786 4.26589 23.536 4.26589C23.5751 4.2197 23.6143 4.17358 23.6535 4.12749C23.6753 4.1018 23.6971 4.07611 23.7196 4.04964C23.7813 3.97951 23.8452 3.91331 23.912 3.84808Z" fill="#783DF5"/>
<path d="M26.4188 4.01524C26.5653 4.03875 26.6257 4.08426 26.7191 4.19803C26.7404 4.22335 26.7617 4.24866 26.7836 4.27474C26.8366 4.34949 26.8366 4.34949 26.8784 4.47483C26.837 4.49551 26.837 4.49551 26.7948 4.51661C26.6695 4.34949 26.5442 4.18237 26.4188 4.01524Z" fill="#7D42F6"/>
<path d="M20.862 45.1689C20.8896 45.1689 20.9172 45.1689 20.9456 45.1689C20.949 45.1905 20.9525 45.212 20.956 45.2342C21.0008 45.3797 21.0766 45.4978 21.1545 45.6285C21.0788 45.6207 21.0788 45.6207 20.9874 45.5867C20.8778 45.4458 20.8468 45.3462 20.862 45.1689Z" fill="#6833DB"/>
<path d="M12.7567 23.5685C12.7567 23.5961 12.7567 23.6236 12.7567 23.652C12.688 23.7121 12.688 23.7121 12.5974 23.7774C12.5531 23.8097 12.5531 23.8097 12.5078 23.8427C12.4383 23.8916 12.3678 23.9391 12.2971 23.9863C12.2971 23.9449 12.2971 23.9036 12.2971 23.8609C12.3764 23.7847 12.3764 23.7847 12.4799 23.7069C12.5138 23.6809 12.5478 23.6549 12.5827 23.6281C12.6731 23.5685 12.6731 23.5685 12.7567 23.5685Z" fill="#9763FA"/>
<path d="M11.3779 16.1316C11.3917 16.1316 11.4055 16.1316 11.4197 16.1316C11.4242 16.2055 11.4274 16.2795 11.4301 16.3536C11.4321 16.3948 11.434 16.436 11.436 16.4784C11.4197 16.5912 11.4197 16.5912 11.3355 16.6687C11.3081 16.6845 11.2808 16.7003 11.2526 16.7165C11.274 16.5089 11.3041 16.3284 11.3779 16.1316Z" fill="#8559EA"/>
<path d="M17.1018 6.48035C17.1156 6.52171 17.1294 6.56307 17.1436 6.60569C17.0471 6.7022 16.9505 6.79871 16.8511 6.89815C16.8097 6.88436 16.7684 6.87058 16.7258 6.85637C16.8499 6.73228 16.9739 6.60819 17.1018 6.48035Z" fill="#7841F0"/>
<path d="M33.438 11.6611C33.438 11.6887 33.438 11.7163 33.438 11.7447C33.2435 11.7797 33.0883 11.7871 32.8949 11.7447C32.8949 11.7309 32.8949 11.7171 32.8949 11.7029C33.0781 11.6736 33.2525 11.6566 33.438 11.6611Z" fill="#723FE8"/>
<path d="M27.5051 7.85905C27.6122 8.01963 27.5853 8.07765 27.5521 8.2638C27.5436 8.31308 27.5351 8.36236 27.5263 8.41313C27.5193 8.45089 27.5123 8.48864 27.5051 8.52754C27.4776 8.52754 27.45 8.52754 27.4216 8.52754C27.4274 8.43178 27.4336 8.33604 27.4398 8.2403C27.4432 8.18698 27.4466 8.13366 27.4501 8.07873C27.4634 7.94262 27.4634 7.94262 27.5051 7.85905Z" fill="#7B43F3"/>
<path d="M20.6531 44.1662C20.7515 44.2728 20.7778 44.3212 20.7863 44.4691C20.7837 44.5071 20.7811 44.545 20.7785 44.584C20.8061 44.584 20.8336 44.584 20.862 44.584C20.8483 44.653 20.8345 44.7219 20.8203 44.7929C20.7257 44.6984 20.7165 44.6546 20.6897 44.5266C20.6827 44.4944 20.6757 44.4622 20.6685 44.429C20.6531 44.3334 20.6531 44.3334 20.6531 44.1662Z" fill="#642AE1"/>
<path d="M12.0464 24.1952C12.0601 24.1952 12.0739 24.1952 12.0881 24.1952C12.0956 24.3852 12.0881 24.5244 12.0046 24.6965C11.977 24.6827 11.9494 24.6689 11.921 24.6547C11.9339 24.5938 11.947 24.5329 11.9602 24.472C11.9675 24.438 11.9747 24.4041 11.9822 24.3691C12.0046 24.2787 12.0046 24.2787 12.0464 24.1952Z" fill="#9B66FB"/>
<path d="M30.179 24.1534C30.2066 24.1534 30.2342 24.1534 30.2626 24.1534C30.2508 24.2205 30.2385 24.2875 30.226 24.3544C30.2192 24.3918 30.2125 24.4291 30.2055 24.4675C30.179 24.5712 30.179 24.5712 30.0955 24.6965C30.046 24.5481 30.0664 24.5002 30.1137 24.3544C30.1258 24.3168 30.1378 24.2791 30.1501 24.2404C30.1597 24.2116 30.1692 24.1829 30.179 24.1534Z" fill="#6943D1"/>
<path d="M9.41425 17.4686C9.42803 17.4686 9.44182 17.4686 9.45603 17.4686C9.47021 17.5338 9.48407 17.5991 9.49781 17.6644C9.50556 17.7008 9.51332 17.7371 9.52131 17.7746C9.53916 17.8838 9.54277 17.9849 9.53959 18.0953C9.49822 18.0815 9.45686 18.0677 9.41425 18.0535C9.41425 17.8605 9.41425 17.6675 9.41425 17.4686Z" fill="#A578F9"/>
<path d="M9.95737 22.9418C9.97116 22.9418 9.98494 22.9418 9.99915 22.9418C10.0267 23.1486 10.0543 23.3554 10.0827 23.5685C10.0413 23.5547 9.99998 23.5409 9.95737 23.5267C9.95823 23.4948 9.95909 23.4629 9.95998 23.4301C9.96278 23.3136 9.96278 23.3136 9.91559 23.1925C9.92711 23.1085 9.94076 23.0249 9.95737 22.9418Z" fill="#9156F9"/>
<path d="M31.3071 10.1152C31.3485 10.1566 31.3898 10.198 31.4325 10.2406C31.2394 10.2544 31.0464 10.2682 30.8475 10.2824C30.8475 10.2548 30.8475 10.2272 30.8475 10.1988C31.0049 10.1403 31.1386 10.0925 31.3071 10.1152Z" fill="#7D47ED"/>
<path d="M23.2436 4.72552C23.2712 4.7531 23.2987 4.78068 23.3272 4.80909C23.3143 4.93203 23.299 5.03242 23.2436 5.14333C23.216 5.14333 23.1884 5.14333 23.16 5.14333C23.1876 5.00545 23.2152 4.86758 23.2436 4.72552Z" fill="#814AF5"/>
<path d="M10.8765 26.3677C10.9887 26.4799 11.0044 26.5923 11.0436 26.7437C11.016 26.7713 10.9885 26.7989 10.96 26.8273C10.9379 26.7665 10.9162 26.7055 10.8948 26.6445C10.8826 26.6106 10.8705 26.5766 10.858 26.5417C10.8347 26.4513 10.8347 26.4513 10.8765 26.3677Z" fill="#945DFA"/>
<path d="M24.4134 3.59749C24.4134 3.62506 24.4134 3.65264 24.4134 3.68105C24.2959 3.77244 24.2959 3.77244 24.1627 3.84817C24.1213 3.83438 24.08 3.8206 24.0374 3.80639C24.2934 3.59749 24.2934 3.59749 24.4134 3.59749Z" fill="#844CF5"/>
<path d="M11.921 25.4903C11.9624 25.5041 12.0037 25.5179 12.0464 25.5321C12.0601 25.6286 12.0739 25.7251 12.0881 25.8246C12.0468 25.8246 12.0054 25.8246 11.9628 25.8246C11.949 25.7143 11.9352 25.604 11.921 25.4903Z" fill="#9559FA"/>
<path d="M10.1245 23.9028C10.1383 23.9028 10.152 23.9028 10.1663 23.9028C10.1938 24.0682 10.2214 24.2337 10.2498 24.4041C10.2222 24.4041 10.1947 24.4041 10.1663 24.4041C10.1048 24.2198 10.0673 24.0915 10.1245 23.9028Z" fill="#9866F9"/>
<path d="M18.6477 19.1816C18.9297 19.2965 18.9297 19.2965 19.0237 19.3905C18.7417 19.3539 18.7417 19.3539 18.6477 19.3069C18.6477 19.2656 18.6477 19.2242 18.6477 19.1816Z" fill="#6C3ADF"/>
<path d="M14.8456 15.8809C14.8732 15.8947 14.9008 15.9085 14.9292 15.9227C14.8735 16.0341 14.8178 16.1455 14.7621 16.2569C14.7345 16.2569 14.7069 16.2569 14.6785 16.2569C14.7228 16.1148 14.7625 16.0057 14.8456 15.8809Z" fill="#7647EA"/>
<path d="M30.4297 10.4076C30.4572 10.4352 30.4848 10.4628 30.5132 10.4912C30.3296 10.6585 30.3296 10.6585 30.2625 10.7001C30.2212 10.6863 30.1798 10.6725 30.1372 10.6583C30.1648 10.6583 30.1924 10.6583 30.2208 10.6583C30.232 10.6325 30.2432 10.6066 30.2547 10.58C30.3043 10.4912 30.3043 10.4912 30.4297 10.4076Z" fill="#703CE8"/>
<path d="M21.1963 45.6703C21.2514 45.6703 21.3066 45.6703 21.3634 45.6703C21.3634 45.6979 21.3634 45.7254 21.3634 45.7538C21.4186 45.7538 21.4737 45.7538 21.5305 45.7538C21.5305 45.7814 21.5305 45.809 21.5305 45.8374C21.2903 45.8009 21.2903 45.8009 21.1963 45.7538C21.1963 45.7263 21.1963 45.6987 21.1963 45.6703Z" fill="#7246DC"/>
<path d="M5.27802 24.5294C5.31938 24.5432 5.36074 24.557 5.40336 24.5712C5.40336 24.6677 5.40336 24.7642 5.40336 24.8636C5.36199 24.8498 5.32063 24.8361 5.27802 24.8219C5.27802 24.7253 5.27802 24.6288 5.27802 24.5294Z" fill="#965CFB"/>
<path d="M22.4497 7.65019C22.5543 7.77296 22.5946 7.86657 22.6168 8.02622C22.5892 8.02622 22.5616 8.02622 22.5332 8.02622C22.4887 7.92997 22.447 7.83235 22.4079 7.73375C22.4217 7.70618 22.4355 7.6786 22.4497 7.65019Z" fill="#8252EB"/>
<path d="M20.8621 27.7883C21.0275 27.871 21.0275 27.871 21.1963 27.9554C21.1825 27.983 21.1687 28.0106 21.1545 28.039C21.1269 28.039 21.0994 28.039 21.071 28.039C21.071 28.0114 21.071 27.9838 21.071 27.9554C21.002 27.9416 20.9331 27.9278 20.8621 27.9136C20.8621 27.8723 20.8621 27.8309 20.8621 27.7883Z" fill="#884CF9"/>
<path d="M38.7859 21.0616C38.7859 21.187 38.7859 21.187 38.7336 21.2549C38.6533 21.318 38.5933 21.3369 38.4934 21.3541C38.5909 21.2566 38.6884 21.1591 38.7859 21.0616Z" fill="#602ED6"/>
<path d="M30.4716 20.6021C30.4854 20.6572 30.4991 20.7124 30.5133 20.7692C30.4444 20.8244 30.3755 20.8795 30.3044 20.9363C30.3044 20.773 30.3674 20.7226 30.4716 20.6021Z" fill="#6A3CDA"/>
<path d="M30.764 17.5521C30.7916 17.5935 30.8192 17.6348 30.8476 17.6774C30.7787 17.774 30.7097 17.8705 30.6387 17.9699C30.6249 17.9423 30.6111 17.9148 30.5969 17.8864C30.6294 17.8051 30.6294 17.8051 30.6779 17.714C30.7017 17.6686 30.7017 17.6686 30.726 17.6223C30.7386 17.5991 30.7511 17.576 30.764 17.5521Z" fill="#E8DEFA"/>
<path d="M32.2681 12.2041C32.3095 12.2179 32.3508 12.2317 32.3934 12.2459C32.2694 12.3493 32.2694 12.3493 32.1428 12.4548C32.1152 12.441 32.0876 12.4273 32.0592 12.413C32.1281 12.3441 32.1971 12.2752 32.2681 12.2041Z" fill="#7443EA"/>
<path d="M27.8393 7.02342C27.8825 7.13992 27.883 7.18502 27.8419 7.30544C27.8273 7.33646 27.8126 7.36748 27.7976 7.39945C27.77 7.38566 27.7424 7.37187 27.714 7.35767C27.7923 7.11743 27.7923 7.11743 27.8393 7.02342Z" fill="#7E49F2"/>
</g>
<defs>
<clipPath id="clip0_4385_82381">
<rect width="38.975" height="42.8086" fill="white" transform="translate(4.87189 3.24791)"/>
</clipPath>
</defs>
</svg>
